<mxfile host="app.diagrams.net" modified="2023-08-22T13:59:33.295Z" agent="Mozilla/5.0 (Macintosh; Intel Mac OS X 10_15_7) AppleWebKit/537.36 (KHTML, like Gecko) Chrome/116.0.0.0 Safari/537.36" etag="X2o6-ianGxYqBQ8Haf_v" version="21.6.8" type="github">
  <diagram id="zzds6Kp185NoCfkkMVd4" name="Page-1">
    <mxGraphModel dx="3665" dy="1893" grid="0" gridSize="10" guides="1" tooltips="1" connect="1" arrows="1" fold="1" page="1" pageScale="1" pageWidth="400" pageHeight="900" background="#EFF1F3" math="0" shadow="0">
      <root>
        <mxCell id="0" />
        <mxCell id="1" parent="0" />
        <mxCell id="M6gj8kt36gLy5a3jpEOS-1" value="" style="rounded=0;whiteSpace=wrap;html=1;strokeColor=none;fillColor=#29939d;" parent="1" vertex="1">
          <mxGeometry y="1" width="400" height="899" as="geometry" />
        </mxCell>
        <mxCell id="M6gj8kt36gLy5a3jpEOS-5" value="" style="rounded=0;whiteSpace=wrap;html=1;strokeColor=none;fillColor=#515e83;" parent="1" vertex="1">
          <mxGeometry x="400" y="1" width="400" height="899" as="geometry" />
        </mxCell>
        <mxCell id="M6gj8kt36gLy5a3jpEOS-6" value="" style="rounded=0;whiteSpace=wrap;html=1;strokeColor=none;fillColor=#f9c860;" parent="1" vertex="1">
          <mxGeometry x="800" y="1" width="400" height="899" as="geometry" />
        </mxCell>
        <mxCell id="M6gj8kt36gLy5a3jpEOS-7" value="" style="rounded=0;whiteSpace=wrap;html=1;strokeColor=none;fillColor=#FF9796;" parent="1" vertex="1">
          <mxGeometry x="1200" y="1" width="400" height="899" as="geometry" />
        </mxCell>
        <mxCell id="M6gj8kt36gLy5a3jpEOS-8" value="&lt;h2&gt;&lt;font size=&quot;1&quot; style=&quot;&quot; color=&quot;#ffffff&quot;&gt;&lt;b style=&quot;font-size: 80px;&quot;&gt;赋能&lt;/b&gt;&lt;/font&gt;&lt;/h2&gt;" style="text;html=1;strokeColor=none;fillColor=none;align=center;verticalAlign=middle;whiteSpace=wrap;rounded=0;" parent="1" vertex="1">
          <mxGeometry x="919" y="507" width="162" height="30" as="geometry" />
        </mxCell>
        <mxCell id="M6gj8kt36gLy5a3jpEOS-9" value="" style="shape=image;verticalLabelPosition=bottom;labelBackgroundColor=default;verticalAlign=top;aspect=fixed;imageAspect=0;image=data:image/png,iVBORw0KGgoAAAANSUhEUgAAAgAAAAIACAYAAAD0eNT6AAAABHNCSVQICAgIfAhkiAAAAAlwSFlzAAAOxAAADsQBlSsOGwAAABl0RVh0U29mdHdhcmUAd3d3Lmlua3NjYXBlLm9yZ5vuPBoAACAASURBVHic7N15nE31G8Dxz519H9swtrFnC0XJlq2UpY0sWUJlr6yJ0qZIComQJGtESKVUsm+lKGRfZzCWrLPv9/fHNeVXlpn5fs895977vF8vr9/Cec4zx3W/z/muIIQQQgghhBBCCCGEEEIIIYQQQgghhBBCCCGEEEIIIYQQQgghhBBCCKuwmZ2AcAobUBQoA5QGSgIRQMF//fIB8l+9xg8IvvrfE4G0q//9EpABXPjXr3PACeD41V+nAbtRP5DQRv6OhDCPqW2wFADuxQsoB9QAqgHVgco4Gn1/J+eSAkQDe4HdwC5gJ3AUyHJyLuLGpAAQwjxSAIg8KwDUu/qrPlCLf97arSoR2A5svvprK3DR1Iw8mxQAQphHCgCRY0FAY6AF0BTH272r/x3agX3AGuA7YD2QZGpGnkUKACHMIwWAuKlSwGM4Gv1GQIC56RguBUcRsBJYjmMYQRhHCgAhzCMFgPiP4kBboB2O7n1P/nvaC3wBzMUxf0DoJQWAEOaRAkAAju799sDTOMbzvcxNx3KycMwZ+BRYjAwT6CIFgBDmkQLAw1UBugI9cUzqE7cWB3wOTAd2mJyLq5MCQAjzSAHggbyBx4HBwD0m5+LqfgEmAEuBTJNzcUVSAAhhHikAPEgI0AkYAtxmci7u5jjwEY5egcvmpuJSpAAQwjxSAHiAcGAQ0J9/dtoTxrgETALeB66YnIsrkAJACPNIAeDGgoEewMtAYZNz8TQXgclIIXArUgAIYR4pANyQH9APeAlp+M32FzAGmMI/5xmIf0gBIIR5pABwM/cDE4GqZici/s9hHD0xX5idiMVIASCEeaQAcBMVgfFAK7MTETe1BhiI44AiIQWAEGYytQ2WzWbUBeDoYt6NNP6uoCmOvQPGAIEm5yKEEKaRHgA1jYCPcYElfTabjWKR+SldMoIyURGUjoqgaJH8FCoQSkTBUAoWCCUsNJDw0CAA/Px8CA5ynCCcmJRKWloGAFfik4iLT+b8hXjOX3T8On32Esdj/uJYzF8ciznH6bOXsdtd4sXyENALWGdyHmZS+ouKPXtBVx5CuJxiRQqqhpAhABcUBryLo/Gw3DMMCQ7grjvKUqNqKapVLkmNqqWoWqkEgQF+Trl/UnIqe/afZOeeGHbvi2HX3hh+++MoCYkpTrl/LtmBT4CheOZqASkAhMgjKQA8T31gHlDG7ESyFYkIp0mDqtS7+zbq176NGlVL4e1trdGdjIxMdu6JYfO2A2z59SBrN+3h3Pk4s9O6VjTQBdhkdiJOJgWAEHkkBYDn8AFeBUbg2MrXNN7eXtSpVYEW99WgedM7qFm9NDaba/1VZmXZ2bHrGCtX/8HK1X+w7fcjZGZmmZ1WJo65ASOBDJNzcRYpAITIIykAPENpYAFQ16wEvLxs3FunEh0eq8vjD91D4UJhZqViiDPnLrN0xTYWLd/K5m0HyMoydQ7BLzi2bPaE44elABAij6QAcH8P4mj8TTmpr/JtxenRuQkd29SnaJF8ZqTgdKdOX2Thl1v4ZP5aDhyONSuNS0BnYKVZCTiJFABC5JEUAO7LhmPjmDdx8nLJAH9f2j1Sh55PNuXeOpWceWtLsdvtbNi6nxnz17D0m19ISU13dgpZOIYD3sJ918tLASBEHkkB4J7CgLnAo868aeFCYfR76gH6Pd2MiILu1cWv6tz5OKZ8+iNTP/2R8xfjnX37b4Ancc9VAlIACJFHUgC4n5LAt0A1Z92wfJlIhj77EF07NCTA39dZt3VJySlpzFm0gfc+/Iaj0eecees/cWz0FOPMmzqBFABC5JEUAO6lGo7Gv6QzbhZVohAjBj7G050a4+Nj6sICl5OensnCLzcz8r2lziwEzgAPA78564ZOIAWAEHkkBYD7aAksAkKMvlGRiHBee+FxenRugp+fj9G3c2upael8PHcNb41fxl8XnLKvQCLQEcewgDuQAkCIPJICwD10AWbhWOtvGH8/Xwb0as6IQa0JC5Vt6HW6fCWJtyYsY/In35Oenmn07TKBZ4A5Rt/ICaQAECKPpABwfb2AaRg80/+R5rUYP7IL5ctEGnkbj3fgcCyDXp3HytV/GH0rO/AcMNXoGxlMCgAh8kgKANfWD/gQA59DkYhw3n29E13bNzTqFuI6vvlhB32GfkLsmUtG3+p1HEtFXZUUAELkkasXANbaMN65hgNTMOgvwGaz8UznJuzfMkEafxM8/GBNdq1/1xnPfiTwmtE3EUII3Ty1B2Ag8L5RwSML52P25D482KSGUbcQubDixx08PWC60ZMEh+E4IdLVSA+AEHnk6j0AnlgAdAc+xaCf/cEm1Zk9uS+RhT1j215Xce58HE8P+IhvV/1u5G2GABOMvIEBTC0AVL9Azb6/cG0W+PzIEIATdQZmYsBD9/fzZdp7z/D9opek8begwoXC+Gb+UCa8+SS+vobtufAe0M2o4EIIoZMnFQAtgNkY8DOXLF6QDV+/Tp9u9+sOLTSy2WwM6tOSNcteNepgJS8cBeZDRgQXQgidPKUAuB1YiAHr/BvWrcyvP46mds1yukMLgzS4pyI7142lSYOqRoT3xrGh1D1GBBdCCF08oQAojuNI13Ddgft0u5/VS0dQJEJ7aGGwiIJhfP/5cLo/0ciI8EHAl0ApI4ILIYQO7l4AhAIrgBI6g3p52Xj39U5Me+8Z2cPfhfn5+TBrUh9GvtgWm037tJCiOM6VkOpQCGFJ7lwA2HCM+d+hM2iAvy+LZgxg6LMP6wwrTPTaC48z58O+RpzLUBWYj3v/OxNCuCh3/mIaBrTRGTA4yJ9vPhtK24dleNfdPNnuXr6a+wKBAX66Qz8EjNAdVAghVLlrAXAfMEpnwPCwIH784mXub1hNZ1hhIc2b1uD7RcONOKjpDRynTQohhGW4YwEQBXyOYza2FoUKhLJm2SvUu/s2XSGFRTWsW5kfFr9EvvAgnWG9gHlAGZ1BhRBChbsVAF7AXKCQroDhYUGs/Hw4NavLd7enqFOrAt8veonQEK09AQVwLA/01RlUCCHyyt0KgBGAtnVdQYH+fDN/KHfdUVZXSOEi7qlZnpWfDyM4yF9n2LuBV3QGFEKIvHKnAqA28KquYAH+vqz4bCj31qmkK6RwMfVrV2TRjAG6VweMABroDCiEEHnhLgVACI7lVlq6V728bMyb+qxRO8UJF9Kq2Z18PL6nzn0CvHHMB5D9AYQQpnKXAmAMUEFXsHde7ShL/cTfunVoyKtDtK4oLY1rHh0shHAj7lAA3AP01RWsR5cmssmP+I83hj5O1/YNdYbsiWO5qhBCmMLUs4g18Ad2AFV0BGvSoCo/Ln5JtvcV15Walk7jR9/i5+2HdIU8CNQAUnQFzAO7ysWq56kL4cqKFSmoGsLUNtjVewBeQlPjX7J4QRbN6C+Nv7ghfz9fls0erPMo4dvQOHFVCCFyw5ULgAo4CgBl/n6+LJk5iIiCYTrCCTdWtEg+Ppv2nM5CcShQWVcwIYTIKVcuAMYBWjZunzi6K7VrltMRSniAJg2qMuql9rrC+QITdAUTQoicctUCoCnwiI5ALe67g95dZS6WyJ2hzz5M03u1LRNtDrTSFUwIIXLCFQsAb2CijkCFC4Uxa1IfI86CF27Oy8vG3A/7UTB/iK6QE3FMahVCCKdwxQKgF6B8JJ/NZmPulH4UiZD9WETeFC9agI/G9dAVrjzQR1cwIYS4FVcrAAKAl3UEeqZzYx5sUkNHKOHB2j58D+0eqaMr3Agcu1oKIYThXK0A6AuUUA0SWTgf777WWUM6QsCkt7uRP1+wjlARQD8dgYQQ4lZcqQAIBobpCDRl7FO6vrCFILJwPt57XVtB+SIg61GFEIZzpQLgOaCIapBHmteiTavaGtIR4h9Pd2pMo3palvMXBAboCCSEEDfjKgWAPzBINYifnw/j3uiiIR0h/p/NZuOD0d3w9tbyT2ogMhdACGEwVykAuqPh7X9Q75ZUKBupno0Q11Gjaime6dxER6gCwFM6AgkhxI24wgJ4G7AHxe1SCxcK4+DP7xMeFqQnKyGu468LcdxWZxCXrySphjqG46yADPWsbkoOAxIij+QwIOO1QsNe6a8PbSuNvzBcRMEwXnxOyyaVZYDWOgIJIcT1uEIBMFg1QOmSEfTQ0zUrxC093+NBChfSMpFf+bMvhBA34mN2ArdQCWisGuTVIW3w8zPnRz13Po6NP+/nz30n2H84loNHTnPpciKX4xJJSHQcAx8SHEC+sGDy5wumYvmiVCpfjKqVStKwbiWPP6HQFZ9fSHAAw55/hCGvz1cNVQeoAexUz8qaNHShCpFnnj6EZfU5AOOAISoBKpSNZO+mcTqPb72l3/44yoJlm1m1bjd7DpzEbs/bMKvNZuP2SiVo1rg6ndrUp1aNMpoztSZ3eH7JKWmUrz2Q2DOXVENNwbEE1iimzgGQAkCYyQKfX1PbYCsXAH7ASRy7o+XZ9HE96OWE0/7iE5KZMW8NMxesY++Bk4bco2rFEjzTuQk9n2xKSHCAIfcwizs+v3FTVzD0jc9Uw1wGigHJ6hldlxQAwmNZ4PMrBcANdAA+VwlQuFAY0b9/SIC/r6aU/uvS5UQ+mLGSyZ/8wMVLCYbd51oF84fQv2dz+vdsQb5w157Y6M7P70pcElF3PkdcvHLb3Q2YqyGl65ECQHgsC3x+ZRXADTytGqDfUw8Y1vjb7XZmLVxHxbqDGfneUqc1XgAXLiXw+rtLqFh3EHMWbchzF7mZPOH5hYcF0aNLUx2hZE8AIYR2Vu0BiABiUZikGBjgR/Tvkw2ZBHbk+Fm6Pz+NTb8c0B47L+6tU4k5H/alTFRhs1PJEU96fjEnz1Ou9kAyMjJVwmThOATrtJ6s/o/0AAiPZYHPr/QAXMfjKK5QaPdIHUMa/+Urf+PuB0ZYpvEC2Pjzfu5oMpzFX/1sdiq35GnPL6pEIR5qdqdqGC+grYZ0hBDib1YtANqpBujRRe+6f7vdztA3PqN1t/FcupyoNbYOcfHJPNFrEsPfWmjJIQFPfn49n9QyCbW9jiBCCJHNigVAJNBIJUClCsVocE9FTelARkYmPQZ9zLipK7TFNILdbmfs5K/p+uxU0tOVupy18vTn17xpDaJKFFINUx+I0pCOEEIA1iwAHgGUFu337NIUm03P0Ep6eiZtnprApwvWaYnnDPOXbKLtM+9bogiQ5wdeXja6P6FU04JjrFDLHsNCCAHWLABaqlzs5WXjidb1tCRit9vpNWQG3/ywQ0s8Z/r6++08NeAjU4cD5Pn9o2v7e3WEaa4jiBBCgPUKAD9Aad3UvXUqUSwyv5ZkXhy5gNmfr9cSywyfLdnES6OUtlJQIs/vH+VKF+HOaqVVwzQB3GsHKCGEaaxWADQAQlUC6Hr7X/LNL5Yfs86Jdz/8hi+/+9Xp95Xn91/tH62jGiIIaKghFSGEsFwBoNTF6e3tRZtWtZWTOHL8LD0GfawcxwrsdjvPDJzO8RN/Oe2e8vyur/2jdXXMTWmhnIgQQmC9AkBpvVSdWhWUj2G12+10f34aV+KSlOJYyaXLiTzV3znzAeT53VjZUoWpVrmkajpathYUQggrFQAhQHWVAC3uq6GcxKyF6y21SY0u6zbv5bOlmw2/jzy/m2veVPkzejuQTzkRIYTHs9JWwPcBP6kE+G3V20pHvl66nEjFuoP560KcShrXFRrsR6vGZWhSpyQ1KkZQqngY+cL8Abgcl8rxk1fYeeA8a38+wXfrjxGfmKY9hyIR4RzYOoHwMGMOwJHnd2trN+2haZtRqqm0BFaqBrnK1K2AhXBlrr4VsNJ2u5rVV7m4SEQ4NauXVkrggxkrtTdeRSOCeaXfPTz5WBWCAq7/uCMKBBJRIJC7q0fSo93tJKVksHDFft6b8RuHYy5ry+XsX1f4cOYPjBjUWlvMa8nzu7X6tSsSGhJIfILSCYH10FcACCE8lJV6AL4HHszrxU+0rsfC6c/n+ebxCcmUrtVf26l0gQE+DOt1N4O61yQ4MG8nEqZnZPH+7B2MnLyV1DQ9m9IUKhDKse2TCAnWu5pMnl/OPdzlPVb8qLQ3wjocSwJ1kB4AIfLI1XsArDIHwAYoTd+vd/dtSgnMmLdGW+NVPiofWxc9wSt978lz4wXg6+PFiz3u4qfZbSlSUE+3/fmL8Xwyf62WWNeS55dzqp9V4C6sVbwLIVyQVQqAkoDS7j31a6t9qc5csE7p+mw1KkWwYUF7br9Nee/3v9W9syg/L+lI1Qp6jk79dIH+AkCeX86pflZxTJgtqxpECOHZrFIAKM3+Dw0JpHqVvJ+T8tsfR9l74KRKCoDjzXXlJ60prOlt81olI0P5ZvpjWt5kd+87wR9/RmvIykGeX+7cfWc5/PyUp99UUw0ghPBsblEA1KpRBh+fvJ8ftGCZ+vKuwAAflkx+yJDGK1tU0VCWTH4Yfz+ls5IAWKBxSaA8v9wJDPDjjttLqaag9G9GCCGsUgAovc3UqKr2Zbpq3W6l6wGG9bpba7f1jdS9syivPae8pSyr1u/SkM3VWPL8ck31M4v0AAghFFmlAKiqcrFK9/+583HsUey+LhoRzKDuNZVi5Mag7jUpFxWuFGPX3hjOX4xXzkWeX95Uq5z3z+xVVVQDCCE8m1UKgLzv3gNK26tu/Hm/8havr/RTm62eW36+3gztcbdSjKwsOxt/3q+cizy/vFEpWq8qjawEEEIosEIBUAjHrOY88fKyUbVSiTzf/M99J/J8LTh2qHvyMee/jHV8qCIhQWqNpurPriOGpz4/DWcCBAGFVYMIITyXFQqA0ioXFy2Sn6BA/zxff+BIrMrtadW4zA13qDNScKAvLRopdZxw4Mhp5Tzk+eVNgfwhFMif57o3W2nVAEIIz+XyBUDpkhFKNz+o2Ag2qaP8JpdnTRXvrfqz64jhyc+vTJTaZxfFoTMhhGezQgGgNB1a9Uv0/AW1iXA1Kip/ief93pXM/dl1xPDk56davALKEwmEEJ7LCgWA0jhmacUCICExRen60iXClK5XundxtXsrHkgDyPNTUSZKeQjf+HWTQgi3ZYUCQGl/1mKRSjsIE6/YgIWF+CldryI8NO9zHwDiE9R+dpDnp6JEsQJK1yMFgBBCgRWOA1b6EitUIFRXHi5HdUe71LR05RzS0jKUrvfzVd+Vz1UVVP/s6jncwESqp6mpnkZo9v11WLzocwb2f9bsNJzqg8lTade+g9lpuDyX7wEomF/tSzRU8VjcuIQ0peuFea7EpypdHxqi9tnRULxKD4Bg61Z923q7ii1bNpmdgltw/QKggNpSKpVz3QGOnbiidL0wz7GTan93oSGBStcXVF8GqDyGIFzf1s2eVwB44s9sBCsUAMEqFxfIp/YlWqig2lvYzgPnla4X5tm5X+3vTvWzo2EIwLiTk4RLOHXqJDEx+k72dBUxMdGcPKm+kZmns0IBoDQLzN9fbTe328oVVbp+7c/yIXRVa36OUbpe9bMTGKA8AVJtFqNweVs8+E1465YtZqfg8qxQACh9ifkrnqtesVwxpeu/XXeUhCT1yXTCuRKT0/l+w3GlGJXKq312VD+7KBbPwvV58li4J8590M0KBYDSl5if4pfo7Yp7sickpbPouwNKMYTzLfhmv3LhpnIGBaj3XiE9AB7Pk8fCt2zy3OJHF9cvAHzVCoCGdSths6kdqvbejN9Iz8hSiiGcJzUtk3dn/KoUw8vLRsO6lZViqH52kQLAo3nq+H+2mJhoTp1SO4rc01mhADA1h4iCYdyu+CZ3OOYy78/eoSkjYbQJs7Zz7GScUowaVUspz+L39lb+6KudwyxcmieP/2eTZ6DGCgWA0nZqaelqG9EANGtcXTnGyMlb2fq7+uE6wlibt8fy1pRflOM0a1RNOYaGz676Vo7CKex2O6+/OoIxb79FUlKSlpgyBq5vDkRSUhKjR73Jq6+8hN3uOXW16xcAijvRAXRqU185RmpaJm2f/4YTZ9QP2BHGiDkdT/sBK0hLz1SO1elxDZ+ZVOXJo+qHOQjD2e12Xn3lJWZ8/BGTP5hIg3q1+WLxIuW4njz+n+1nDSsBVv34PY3vrceUyR8wc8bHvPjCYLKyPGNI1woFgNKXmI4egFo1ylC1otowAMDZC0k81Gu5FAEWFHM6nod6LefsBfW3r+pVoqhRVekQSwBS1YtXta0MheHsdjuvjBjOp5/M+Pv/O3P6NAOe70fHDm05cvhwnuKeOnWS6OjjmrJ0XdHRx/M8D+DwoUN0aNeGbk92/r89BT6bP5dXXh7uET0BLl8ApKToWYL3dKfGWuLsOXSBOm0XynCAhWzeHkuddgvZe1jPvu26PivSA+Deshv/WTM/ue7vr1+3lqaN783TsICsgf9HbucBJCYmMnrUm9zXpCEbN6y/7p+ZPWsmI14a5vZFgBUKAKUhgIuXE7Qk0avrfTq2ZgUcPQH3d1/C2Bm/auluFnmTlp7JmOnbaPbUUs5pePMHx6TRHl2aaol1OU45J5kDYFG3avyzpaenMfmDiTSsX4cV33yd4/ievP7/33IzF+Lrr5bTsEEdpkz+gPT0m5/j4glFgBUKAKW3mIuX9BQAIcEB9O/ZXEsscMwJGDFhM7e3mssnX/xJYrJsFuQsCUnpzFi8m6ot5/DqxC1ai7CBvVsQHKRn9d2Fi8pDRWpLGYQhctr4Xys29hS9ejzFE+0fz9GwgIz//yMnz+LwoUO0b9uaPr2e4XRsbI5jz541k1dedt8iwArHASv1y168nKgrD/r3bMGUT3/k3Hl936tHT1yhz2s/8cI762nRqAxN7inJHZUjKF08jHxh/h59HK4OaemZXI5L5fipOH7fe461v5xg5frjhhRcRYvk47lnHtQWT0Pv1VkdeQh98tL4X2vD+nU0bXwvvfv2Y+CgIQQF/fe4h9hTp2T8/xrZ8wCKF//vPK7ExETenzCOGdM/uuUb/43M+nQmAKPeHqu8Z4zVWKEAyHk5dh0a3qL+li88iHdf70z356dpi5ktISmdL1Ye5IuVB7XHVmEr3NHU+/tUnmjq/XNj3BtdCAtVOwHwWhcuKhcAZ3TkYabYs3rmZVjh/qqNf7b09DQ+nDSRZUu+4I03R/HQw4/83+9v2aL+9n/8y/KUilTeiVKL6DPplG6dt8mQ2bZu2ULbdu3/7//7+qvljHzj1Vy98d+IuxYBVhgCUJotd+rMJV15ANC1/b3KO7wJ99OkQVU6tqmnNebps8qfXekBsAhdjf+1bjQsoDr+X6aYr2Uaf4BSkb6UKaaWz7XPJK/d/bcy61P3Gw6wQgGg9DcUfeIvXXkAYLPZmDelHwU0TQgUri9/vmBmTuylvfI/fkL5KGmX7wFwB9nr/HU2/tdyDAs04NVXXiIhIUF5/L9JTaUT2A3R6E61k61/3rKF5ORkxr83lvubNmLTxg2aMvt/sz6dyYsvDHabIsD1C4CTyl+i/xFVohAzJvR0q64ekTc2m43Zk/pSJqqw9tjRJ5WLV+kBMFl243/tOn8jpKenM3PGx9xb/x7l8f+Gio2tERorFiXHjx+j3j21GD/uXdLSjN0e47P5c3llhHvsE2CFOQBKQwDR6m9R19WmVW1efO5hxk7O+dIc4X5eHvgYjzSvZUjs4zHKBYCchGIiZzX+1zp7Rr3Tp3FNKxYA6jmdPeu8etio3h5ns0IPwIlb/5GbXBx7gdQ0Y5bYjXnlCbq2b2hIbGF93Z9oxFvD2xkSOy0tgxOxShPQ7IC1ZpR6EDMafx2sNv6frVSkL6WLWi+vm3GHIsAKBcBp4HJeL87IyGT/IX0TPa5ls9n45P1ehr0BCut6tPldhg4DHTx6mnS1/QlOA7LntAlctfEH9a52I1mxZ8LdWaEAANincvGe/cb1hPr6erNs1mB6dGli2D2EtXRt35AvZg7Ex8e4PRp271Xq+AJ5+zeF3W7ntVdfdsnGH6zdyDa607rFibuySgGwV+XiP/crf5nelLe3Fx+P78mw5x+RiYFuzGazMWJQa2ZP7oOvwRs07TmgXLRKAeBk2W/+M2d8bHYqeaY6295ITWpZNzd35RYFwK69MbryuCGbzcY7r3Zk2ezB5M8nlaq7KZA/hOVzhjDqpfZOKfJ27Y1WDSEFgBO5crd/NquO/2dzxXkArs4tCoBfth922pKMx1rcxY7VY2hUTzYLchdNGlRlx+oxTp3r8ct2tZ3PgD915CFuzdW7/bNZefw/m5WHKNyRWxQA5y/Gc+io8/ZEKV0ygrVfvsq8qc8SWTif0+4r9CpaJB+fTXuONcteoVSJQk6775HjZ1XPm7ADv2lKR9xEduPvyt3+2VyhcXWFIsWdWKUAiAHOqQT4efshTankjM1mo0vbBuzfMp63hrenUIFQp95f5F1EwTBGv9yBA1sn0Onx+k6//9bflD+rx1E8REvcmjs1/mDt8f9srpCjO7FKAQCwReniX80ZEg0PC+KVwa05tn0S77/VlWqVS5qSh7i16lWimDiqK8e2T+LlgY8RGqLvYJ/c2LJN+bMqb/8GM7LxL1bIhw+HRFKisPP2YbP6+H+20kWdOw8gqogvU4dGUqyQFfbEcz4r/dRbgcfyevHqDXs0ppJ7IcEBDOzdgoG9W/DHn9EsWLqZVet3sWtvDFlZrr9lpCvy8rJRvUoUDzSuTqfH61OjaimzUwJg9Ubl4ftfdeQhrs/oxn/NlFJUjPKjW6tw3px5nomLLpKeYex3hCt1rTeuGcTsb68Yeg8/XxtDOhZgRPdCBAd60fSuYJo+G03s+QxD72s1VlrT1gDYqBLgyK8fULaU/j3bVZy/GM/Gn/ezZ/9J9h06xcEjp7l4KYHLcUkkJKaQluZZHzjd/Px8CAkOIF9YEAXyh1CxfDEqlS9G1UolaFi3MgUtdqjTsZhzlL1rgGqYpsBaDemAYz5Bnpl9nK9uzmr8r7XveCrPjz/L6t8Std8z25zXitG1Rbhh8XWa/e0VGzb8XgAAIABJREFUnhplzOZuAA/cE8ykwZH/+Xs4EJNmRhFgahtspQLAH7hy9T/zZNp7z9Cn2/36MnIBtsIdla63n1vo0vd3NR/N+Ym+Q2eanYZwsiIFfFjzYRRVytz46+2bTQk8N+4MMWf1b21+/MvyLjEEAHAsNp2yjyuvkvmPYoV8GNOv8E0LoUMn0mjybDSn/nJaEWBqG2ylOQCpwO8qAX5Ys1NTKkIY48e1u8xOQThZsUI+rJ9W6qaNP8DDDULYs7AsQzsXxNdHX7vgKuP/2coU0zsPwM/XxvCuBTm4uNwte0EqlPRj9YelPGZOgFUKgBLAy0BplSCr1u8mKdnYoyCFyKuk5FR+XCcFgCe5Ubf/jYQEevHuc4XZOa8MTe/SM27vSuP/2XStBmhWO5hd88sypm9hggNz1txVjPJjzRTPKALMLgAaA9/iWNY0GohUCZaYlMp3P/2hnpUQBli5eieJSVKgeorcNv7Xqlzan9WTo/j8reIUj8h7QxRZ0IeOzcLyfL1ZOj8YTlGFBrhkEV++GF2cHz+IytPzrxjlx1oPKALMKgCa41j2txZoCWjbeH3JN7/oCiWEVvLZ9BzFCvmwNo+N/7U63B/G/kXleCGXwwKNawaxaFRxYpaXp1lt1+sBaFY7mOgvy7N4dHGa1Aoip7tzZ3f371tYlrZN1Qqf25xTBHjUJMDKwAQcBYAhQoIDOLdvOoEBav/wXIXZk/DMvr+rSE5Jo3Dl3iQkppidijBYduN/m2Lj/297j6Xy/ISzrLnBaoGwYC+6tginb5v8t5xv4Gr2HU9l2rLLzF15mSsJWdf9M/ffHcyHL/x3dr+qgzGOiYEGrQ6YBAxEcTVOXjmrB8AfeBvYhYGNP0BCYgrLv5N9UoS1LP/uN2n8PYBRjT9AlTKOYYGFb/7/sECNCgF8NCySU99UYPKQSLdr/MExJDJpcBFOfV2Bj4cX5Y4KAX//XskiviweXZxVk/LW3X8rBvcE9AcmYlJPgDNuegcwB6juhHsBcH/Daqxa8rKzbmcqs9/Azb6/q3ig3dusWr/b7DSEgYxs/P8tPimLacsu0aBGEPWqmbOjpdm2/pnM5p1J9G2TP8cT/FS4Y0+A0QXAk8B0wKmfUJvNxuFtEy23KZARzG6Azb6/K4g+eZ6yd/WXHSHdWE7W+QvXZ/A+AdOBvjixCDCqbPIDPgLm4uTGHxy7ec1ZtMHZtxXiumYtXCeNvxsrVsiHDTlY5y9cX4WSfqwxbp+A3jh5OMCIAiAIWI7jhzHNjHmrZZtdYbr09ExmfqZr115hNUUK+LBqUpRTuv2FNdwW5ce6qaWUlmfeRH9gGk4qAnQXAPmAVUALzXFz7fTZyyz6aqvZaQgP9/nyLZyMvWh2GsIA8ubvuZzQE/A+TigCdBYAQcA3QD2NMZWMm7LC7BSEh5sw7VuzUxAGkDd/YXBPwACc0BOgqwDww9Ht30BTPC127Y1h3ea9ZqchPNSajXv4489os9MQmsmbv8jm6j0BugqAT4BmmmJpNfr95WanIDzU6Ilfmp2C0MyZS/2EazB4n4ABGFgE6CgA+uNY7mdJP23YzYat+8xOQ3iYzdsOsGbjHrPTEBpJt7+4EVcdDlDNtj4wTkciRho5bimrl75idhrCg7z6zhfKMYILF6XLqj14+UqDkyN2O5vGvMju+dO0h/akN/+MTDsHY9L482gqe4+lEns+gzMXMjh3KZPY8xkkJP2zFW9KWhbJqXYKhHlTMNzxK/u/VyjhR6XSflQu7c9tJf3w8zV123vDZQ8HGLRZUG8gBRiExn0CVAqAEBzr/A05aNrm5UXJBs0IKlSE/cvmKsVas3EP67fso1G9ypqyE+LG1m3ey9pN6m//t3fqJY1/Tknjn2fnLmWw5rckVv+WyG/7Uth7PJW09Ny1MRfjMrkYl8mhE9f/fR9vG+VL+FK3WhCN7gyiQY1AyhV3v+eZPRxgUBEw4Op/aisCVEqyaUAfHUlcyzcwmCodnub2jr0IK1mGtIR45t1XkbT4OKW4d99Zjp9XvoWXl3tVoWbvxGf2/a0mK8tO7QdHsH3nMaU4PgFBPLlmPwH5CmjKzI1J459r2/Yms3h1HKu2JbL7SCp2E/apKlnEl8cahvJ4k1Aa1AjC2+zD6TUyeNvgD9BUBOT1kdfHgI1+SjVuQYdvfqXei2MIK1kGAL+QUKq2f0Y59q+/H+GzpZuU4whxM3MXb1Bu/AEqPtpJGv8c2vLuS9L458D+6DRen/EXFdod4Z5njjN+wUV2HTan8Qc4cTadyV9cpHG/aIo9dIjnxp1h1+FUc5LRzAkTA9/TESgvBYAXmrcrDCxYmAc/WEDLqV8QWizqP79frUtfLV2hL4/+nKRk9/iACetJSExhxNuLlOPYvLyo3vVZDRl5Bi8//cvx3KXxz8qCFZsTaPpcNJWfOMKbn57n8Mk0s9P6j3OXMpiy9BI1njxK/V7HmbfyCqm5HIawGoOLAC1dC3kpALoAd+m4OUCBClV4fNE6yjZ75IZ/JrhIMW57qL3yvU7GXuSdSV8rxxHiet6euJzYM5eU45Rv8Tj5ylTQkJFnqNXnRUIiS2iL5w6Nf0qanY+XX6ZqpyM8/MIJ1m5PMjulHNuyO5mub8ZS7vHDfLjkEilprlsIGFQEnARG6QiU2wLAG3hVx40BSta/j9bzf7ruW/+/1ez9Il4+6vMNx07+mr0HTirHEeJaf+4/wbip6jtP2ry9uavvSxoy8hy+gcHUG/6Otnhv9Ihw2cY/Kwvmf3+FSh2O0HvsafZHW+9tP6dO/ZXB8+PPUL6toxBIz3DNQuC2KD9ee6aQzpCDgQQdgXJbALQDyuu4cdS9D9Dyo6X4hYbl6M+HR5Wl4mOdle+blpZB7xc+kdPZhDZZWXZ6DZ5BenqmcqzyLdqSr+xtGrLyLOUeeIwS9ZpqiTVm7nmSU13v++GnXxO566ljPDkylugz6Wano012IVDjyWP89Gui2enkWlJKFmPmXNAV7idAfY3xVbktAIbpuGnBitV4YMJcvLxz1y1yV99heGsY79v0ywE+nrdaOY4QAB/N+Ymtvx1SjuN4+x+uISPPdO+I8VrmCh2LTeeduec1ZOQc5y5l0G7EKZr1j+H3gylmp2OYfcdTadY/hrYvn+TkOdcpcN6ec0FXQZYGPK8jULbcFAB3A3eo3jC4cFFaTvsC3+CQXF8bUrQkldt1V00BgGFvLuBYzDktsYTnOhp9juFv6VnKWPHRzjL2ryBfmQrU6K7n+/Hd+Rc4csr63ecLV8VRtdNRlqxRWybtSpaujada52N89sMVs1O5pUMn0hj3mba3//eB/bqCQe4KgO46bth41FSlCTt39RmGX0ioch5x8cl0fXYqmZlZt/7DQlxHRkYmT/abQnxCsnIs36Bg7hnwmoasPJuuCYEpaXYGvH9WQ0bGuHAlk9bDTtLptVOcv6w+9ORqLidk0uWNWNqPOMWFK9b9+Z8ff0bXaoYTaJr4d62cFgC+gNqOL0D5lm2JaqB2ZlBgwcLU6qNlJIJNvxzgnUlfaYklPM/bE5ez5deDWmLd2XMIQRGRWmJ5Mp0TAr/dnMBXG+K1xNJpx4EU7nrqGMstmJuzfbEmjprdjrF9v/WGPpati+eHX7TNWRiCpol/18ppAXAvkF/lRv6h4dQfPlYlxN+qP9mP8KiyWmKNHLeUbTuOaIklPMfW3w7x1gQ9p/2FFC1JjW5ah/Y8ms4JgYM+OGupCYFzvrtCg97HOX7adcbAjRZzNp17+zj2DrCKpJQsBk3U1oOkdeLftXJaALRUvVGN7s8TVKiIahgAvHz9qDdsjJZY6emZtOsxkfMXpZoWOXPufBzte0wkI0NP12PdF0bhExCoJZZw0DkhcIwFJgRmZcHAiWfp/laspQoSq0hOtdP1zVhemHyWLAuM6o6efYGYs9ac+HetnBYALZRu4utHlfZPq4T4j9JNWhF17wNaYsWcPE+n3pNlPoC4pczMLDr2nsTJ2Ita4pVscD/lWzyuJZb4h84Jge/Nv2Dq7nkZmY7G7YNFej5z7mz8got0eyvW1D0DDsakMX6BdSf+XSsnBUA4UEnlJuWbtyGwYGGVENfV6I0P8A0K1hJr1frdvDbWkF4W4UZeHv05azaqn/QHjgN/Gr76vpZY4r/u6juM0OKllOOkpNl5btwZDRnlXmq6nQ6vnHKJGe9WMf/7K7QeftK0npKBE8/qmvinbce/G8lJAVAzh3/uhqp0UD/M53pCipak9oDXtcUb88FXLFy2RVs84V7mL9nEe1PUd/vLdvfzI/4+9Ero5xMQRL2hb2uJ9cMviU6fEJicaqfFoBiWrTNteDIB2Ijj9Ln+wGM4toEvDhS4+ssfx0tiKRzLxJsCPYFxwArguLOTBscEzodeOOH0bYSXro1n5VZtc/UGYcDEv2vl5ECfF1A4eSiwQCG6bTiKzcuYsx7tWVl82fl+zu7cpiWev58vq5a8zL11lDo9nMbs43jNvr+zrN+yjwfav01amp7jPQtVrsHji9fnejMskXsrej7Kic3qG3+VLurL3oXlCPQ3/kjxjEw7bYaf5JtNhn7//1sasAH4FvgROADomOhSHMdE8vuBRwGt++LezMMNQlg6pgS+Psb/nSUmZ1Gl41FdY/+rAD1j3DeRk1a5nMoNitdpbFjjD46T0xq/NQVv/wAt8VLT0mndbTwHj5zWEk+4vv2HYmnz1ARtjb+3fwBNx3wsjb+TNHh5nJYJgcdPO2dCoN0OPcecdlbjb8fR6HcFIoBmOE573Yuexh/gFPA50AOIBO4D5gDqG2jcwjebEuj+VqxTJgaOnn3eJSb+XSsnLXNplRsUrqbt4MAbKlC+MnUGv6kt3oVLCbTsOJbTZy9riylcU+yZS7TqNJaLl/R9GdcZNJKCt1XVFk/cXL4yFbjjqf5aYjljQuDwqeeY/a3hY/5JOLr2KwONgHmAM7YTzATW4NhYrgSOHuZYI2+44Mc4hk01dtfXAzFpjF+obZLmBBy9L4bLSQFw66P6bqJghSoql+dY9S59Kdngfm3xjhw/S7O2o2V5oAf760Iczdq9zdFofV8eJeo1pfqT/bTFEzlTs/dQQoqWVI5j9A6Bc1de4d352maQX08yjjf8csBAnNTQ3MBFYPzVXPoDhs20HPfZBeZ/b1xR9fz4M6TpmfgXi8ET/66VkwJAaQOg0BKlVS7POZuNpqM/IrCAvuGlPQdO0rzDGK7Euc5Z2kKPy1eSeLD9GK1HRwfkK0DTt6eDzfjxSPH/fAODqT9Mzw6B321JMGQXvt1HUun7rqGrDZYAFXBMLjNnWcP1pQCTgYo4CgJDdjnqOeY0v+7TP+qwZE0cq7Zp2/GvGLATmAk8CahXrTeRkwIgSOUGgfmdNt+DoIhIGr81VesX7Padx2jV6V0SEq231aQwRnxCMq06jeX33ce1xbR5edF0zMcEFy6qLabInbIPPEqx2vdqiTVo4lmSUvQNLMcnZdH25ZNaY17jCI69XNrhGI+3qjgcQwJ3Att1B09Jc0ysvBin7+yAxOQsBk/SPrxQDngamAvE4Pj7M6QgMLwA8Al07g5npZu0pGbPF7TG3LztAC2eeEeKAA8Qn5BMiyfGatvjP1vN3i9SqlFzrTFFzmWkJPHzhNc4s+NnLfGOn05nxlf65gj1HHOagzGGzC2Yh2N53vdGBDfIHqAu8Bb6JiICcPJchtZelunLL3NCz8S/mynLfwuCT3FM3FQaos9JAeCrdAMfpcvzpHb/V7XtEpht0y8HeLD9GC0nvwlrSkxK5eEu77F5m95h0RJ1m3B3v5e0xhQ5F73+ez5/+G5+/2QCWRn6vqzrV1d6N/rbkjVxLPpJ+/y7FBxj/F0xeC25QdKB13CsGPhLZ+DFq+O0nRtQr5opW3iXBZ7CsZIiGse8gcVALyBXG4sYtz7PRDYvL+4b+wmhxZSKo//Y8utBWnYcKz0Bbig+IZkH249h/ZZ9WuOGFoui2fg52Ly9tcYVt5Z4NpYfBnbmu75tiT8VrTX2XZUDuKuy+tLjS/GZ9Nc/qfAMUB/HLH9Xtx5Hb4DWf5jPTzjDyXPqxWCd2wO5o4KeJegKiuIY3pkOHL36axaO4u+m3LIAAMeEqwcnLcA3UM9Wwdk2/SLDAe4mu9tf95u/b3AIzT/8nIB8BbTGFTdnz8xk17ypLHyoJkd/NOa4775tlOZG/23o5HOcPq9nf4mrDgD1gB06g5rsCI6NhPTs9gZcSchi8Ad6xu77tMmnJY5GZXAss5xzqz/otgUAQESVO7h/3Cztb19SBLgPoxp/L28fHhg/h0KVqmuNK27u3J/bWdqhEZvHvEh6ojE93/lDvXni/jDlOOt/T+LTFVr3GtkJNACO6QxqERdwDAes0xXwC02z9zs9EE5okGs2pa6ZdS6UbtKS+sPHao8rRYDrM6rxB2gwYhxRDR/UHldcX1p8HBtHDWbZE034a+8fht6rW8twggLUvjrtdnjxw3PY9W1Vfwh4EDD/7GLjJACPoLEnoP8E9fX7oUFedH4wXFNGzuX2BQBAtc59qN71We1xpQhwXUY2/jWe6k/VJ3pojyuu7/DKpSx8qCZ/LvgYu8F7vtps0Lu1evf/8g3xbNurbULxSRz7xhu3Q5F1xONY0rhXR7D90Wl88rV6L0yf1pYbBsgRjygAAOq9OIbyLdtqjytFgOsxsvG/7ZGO1B3itI28PFrciWOs6PUYq4Z0I+kv5+xr06RWMJVKqZ0rkJkFr36sbWJ7Co4Ddo7rCugCLuL4mbXsvTtm7nnl43trVAig7u2mrAhQ4jGnkdi8vLjvnRlkJCdzfO23WmNnFwErPx9OSLDpM0LFTRjZ+Jdt9ghNRk8z9PArq8hISSYzLdWp98xMTSEjxfHWfOjbxez4eNzf/9sZ/HxtPNUqnKOn0snItBOflLfehnU7kthzVNuzexb3mvCXU4eBJ4CVgNIkr5PnMpjx1WWea6vWs9OnTX62/ulay8RzsmWeUmnUd6+1lqBmpqXyXb92nNyyRnvsBvdUdHoRYPZxvGbfPzeMbPxLNrifllMW5/rUuWlVQpTuq/LvKyszg+nVXLPrUgAwA8fab082ChihGqR4hA9Hl5bHzzfvu8gmp9op8cghrTsNanDTH8j9X1X+xdvPn+aTF1K0Zl3tsWU4wLqMbPyL3VWf5pMWaDly1plsOar/hUUdBwabnYQFjAR+Uw1y6q8Mlq1TO98h0N/GvNeL0bVFOFFFnL8BXl54XAEAjoNBWk3/ksiadbTHliLAeoxs/IvWrEvLj5bhE6BnVzghcqgPrrnDn27pOHbFU97VZ8rSS8rJtKwXwpzXihG9vDxHl5Zn1ivF6NYynFKR1iwIPLIAAMcmLQ9NXy5FgJszuvFv9fFyfIP0bjblNHIqoauaB/xgdhIW8icwSTXIpp1J7Dyk7zu7TDFfurcKZ/arxTj+ZXmOLbNeQeCxBQBIEeDupPEXbigZkIMl/mskGo441rEk8EZKF/1vQTD7VUdBULqoOQWBRxcAcLUImPGVtmNCryUHCJknMSmVR54cZ0jjH1mzDq2mf+nyjb9NegBc0RSsfaSvWeKBd1SDLFkbT6axW0n8rXRRX7q1dBQEx5aVJ/abCiweXZxej+WjShl/p+Tg8QUAOOYEtJzyhSE9AXKAkPPFJyTTvMMY1m3WslfI/ylasy4PffwVvsFqs/eFyIN4QP+2pu5jOo6T8fLszIUMtuxK0pRO7hQt5EO7pmFMH1aUPQvKcvzL8obfUwqAq2Q4wD3EJyTTsuNYNv0i3f63JD0ArmYG7r3Vr6oUYKJqkC/WqK0G0MUZ8wSkALiGFAGuTRp/4cbswMdmJ+ECPsUxTyLPVmy2RgHgDFIA/IsUAa5JGv88kl4AV7EGx1G/4uYuAItUAhyLTSfmrPKqQpcgBcB1SBHgWqTxFx5A3v5z7jPVAOt2mDMPwNmkALgBWR3gGrJn+xvR+LvLbH/h8uKAb8xOwoWsBc6pBFgvBYCQ1QHWJrP91clSQJewBMVxbQ+TiWLB9PMez3jcUgDcgvQEWJO8+QsPMt/sBFzQWpWLD8akkZKmdkSwK5ACIAd8A4NpOW2JIUXAll8P0rzDO1IE5EJiUioPdX7XkDf/yJp1eGj6crd/8/+b9ABYXSywwewkXJDSca8ZmXb2HnPucddm8DE7AVeRPRzwbe/WnN6xVWvs7OEAZx8l7IoSElNo8cQ7MuFPExu2PJ/37eXrh2+gSYcg2Wz4h5l3lLFfcCg2b6Vj6AHISElOuHRk/80+zItxdGmL3DkNRAOl8hpg3/FUalZ07+/jnJT/Sv0gKueVW1F6ciLf9W1L7LaNZqciNPK4N39hEbZp06oE9zM7Czf1A/BAXi8e1TuCEd0LaUwn92x19ymHuNlvyhBALhk5HCDMIY2/MIsN+3Gzc3BjSt2E0Wfcfy8AKQDyIHs4oGjNumanIhR5ymx/YU1Z2GPMzsGNKRUAJ85m6MrDsqQAyCPf4BBaTf9SigAX5olj/sJa7DbvaLNzcGMHVS6+cMX9p15IAaDANziEVjOWy3CAC5KlfsIK7BlpShvWiJv6S+XiS/FSAIhbkOEA1yPd/sIyvH09Y8s5cySqXHw5QQoAkQPSE+A65M1fWIp/qhQAxlF6tukZshGQyCFZHWB9MttfWM6l/FIAGEepByDD/TsApADQSYYDrEu6/YXwOGkqF2dID4DILRkOsB7p9heWlf+SSVspegSlrSID/N1/m2wpAAwgwwHWId3+wtJS/aUAME5+lYuDA9y/eXT/n9AkvoHBtJy6xOw0PJ50+wtLy0yXAsA4agVAoPs3j+7/E5pIupzNJ38HwspsPn6Fzc7BjSkVAIXC1Q97sjopAIQQwiQ2e2aeT6sTt1Re5eJiEe5/WK4UAEIIYRIbNikAjHO7ysVFCkgBIIQQwjD20mZn4MZqqFxcpqivrjwsy/1LHBe3+OvVZqdgqvaP3Gd2CuIWki+c49QvGzi7cxuXjh0k/uRxki+eJz05iax0paXYnqDP1V83MgkY4KRc3Ik3UFklQMVS/ppSsS4pAIQQuZZ65RKHVizmwNcLObf7N7PTcWcdgMGAB+xLp1VVQGmFRcUoP02pWJcUAEKIHEs8d5qdsz5g7+JZpCcr7bQqcqYIcD/wg9mJuJhWKhcHB3pRroQUAEIIQVZmBn8u+Jhtk94kPTHB7HQ8TUekAMith1UurlkxAG8PmCEnBYAQ4qauRB/hx8FdOb9vp9mpeKo2QF8g2exEXEQEUFslwF2VAjSlYm0eUOMIIfLq2JoVLGnXQBp/c4UCj5mdhAt5CMckwDxrUMMzNmiUAkAIcV0Hln/GjwO6kJYQb3YqAnqYnYALudmqilvy9oImtaQAEEJ4qH1LZrNmRB+yMjPMTkU4NAEqmJ2EC7gbxe7/u6sEkj/U/bcBBikAhBD/cmzNCtaPHAB29z8P3YXYgGfNTsIFKD+jVvU85/AwKQCEEH+7En2ENcN7Ys+UZecW1BPHskBxfUVw7JugpG3TMA2pqIs+k274PWQVgBACgKyMdH4c3FXG/K0rCHgBGGp2Ihb1BqA0fb9qWX8qlTJn/X/0mXTW7Uhi3Y5E1v+exLFYKQCEEE6ya+4Ume1vff2AD4FosxOxmKpomCjZ5cFwDankzLUN/rodSRw/bXyD/29SAAghSDx3mt+mjDE7DXFrQcB4oK3ZiVjMOBTbM18fG91bGVcAWKHB/zcpAIQQ7Jz1gWzt6zoeB5oBq8xOxCIeApqrBmlVL4TIgvqaxPikLL7aEM9Pvzq69K3Q4P+bFABCeLjUK5fYu3iW2WmI3PkEx3G3l81OxGSFgRk6AvVvX0A5ht0O639PYtaKyyxdF09icpaGzIwjBYAQHu7QisXy9u96ooApQGezEzGRDZgFRKoGqlUpQHnzn5Q0O3c8eZQDMa5zBLblC4BpVdTWZPbda+7BJV6+fkpnomdkZODjY/m/JkOkp6t1mXn5uv9pXjoc+GqBtlgFKlShctvulKjbhNDiUfgGBmuLnS0rPY0/Zn3A9o/eJSPFudvjLxpVnPb3qS0T++yHK3R5I1ZHOp2AtTh6AzxRf6CljkBDOxdUjrF4dZxLNf4g+wAYzjdQrapMTk7SlInrSVH82X2D9Dc+7ib5wjnO7dmhHMfL1497X5lA+2Vbqf5kPwqUr2xI4599r5q9htLhq21ENWhmyD1uZNqyS8oxOjYLp2pZfw3ZAI5egAa6grmQhsBYHYGqlfOnnYa1/9O/VP9sOJsUAAZT/RJMSfbcA8CSFX92oxogd3Lqlw3KO/55+frRavoybu/UC5u387ZQDStZhlYff8kDE+YSXLioU+65/vck9h1PVYrh5QVv9ozQlBF+wFKgrK6ALqAG8DWgpYoa1TsCL8WWcNfhVLbsdr3vaikADOYTrNYIxcdd0ZSJ61H92aUH4NbO7tymHKP+sHcoUaexejJ5VK55G55YsYNqnfsYXoDY7TBtmfq8u9aNQqldJVBDRoBjItxqoKSugBZWFlgJaFmv16BGEI/cG6oc5yMXfPsHKQAM5x+i9jk9HXtSUyauJ/aU2s/uF5ZPUybu6/KxQ0rXF6hQhaodntGUTd75hYTSYMQ4Hl+4loiqdxp6r7krLyvP7rbZYMoLkXjr+wYujaMIKKYtovWUBH4AtHT3eHvB5CHqOyvHJ2Ux/3vXfFGTAsBgYSVLK11/6mSMnkRcUOwptZ89rERpPYm4scvRh5Wur9y2u1O7/W8l4vaaPP75Ohq8/B5+IepvdtdzJSGLBT/GKce5q3IAfVrn15DR3yoAm4GKOoNaRHVgK1BeV8C+bfJzRwWlnYMBWPDjFeKTrL3c70akADBYWEm1obkTMZ674+eJmONK14dHedKwaN6kxau9uZSs11RTJvrYvL2p1qUvT6zYQbkHWxtyDx2TAQFG9YnQuvkMjp6AzUA9nUFc5LlnAAAgAElEQVRNdj+wESiuK2DJIr6M6l1YS6yPNAwJaXYMmA10u9UflALAYGElyyhdv2/PLuweeCyr3W5n35+7lGKoPntPkJaotkw2JLKEpkz0Cy5clAfen0er6cu09wb9fjCFn/9Un/SVL8SbGS8VxWbTkNQ/CuJYHvic1qjm6AN8C2g7os9mg5kvFyU8RL35+/nPZP44lKIhKyVHceyH0A0ohWOexFPA3FtdKAWAwcJLlVO6Pu7KZeU3YVd0/NgR4uPVulmlB+DWVPaoAPANtv7Z6VH3PkCHr3+lZq8X8PLx1RZ3q4YCAOCh+iH0a6N1KAAcqwMmAwsBV5wMUxjHTP9pOH4Wbfq0zk+z2nomCJs08/8I8CnQFceGUOWAp3E0+LkaN5UCwGCFKlfHy1uti2/X79s1ZeM6dv2h9jN7+fhSqHJ1TdkIV+cTEMg9A98gsmYdLfFKRfrS+zF97ep7zxfhdn17A1zrCWAP8KgRwQ3yMLD76n9qVaNCAOP7q0/8y9b7sXxEFdFXVN7Avxv88sAzwDzghEpgKQAM5hsYTEHFhmjThtWasnEdm9ar/cwRVe7AJ0BtEybhXo78uJzYbRu1xJowoAhBAfq+PgP9bSweXVxLt/R1FAOWA0twvC1aVUVgGY43fz0D9NcID/FiydvFCfTXN94SHOjFhAH6CoqrDgMzgSdxrHzQ1uD/mxQAThB5xz1K1x89fNCjhgGijx8l+tgRpRi63vSEe0hPTmTLO8O1xHrwnmDaNNa/wqByaX8WjCyuc2ngvz0O7AUmYkADq6AIMBX4EzBk1qaXF8x5tRjlS+jfHvzxJqE8cI+2PUfOADWBHsB8wNB14FIAOEHRmnWVY6z9aaWGTFzD2lXqP2vknerPXLiP7R+9S8IZ9e9Sf18bk4conz1zQy3rhTD2We1vlNfyAwYA0cDHQCUjb3YL1XE0/IeBvhh4Ns34/kV4tKExy0IBJg+OxN9XS89CJPC6jkA5IQWAE5So11T5YJqfvv9WeVKcK4i7cpnVq75TiuHt50+Juk00ZSRc3eWjB9k5e7KWWEM6FaRCSWMPmRrSqQDPtdU+KfDfAoCeOHoE1uGYRKZtpv1NhOLo2t4M7MTR8Bs6k7R/+wIM7KB+1O/N3Bblx+CO2u7RH6iqK9jNSAHgBP5h+ZS3Sk1JSWblN8v0JGRh3369lNQUtWU1Jeo1NWwTGOF6Nr79gvJqB3BM/BvRXf3UuJyYNDiSpx5yyuR9G9AIx5jzGRzb7A4EKl/9PR1uB4bi2KnwPI7Z6k7Zp6Bby3De1z9Gf10juhfSNSHQF8cKDsN55jmzJij7wKPEbPxRKcbKb77kwVaPER7uiqt6bu3SpQt8/+1y5Thlm7nShGdhpCM/fMnJLWu0xHp/oN6Jfzdjs8GMl4qSmJzF4tVO6/kLBJpf/QVwBdgBbMcxEz0Gx9DBJSAZiMPRhoRd/ZUPxx4Et+F4g83+Zezr9w10uD+MmSOKKR/0k1PZEwLbvqxl2L4J0BHHMk7D5KTCU9qFpu9etY1G3EXK5YvMaViOrAy1M+4bNX2AZwcO05SVtUwa/7by7H8vH1+6bzyKf7jhXah/S75wjlO/bODszm1cOnaQ+JPHSb54nvSrxxn7BgYRWKAQoSVKk79sRYrUqE3xexoSWEDbiXB5Nq2KWu+rlf99pycn8nmrWlrG/pvXCWHl+84/aycj006Pt08z5zvX3GveLF1bhDNzRFF8vPXusJQTDw6M4cdfEnWEisUxRyNeR7DrkR4AJwnIV4Ay9z3EkR++VIqzYe0qmjZrQeWq7rXGfc/uP9i8Qf1NrWyzR5zS+KdeucShFYs58PVCzu3+7eZ/Nj2N1LjLXD5+mBObfgKmgM1GkWp3cdsjHanQqp1TCxZPsX3aWG0T/yYNdk438r/5eNuY9UoxIvL7MO6zC6bk4GoGdCjA+wOK6N5dMccmD46kepejpKYr7+BaDMeEwBfUs7o+mQPgRNW69FWOYbfbmTJxLImKW7haSUJ8PFM/eFfLlsc6nvHNJJ47zZaxw5nXtBIbRw+5ZeN/Q3Y7Z3f9ysZRg5l3XyW2vPsSSX+d0ZusB7t89CA753yoJdYLnY2f+HczNhu891xhxj1fxGnd2a7I2wvGPV+EiQPNa/zBkAmBVXQF+zf5ODlR0Vr1tBxVeu7sGT58/x23OCPAbrczbfJ7/HXurHKsiCp3EHmnMev/szIz2DVvKgtb3cnOOR+Snqyliw+A9KREds6ezGcPVufXKW9rmbDm6Ta/M0zLcyxZxJeXujpn4t+tDOlUgJ8mlaJwfum4/beQQC+WjinBkE6mTDf4j1eeKkTpotomBH6EvgmZ/0cKACe7vVMvLXG2b9vK18sWaYllpi+/WMCvP2/WEqt6N2POPrkSfYSl7RuxecyLpBvY85KRksRvU95mWaf7iDtxzLD7uLsjP3xJzKZVWmJ9MKgIwYHW+ZpsUiuIrTNKU0PDMbbuonp5f36dVcbQdf65FRTgpXPL4XuBDrqCXcs6n2wPcdsjHclXWs+R1gvmfsL6NWorC8y0bvUPLPpslpZY+ctWpELLdlpiXevYmhUsadeA8/t2ao99I3/t+Z0v2tbn+Fq1/RA8UXpSIlvGvqQlVvM6IbRuZJ1GJVvZ4r5snVGaAR0KmNrVbQV9Wufnl5llqFTKvCGaG2nTOJQH9e0QOA7HHgpaSQHgZF7ePtQeoGejJ7vdzkeTx/Pbti1a4jnTr79sZvqH47UNY9wz8HVs3t5aYmXbt2Q2PwzoTFqCYZNwbygtPo4f+ndi/7JbnugprrH9I9ef+JcTgf42Jg4swurJpSgVafhhNJZTorAP300oybQXIwnws24VNEnfDoHFgdd0BLqWFAAmKPfAYxS+vZaWWJmZGYwfM9KlegLWrf6BCe+MJDMzU0u8IjVqU+Y+vQeH7Vsym3WvP49dU455kZWZwdpXn5UiIIfcaeJfTjWpFcSu+WXp376AKUvenM3LC3o/lp8/PytHi7rWP4r6tig/hnTSNodkAJonBEoBYAabjXrDxqCr/y4zM4OpH7zLV0s/t/TEQLvdzrLFnzFt0nvaGn+blxf1hr6t7VmCo9t//cgBYIVnabez/vX+RK/znLMg8mrj6CHadvx7uZs1Jv7lRFiwFx8MKsIfc8vQ9C5tXc6WU796INtmluGjYZFGnZpoiBHdC1p2h0DXeYpupmitelTt8Iy2eHa7nc/mzGDcmNdJNKHL+lYS4uN5b/RrfD7/U61FStUnemg9+e9K9BHWDO9p6pv/v2VlZvDTsGdkYuBNHPnhS05uXasl1kvdCjptxz+dqpb1Z/XkKL56twR33uY+kwSrlPFn8ejibPyoNLUqud7PFRTgxcv6tpBuCjyhK5jsBGii9MQEPn/kbhJOaz3imYjCkTw78EWq3F5Da9y82rP7D6Z+8K6WpX7XCi0WRYevf8U3SM9bT1ZGOks7NHbqhL/ciLi9Jm0WrsHLW98yMHfYCTA9KZHPW9Uk4ewpLfGKFfJh3dRSLjEEcCN2O3y9MZ6RM8/z+0G1szXMUrWsP8OfLEjHB8KNPCLZcIdPptG4XzSn/srQFfIUjrMalN/0XPixuj7f4BAajZyktfsa4K9zZxg5YgiTJ4zh8qWLWmPnxqVLF5g0/m1GjhiivfHHZqPxmx9qa/wBds2dYtnGH+CvP3ewe/5HZqdhOds/Gqut8QeIPZ9B437RHDrhuvsx2GzwaMNQdswpw9oppWh/Xxi+PtafI+DlBS3qhvDDxCh2zy9Ll+bS+F+HtgmBsqOEyaIaNOOOpwbwx6cTtca12+1sXPcT27dtpcXDrWn5cBtCw8K13uNG4q5c5tuvl/L9iuUkX90PX7c7nxlEiXpNtcVLPHea36aM0RbPKL9+OIoKrdoRVMi6M9SdLStT65cr8E8R4Oo9AQCNawbRuGYQp89nMOvbyyz6KY5dh1PNTuv/lC/hR7eW4XRrGU5JPePlpjOo8c+mZcmTDAFYQFZmBit6PMqpX9Ybdo+AgEDue6AlTZq1IKpUGUPuEX38KGtXrWT1qu+Uj/S9mRJ1GvPQjK+0LvvbMna4thnkRrvj6YHUfWGUlljuMASA3c7md4axa95U7aHdYTjgevZHp/HF6ji+3hTP7wdSyMxy7v1tNqhRPoBHG4bwWKNQ7nCzjY0Mbvwn41gRoDyZSgoAi0i++BdL2t6rZQ3zrZQuW54GDZtS/Y5alCpTDlsehyDsdjvRx46w84/tbFq/muhjRzRn+l8hkSVou2QTgQUKaYuZeuUS85pW0rq9r5F8g4J5cs0B/MPUj4V2iwIApAhQcDkhk/U7kli7I4mtu5P582gqSSl6KwJ/XxvVyvtTu0ogje4MokmtYCLy6d23wypcpfEHKQAs5fz+XXzVrTlp8U47/5vQsHAqV61Gyf+1d9/xVVR5H8e/Nw1IgwRYkCRABEEgVGnSFBUQpIgCCgpYV117eVRw18Wu7KMIa39QUcCCqIiIuipY1oKVKihIgFClJ4RAQpLnj0tcdCG5yZm5M3Pn8369eO2+MHPmN8PNPd85M3NOw8ZKS2+o49LSlZiYrISERFWvUUOSdKCgQPn5+7RvX642b9yozZs2KGfDOq1cvlR5Yay1WlJNDX7hXdU50dqVEJfPfFqf3XezpW3ardedj6rV+ZcZtxMxAUAiBFikuET6ZWOhlqw5oNU5hdq8/ZByfj2kTduLtDuvWPkFpSosKtXe/GKVlEg1E6MUFQgoKT5K9WvHqG5KtOqnxqhJepyapseqWUacWmZW88QzCKa81PlLHggAEfUFFYIt33+peZcN0aED9tw796qY6vEaNHWupa/8lXl9xCn6dfl3lrSVekJLtRh2kdJP7q2ktIaSpLxNG7Txy4VaOXuadq3+0ZL91GvbWee8bL58csT9fhEC4BCvdf4SbwG4znEdTla/yTMUFRMZD8JYISo2Tv2mzLSl8y/Y+at+XfG9cTtRsXHq+bdJGvHmV2oz+i9KbdpCsTUSFFsjQalNW6jN6L9oxBtfqucdDysq1rwD2bb0GxXs2mHcTsQJBNT99ofUZvRfLG86Et4OgD282PlLBABXatizr/pNnqmY6jWcLsVxMdXjdebkmWrYo48t7W9a9KnxjH9RsXEa+Mybyhp5uQLlLNgeiI5W1gVX6Kyn3zAPAaWl2vz1p2ZtRCpCAMLIq52/RABwrca9B2jQ1LdVrWaK06U4plrNFA1+7m01OrW/bfvYtuRr4za63/6Q0rqcEvLPp3c9Vd1uvd94v1bUHrEIAQgDL3f+EgHA1ep36KqhMz5QYv10p0sJu8TjMjR05oeq166LrfvZk73aaPvUE1qq1YhLKr1d1vmXK7VpC6N97zasPeIRAmAjr3f+EgHA9VKanKhhsz+zdNIbt8vofrqGvfaZUo5vbvu+9qxfY7R9i2EXVWk+gkB0tE48d6zRvvca1u4LhADYIBI6f4kA4Ak1Uutq4DNz1Onq8Zavee8mgehodb72rzrr6Tctfc+/PIV5e422zzAIZibbStLB3D1G2/sGIQAWipTOXyIAeEYgKkodrx6vQVPnKjnDnpn8nJSckalBU9/WSVfdXu6DdFYrzDd7jc3k9kxSg4ZG+y4yrN1XCAGwQCR1/hIBwHPSupyi895apHaX3GDpqnBOiYqOUbtLbtB5by1SWpdeYd+/6frxsQlVf4/eZFtJKi5013zurhdBISC/oESPvLxLXy0vCMv+3OiblQWaMmuX5bMWHkukdf4SAcCTYqrH6+Rb7tW5r31qy7vx4VK/Q1ed+9qnOvmWexVTPd7pcuAHERACXl+Yp5Yj1+rmKdt08uXr1H5Mtp6es1t5+8M8ob8D9hWU6P/e2qOOF2er8yXrdP2kbWo1aq3mfGq8Mm65IrHzlwgAnlbnxDYaOuNDDXr2bdXN6uB0OSGr3ayV+k6arqEzPrR8Wl+gQjaHgJ5XrteP2daPzqzZWKgBN+Vo2PiN2rCt6Le/X7z6gK58aKvSBq3WFQ9t0eLV9i3E5ZRV6wt1+xO/qtHZa/TnB7fou1X/OcZ1W4o09LaNOuPaDVq5zvrzvjrH1s7/GTnU+UsEgIiQfnJvDXv1E5055SXVb2/va3Mm6rfvojOnvKQRb36lJv2GOl0O/OxwCGh94VWWN71t1yH1uW6DZSMB+w+U6I6ntitr1Fq9++Wxn/vI21+iZ+bsUfsx2ep2+Tq9+O5eHSh0pF+xxIHCUs14b696XLFOLc7/RQ9N36lducXH/PmPvs1X+zHZ+tsz21Vw0JrjXrOxUL2vtvXK/0o51PlLkvdvIiMoEFDmGYOVecZg7fxpmZa/PFWr572iov3OrnAXG5+gZoNGqtX5l6p289aO1gL8TiCgHuMmSpKWzXjS0qbLbgeYrh3wxsd5uvHRbb+74g/Fl8sL9OXyAt37/A6teqWJwvhcrSXe/XKfRt+1WTv3HrvDP5qDRaW69/kdmvHeXk26oZ7O7pVU5Roiddj/SASACFS7eWudMmGyuv3PfVr/6fvK/uhtbfjsX2FbZTAuKVkNe/ZV5umD1KhXP+OH3QDbuDQE/LyhUNc9slXvLzIL8KtzCvXx9/k6rWOCUTvh9uqHuZXu/I9UdltgQLdETb6xnpqmV+78+6HzlwgAES02IVFN+5+rpv3PVUlRoTZ9/Zm2fPu5ti5epO0rvlfhPmsenIlNSNSfsk5Svbad1aBTD6V17mnJgjdAWLgoBOw/UKL7pu3Uwy/t1MEia/qHafP3ei4AfPy9Nauhzv9inxZ8m6//ubC2xo2poxrVKl4A1+bO/zG5pPOXCAC+ERUbp4zupyuj++mSpNKSEu3+ZZVeHdLZqN3z3vpaKU1ODOu7+4DlXBAC3vg4TzdN3qb1Wys33F+R1xfm6bGbS5Sc4I3f0ezNRZaegwOFpbrnuR2a/u5ePXpDPQ0p57ZAGDr/6+SSzl/yQABw3XrjESIQFaXUE1oat2NFG4ArOBQCVucU6tqHzYf7j2X/gRK9+Umexg6oaUv7VvvkB2uu/v9o3ZYinV3ObQG/df4SbwEAwH8cDgHheEWw4GCpJkzdrjYXrrWt8y+z8DtnHwaujI+/t7fW+V/sU8uRa3X9pG3aVxCcOyEMr/q5rvOXPDACAABhdfgVwdLSUstHAspeEbzz0jp64IWdlg/3H8vC7+y5qraDVff/y1N0qFRTZu3S3M/yNH5sHd317HZfXfmXIQAAwB8dHgkIBAJaOv0JS5vevOOQrnxoq6VtVmTDtiJlby5SZoPYsO63sqy+/1+RdVuK9OcHt9jVvGuv/MtwCwAAjsbGGQOdYPfQuhW8UGOInpHDk/yEggAAAMcSQSHArofrrOSFGkPgic5fIgAAQPkiJAR44TmAcNz/t5lnOn+JAAAAFYuAELBhW5HWbQnf/fXK2rAtvPf/beCpzl8iAPie6Yx9RfnenafBdCbE6LhqxjU4ef7dcPyeEgEhwM1X2Au+dW9tIfBc5y8RAHwvznCe/n1bN1pUSfjt25JjtL0Vaxw4ef7dcPyeY+MqguHg5ofsPvnBvbVV4DF5sPOXCAC+Vy25ltH2OV8ssKiS8DOt3fTcWdGGyTG44fg96fArgl4MAW5+yM7NoxPlcPV7/hUhAPhczYZNjLZfOXuaSourvmqXU0qLi7Vy9jSjNmo2ampch1Pn3y3H71keDQHrtrjzOYD1W91ZVwU83flLBADfq5V5gtH2u1b/qBWvTLWomvBZ/vIz2v3LKqM2UgzPneTc+XfL8XuaAyEgvm594zbcOApg0dW/bTP6HIXnO3+JAOB79dp1MW7j84njtPGrj82LCZONXy7UFxPHG7djxblz4vy76fg9L0whIComVu0uuUGj3l2img2PN2rLjc8BWFDTWknNJE2UVGhcUPkiovOXCAC+l9allxSoeI3s8pQUFeqdK87RsplPufp2QGlxsZbNeFLvXHGOSg6ZDTcGoqKU1rmXcU3hPP9uPP6IYHMISO96qkbM+Uon33KvYuMT1MDwvLvxXrsFoxIfS9on6TZJbSV9aNrgMURM5y+xFoDv1Uitq3qtO2rb0m+M2ikpKtS/77tFP776rE48d6wyup2mpLRGio1PsKjSqinan6+8TeuV8/lHWvn6C8bD3mXqte2k6im1jdux+/xLcvXxRwwblhJOrJembrc9oCZnnvO7v2/QqYfR8xvrtgTft29U3x3rAqzfGlynwNDHR/z/VZL6SBou6RFJ6aaNHxZRnb/kgQDwZEuzV42u+tG776mHS7PBI407oDK71qzUFw/dbklbbtZs8EhL2/La+bfy+COGRSEgKiZWrc6/TF2u//tRX7Vs0Klnldsu03joGuM2XOaTo/zda5LekXSrpNslmUxc4fqFfaqCWwDQCWcNV2wNZ6/UvSQ2IVFN+w+zrD2vnX+rjz+iGN4OSO96qs6bs0g9xv/jmPMsJNZPU3JGpkmVkWatpA3H+G/7JU2Q2W0Bz77nXxECAFStZopanneJ02V4RtbIP1v6DrzXzr/Vxx9xqhACEv50nE574BkNem6eah3frMKf5/mL31kYws/8pOBtgcGS1lei7Yi88i9DAIAkqd3F1zt+v94L4hKT1Paiay1v1yvn367jjzhlIeCCK8v9sajYOLW/7CaNnL9YzYeMCrn5Bp3NbwNEkE8r8bNvS2ol6UFV/LZAxF75lyEAQFLw/eKOV5u/GhbpOl37N9VIrWt5u145/3Ydf0QKBNRj/D+OORKQ1qWXhr/+ubredHelw58VzwFEkKPd/y9PvqRxkrIkvXuMn4noK/8yBAD8ps3ov6huq/ZOl+Faf2rdUVmj/mxb+24//3Yff0Q6ykhAYv109Z00XYOfn6/Upi2q1CzPAfxmrSo3pH+k1ZIGKPi2wJELYzyuCL/yL+P6twAQPlExser7yIt6bVh3FeblOl2Oq1RLqqk+D09TVLR9vzJuPv/hOP6IdXgkIComRlFx1XTSlbda8tBng049lZuTbUGBnlbZq/+jma3gSMAdkmpIukk+6PwlRgDwB8kZmTr9wal80R8hKjpGZ/zjOSWnN7Z9X248/+E8/ogVCKjbbQ+q6413WfbGRxrPAUi/f//fRL6k8ZJulE86f4kAgKNo3HuATrlrivEMdREhENCp9zyuhr36hW2Xrjr/Dhw/QsODgJKsCwC+RADAUZ14zhiddv/Tiopxx2xhTghER+vUu/6p5mdfEPZ9u+H8O3n8qFhi/XS/PwdQ3vv/CAEBAMfUfMgonTnlJcUlJTtdSthVS6qpAY/PUothFzlWg5Pn3w3Hj4r5/G0AK+7/+xoBAOVqdGp/DZ/9uepmdXC6lLD5U+uOGvb6564Y9nbi/Lvp+FG+Bp16OF2Ckz52ugCvIwCgQskZmTrn5QXqPm6i4hKTnC7HNrE1EtT1prs19KUPXfXAW7jOv1uPH8eW1sXXMwIyAmAolKeMjJ6INF2Mh8WA3KVg569a/NxkrXh1qor2u29d8aqITUhU1vmXq+3F17l+khs7zr+Xjh//bWbfLOVuXOd0GeGWLel4p4vwOgIAquRg7h6tfuc1/Tz35eBKdqUee3MmEFD9dp3VbPBINe0/zHNz2xuff48fP/5j4R1XadWb050uI9yel+SdBTRcigAAYwW7dmjz159q25KvtXvtz8rdmK0Du3eqMH+fSooqmm7bXlGxcYpLSFT1lNpKTs9USpPmqte2s9I694qY9ezLO/+SIv74/e6nt17SgnG+m6HxIkkvOF2E17k+AAAAqsb0Akqh9RHwKB4CBADAhwgAAAD4EAEAAAAfIgAAAOBDBAAAAHyIAAAAgA8RAAAA8CECAAAAPkQAAADAhwgAAAD4EAEAAAAfIgAAAOBDBAAAAHyIAAAAgA8RAAAA8KFQ1noutb0KAIAbhdJHwKMYAQAAwIcIAAAA+BABAAAAHyIAAADgQwQAAAB8iAAAAIAPEQAAAPAhAgAAAD5EAAAAwIcIAAAA+BABAAAAHyIAAADgQwQAAAB8iAAAAIAPEQAAAPChGLt38O2Sn+zeBcrRsW1zo+1L777OokqqJnDnFKPtqd+Maf38/jvL9PcfkY0RAAAAfIgAAACADxEAAADwIQIAAAA+RAAAAMCHCAAAAPgQAQAAAB8iAES42NhYo+3zDhZaVAm8Jtfw3z4uLs6iSgDYgQAQ4eITEoy2z8ndZ1El8JoNe/OMto+PN/vsAbAXASDCJSfXNNr+gzUbLKoEXmP6b5+cnGxRJQDsQACIcBkZDY22n/rdChWXlFpUDbyiuKRUU79bYdRGRqPG1hQDwBYEgAjXqHGm0fbLf92pJ79ZalE18IrHv16qH7fvMmrD9LMHwF4EgAjXum174zZufu/f+mhtjgXVwAs+/CVHt7z/mXE7bdqYf/YA2IcAEOE6duqiQCBg1EZhcbEGTJ+rf361hNsBEay4pFRTvlqiATPeUlFxiVFbUVFR6ti5i0WVAbCD7csBw1mpqbXVKquNli9bYtROYXGxrpv/iZ7+drku7dBSfZo2VONayUqMM3vNEM7aV1ikdXty9a81G/TsdyuMh/3LZLVpq1q1UixpC4A9CAA+MGDgEOMAUGbFrzt103vmw8PhYrqevdO8Wv9ZA4c4XQKACnALwAfO7D9QNWrUcLoM+ER8QoL69DvL6TIAVIAA4APJNWvqnGHnO10GfGL4eaOYAwDwAAKAT4y+6FLFx8c7XQYiXEJCoi4YfbHTZQAIAQHAJ+rUqavLr7zG6TIQ4a68+nqlptZ2ugwAISAA+MjIC8aqRctWTpeBCNUqq41GnH+B02UACBEBwEdiYmL0wMRHlZiY5HQpiDBJScl6YOIkRUdHO10KgBARAHwmPaOh7r5/Il/UsEx0dLTufeB/1SAt3elSAFRCKAHAaFHwoqIik81hg16nnKY77rzHeIZAIBAI6G8T7lP3nqc4XQr+oLDQ6Ktbkg5aUQfcK5QAYLQgfC/+kK8AAAvKSURBVMH+/SabwyaDzz5XE+55UDExzAWFqomKitYdd96jgYOHOl0KjmL//nzTJvKsqAPuFUoAyDXZwd69e0w2h43OGnS2/jHpMZ4JQKUlJSVr0pQndfY5w50uBceQm2v01S0RACKe7SMAOTkbTDaHzXr26q2Zr76plq2ynC4FHtEqq41mvvomw/4ul7N+nWkTBIAIF0oA2Gqyg/Xrsk02RxikpWfo+emzdNMt4xSfkOB0OXCphIRE3XzrHXruxVd44M8DLPjuNfruh/uFEgB+MtnBsiU/mGyOMImOjtao0Rdpztv/0uixzBqI/4hPSNCYiy/Tm/P+pZEXjOENEo9YutT4u9foux/uF8pj4NdKqvKSZKmptfX+gs954txjcnNz9f678zR/3ltavmyJSktLnS4JYRQIBNS6bTudNXCI+vQ7i7n9PaakpER9e3fTnj27TZq5RtLjFpUEFwqlV+4r6X2TnUybMUtZrduaNAEH7d69S99+s0jLli7Wuuy12rQxR3v27Nb+/Hxe8/S42NhYxSckqFatFKWlZygzs4lat2mnjp27qFatFKfLQxUtXfyDLhlrvABYH0kfWlAOXCqUd8C+l1Sq0MLCUc2f9xYBwMNSUlLVp29/9enb3+lSAITgnXlzTJsokcT92wgXyjMAOyQtNdnJe+/OU0FBgUkTAIAQ7M/P1wfvzzdtZomknRaUAxcLdSrgBSY7yd27V2/MfsWkCQBACF579SUr5gD4yIpa4G5hCQCSNH3as9rPrIAAYJv8/H2aOf15K5oy/s6H+4UaAD6UZDSl344d2/V/Tz1m0gQAoBxPPT5Zu3YZj9zvFgHAF0INAAckzTbd2cszX9DKH1eYNgMA+IMVy5dq1iszrWhqllgIyBcqsxzwdNOdHTp0SONuvUH79jHDJABYJS8vV+NuvVHFxcVWNGf8XQ9vqEwA+EzSGtMdbszZoDvH32rVBxUAfK24uFh/HXeLNm/aaEVzP0v6woqG4H6VndPzoKRBpjtdvz5bv27bql6nnsYMgQBQRaWlpbr77+P10QfvWdXkbQrO/QIfqGwAWCpprKSapjv+adVKbd60UT179VZUVGUGIgAAJSXFuv+eOzV3zutWNZkj6TJJDM/6RGUDQImCswKeacXOV/+8Sj+tWqkevU5RXFw1K5oEgIiXl5er22653ooJf450h6SvrGwQ7laV8fcakpZJamJVEWnpGXpg4qOsSQ8AFVixfKnG3XqjVff8y/wsqY14+t9XqrKu5yEFl4m80Koi8nJzNXfO69q7Z4/atu+guLg4q5oGgIhQUFCgp56YrHsm3KHcvXutbn60pFVWNwp3M3kC7w1JQ60qpExq7ToaPfYSnTt8JGvSA/C9/fn5mj3rZc148TkrJvk5mlmSzrOjYbibSQDIkLRYUqpFtfxOcnKy+vUfqAEDhyirdVveFgDgG6WlpVq2ZLHemTdHH7w/34q5/Y9lh6S2kjbbtQO4l2mvOljSHAvaKVdKSqo6duqi1m3aqXHm8UpLz1CtWimKT0hQbGysnbsGANsUFRVpf36+9uzZrU0bc5Sd/YuWLV2sb79epD17dtu9+1JJAyVZ+iQhvMOKjvthSTdZ0A4AIHweknS700XAOVYEgFgFFwvqZUFbAAD7LZTUT1KR04XAOVYN3SdL+kRSO4vaAwDYY5mCF2xGK7zC+6y8d99A0r8lZVrYJgDAOtmSukva4nQhcJ6Vc/BultRXwQ8YAMBdsiX1EZ0/DrN6Ev41krop+HogAMAdlkvqKekXpwuBe9ixCs9WSb0VfCYAAOCshZJ6SNrkdCFwl6pMBRyKA5JmKPieaS/ZPE8AAOC/lEr6p6QxkvY7XAtcKBwd80BJ0yTVDsO+AADSTgWXbn/H6ULgXnbcAvijeQpONTk7DPsCAL+bpeDKfnT+KFe4h+Z7S3pcUosw7xcAIt0aSddKes/pQuAN4RgBONJCSe0V/JDmhHnfABCJNki6RlKW6PxRCU4+nBen4MMpt0o6wcE6AMCLfpY0UdJ0SYUO1wIPcsvT+ScpGAZGSarjcC0A4FZ7Jc2V9KKkjxR80h+oErcEgDLVJZ0m6fTD/9tG4b9NAQBuUSJpiaQFCnb4CyQddLQiRAy3BYA/qq3gMwPNJZ0oqZmkepKSJNWSlKjgrQQA8KJCSfsUXJgnT9I2ST9JWqXgEP8PCr7SB1jO7QEA3mc0RDlr7kdW1eFJIwafbtoEv+MAjorhdQAAfIgAAACADxEAAADwIQIAAAA+RAAAAMCHCAAAAPgQAQAAAB8iAAAA4EMEAAAAfIgAAACADxEAAADwIQIAAAA+RAAAAMCHCAAAAPgQAQAAAB+KcboAWCpTUldJnSV1kFRXUsrhP9UcrAvOKXVovwcl7Za0S9J2Sd9L+lrSIknZDtUE4AgEAO9rIGn44T/dHa4FKFNNUv3DfyTplCP+24+SXpM0TdK6sFYF4DfcAvCuRpKel7RB0qOi84d3tJT0d0lrJD0rqaGz5QD+RADwnkRJkyT9LOkiSdGOVgNUXbSkSxT8LD8iKcHZcgB/IQB4S0dJ30m6QVKcw7UAVqkm6UYFP9sdHK4F8A0CgHdcK+kLSc2cLgSwSXNJX0q6yulCAD8gAHjDbZKmSIp1uhDAZnGSnpD0oNOFAJGOAOB+D4ovQ/jPbZLucboIIJIRANztCgW/CAE/+qukS50uAohUBAD36ippstNFAA57TFInp4sAIhEBwJ2SJc0Ws/cB1RWcNCjR6UKASEMAcKc7JaU5XQTgEo0kjXe6CCDSEADc5wRJ1zhdBOAyN4tXYAFLEQDc5xEx9A/8UZykh5wuAogkBAB36SDpLKeLAFxqiIKzYQKwAAHAXe6SFHC6CMClApLucLoIIFKwHLB7dJSFV/8tWrVR7zPOVMustkqtXUcxMc78U48YfLoj+0XQrLkfObLfoqIi7dq5QytXLNWCD+Zr1Y/LrWp6iKT2kn6wqkHArwgA7vF3WXD1n5iUpCuuuVldTu5pQUlA1cTGxqpe/eNUr/5xOvX0flr0xad6+vFHtC8vz7TpgIK/K2ebVwn4G7cA3MGSq/+kpGTd9cCjdP5wnS7deumu+ycpMSnJiuYGKzgKAMAAAcAdLLn6v/rG25TRsLF5NYANMhpl6pobb7eiqbJRAAAGCADOs+Tqv0PHrurQsasF5QD26dCxq07qfLIVTTEKABgiADjPkqv/4SPHWFAKYL8Roy5SIGD8kQ8oOGMmgCoiADjLkvf+O3bupiYnNLegHMB+mcc3VcfO3axoinkBAAMEAGdZ8t7/ueddaEEpQPgMGznGqlEA5gUAqogA4Byu/uFbmcc31UmdLHkWgFEAoIoIAM6ZIK7+4WPDR41lFABwEAHAGR0kDTRthKt/eBmjAICzCADOmCCu/gFGAQAHEQDCj6t/4DBGAQDnEADCb4K4+gd+Y+EowF8tKAfwDQJAeHH1D/yBxaMAnaxoCPADAkB4TRBX/8B/sWgUQOJZACBklvzGISQdJH0rzjlgt86SvnG6CMDtGAEInwmi8wfCgVEAIAR0SOHRXtJ34nwD4cIoAFABRgDCY4Lo/IFwYhQAqACdkv24+gecwSgAUA5GAOw3QXT+gBMYBQDKQcdkvxJxngEnlIqLHOCY6JjsV+p0AYCP8R0HHAPpGAAAHyIAAADgQwQAAAB8iAAAAIAPEQAAAPAhAgAAAD5EAAAAwIcIAAAA+FCM0wWgfE88P8vpEgDH/OXiEU6XAEQsRgAAAPAhAgAAAD5EAAAAwIcIAAAA+BABAAAAHyIAAADgQwQAAAB8iAAAAIAPEQAAAPAhAgAAAD5EAAAAwIcIAAAA+BABAAAAHyIAAADgQwQAAAB8KOB0AT5Q6nQBgI/xHQccAyMAAAD4EAEAAAAfIgAAAOBDBAAAAHyIAAAAgA8RAAAA8CECAAAAPkQAAADAhwgAAAD4EAEAAAAfIgAAAOBDBAAAAHyIAAAAgA8RAAAA8CECAAAAAAAAAAAAAAAAAAAAAAAAAAAAAAAAAAAADvp/L+5fkyoZ9oYAAAAASUVORK5CYII=;" parent="1" vertex="1">
          <mxGeometry x="427" y="73" width="381" height="381" as="geometry" />
        </mxCell>
        <mxCell id="M6gj8kt36gLy5a3jpEOS-13" value="&lt;h2&gt;&lt;font color=&quot;#ffffff&quot;&gt;&lt;span style=&quot;font-size: 80px;&quot;&gt;抓手&lt;/span&gt;&lt;/font&gt;&lt;/h2&gt;" style="text;html=1;strokeColor=none;fillColor=none;align=center;verticalAlign=middle;whiteSpace=wrap;rounded=0;" parent="1" vertex="1">
          <mxGeometry x="524" y="507" width="162" height="30" as="geometry" />
        </mxCell>
        <mxCell id="M6gj8kt36gLy5a3jpEOS-14" value="&lt;h2&gt;&lt;font color=&quot;#ffffff&quot;&gt;&lt;span style=&quot;font-size: 80px;&quot;&gt;太美&lt;/span&gt;&lt;/font&gt;&lt;/h2&gt;" style="text;html=1;strokeColor=none;fillColor=none;align=center;verticalAlign=middle;whiteSpace=wrap;rounded=0;" parent="1" vertex="1">
          <mxGeometry x="125" y="514" width="162" height="30" as="geometry" />
        </mxCell>
        <mxCell id="M6gj8kt36gLy5a3jpEOS-15" value="&lt;h2&gt;&lt;font color=&quot;#ffffff&quot;&gt;&lt;span style=&quot;font-size: 80px;&quot;&gt;对齐&lt;/span&gt;&lt;/font&gt;&lt;/h2&gt;" style="text;html=1;strokeColor=none;fillColor=none;align=center;verticalAlign=middle;whiteSpace=wrap;rounded=0;" parent="1" vertex="1">
          <mxGeometry x="1319" y="507" width="162" height="30" as="geometry" />
        </mxCell>
        <mxCell id="M6gj8kt36gLy5a3jpEOS-16" value="" style="rounded=0;whiteSpace=wrap;html=1;fillColor=#333333;" parent="1" vertex="1">
          <mxGeometry x="-1" y="628" width="1603" height="272" as="geometry" />
        </mxCell>
        <mxCell id="M6gj8kt36gLy5a3jpEOS-17" value="&lt;h2 style=&quot;font-size: 91px;&quot;&gt;&lt;font style=&quot;font-size: 91px;&quot; color=&quot;#ffffff&quot;&gt;当用&lt;/font&gt;&lt;font color=&quot;#ff9796&quot; style=&quot;font-size: 91px;&quot;&gt;互联网黑话&lt;/font&gt;&lt;font style=&quot;font-size: 91px;&quot; color=&quot;#ffffff&quot;&gt;给&lt;/font&gt;&lt;font color=&quot;#66c6c4&quot; style=&quot;font-size: 91px;&quot;&gt;AI程序员&lt;/font&gt;&lt;font style=&quot;font-size: 91px;&quot; color=&quot;#ffffff&quot;&gt;提需求.....&lt;/font&gt;&lt;/h2&gt;" style="text;html=1;strokeColor=none;fillColor=none;align=center;verticalAlign=middle;whiteSpace=wrap;rounded=0;" parent="1" vertex="1">
          <mxGeometry x="-32" y="684" width="1675" height="168" as="geometry" />
        </mxCell>
        <mxCell id="F2KbXpKkZdYXq5yLTn8Y-1" value="" style="shape=image;verticalLabelPosition=bottom;labelBackgroundColor=default;verticalAlign=top;aspect=fixed;imageAspect=0;image=data:image/png,iVBORw0KGgoAAAANSUhEUgAAAgAAAAIACAYAAAD0eNT6AAAABHNCSVQICAgIfAhkiAAAAAlwSFlzAAAN1wAADdcBQiibeAAAABl0RVh0U29mdHdhcmUAd3d3Lmlua3NjYXBlLm9yZ5vuPBoAACAASURBVHic7N13eFRV+sDx75n0HtJDJ0DoRLoIKIiAUgSkKYoNu666tl13V13Lrm0t+LN3rIhYUGyoiALSO9J7S0INaaSf3x8TFJAyc++duVPez/PkCYS57zkqznnnlPcorTVCCN+mlEoE6gIpQDwQV/s9/jS/jwEcbnwBlNZ+lRz1veQkPysB9gL5tV97gHytdbkn/j0IIayjJAEQwj5KqQScA3tm7ffjf33k91F29dGgQo5LCmq/5wFbgM3ANq11hW09FCLISQIghIcppWKB7JN8JdjYNbvVADuBTTgTgs1H/1prvd/GvgkR8CQBEMIiSqkmQFv+PMjXtbNffqwQ2AisqP1aDiyXxEAIa0gCIISblFIKaAZ0BDrVfu8I1LGzX0FkF0clBLVf67XW1bb2Sgg/IwmAEKeglHLg/BR/ZKDvBHTAucFO+I4y4DdgCTAHmK213mRvl4TwbZIACHEUpVQE0A04p/arGxBra6eEUXnA7KO+lsksgRB/kARABDWlVBTQnWMH/EhbOyU8pRiYR+0MATBPa11sb5eEsI8kACKo1O7IP4s/BvwuQLitnRJ2qQbmA98A3wKLtbwhiiAiCYAIeEqpZsBgYAjQCwizt0fCR+0FvsOZDEzXWu+1uT9CeJQkACLgKKVCgB78Mei3tLdHwg/VAItxJgPfAAtk/4AINJIAiIBQWyr3fJwD/gXIkTxhrYM4k4EpwDda68M290cI0yQBEH5LKZUBjAaGAz2BUHt7JIJEMTANmIwzGSizuT9CGCIJgPArtbXzLwLGAn2AEHt7JIJcMfAlzmTgW0kGhD+RBED4vNqjeoOBS4CBQIS9PRLihIpwJgMfI8mA8AOSAAifpJQKBc7DOegPx3m9bdAKDXWQkRpL3fRY0pJjiI+NID4ugvjYCOJiw52/P+pnzl+HExcTQViYA4VCKXA4FEqp2u84f63++LPqak3J4QpKD1dSUlrp/H649nvpUT8vq6S4pIK9B0rZs6+E/NqvPftKKCiUcQ/nPQaTgTe01vPs7owQJyIJgPApSql2wHXAGCDV5u54RUpSNA3rJlA3PZa66XG1X0f/Oo7UpGgcDmV3V11SUVn9p6Qgf18J23cfYvP2g2zeXsDWHQVUVAbNpvrVwJvAu1rrPXZ3RogjJAEQtlNKRQKjgBtwFukJONFRYTRvnER2VjItspLJzkoiu0ky2VnJ1EkIvsKDNTWanXmFbN5eUJsUHGTTtoO/Jwj7DpTa3UVPqMS5efANnEsEQZMBCd8kCYCwjVIqG7geuBJIsrc31oiLCeeMNhl0aJNBy6Ypvw/09TPjUf7xAd4n7D94mBVr81m+Op/la5zfV2/YS3lFwIyZu4GJwFta6w12d0YEJ0kAhFcppcJwrulfD5xrc3dMqZMQSYc2GXRql0nHtpl0bJtB8ybJMtB7SFVVDWs37fs9IVixdg/LV+eTt9fvy/n/AjwPfCqzAsKbJAEQXqGUaoxzbf9qIN3WzhgQHxtB9071awf7DDq2zaRJg0S7uyWA3flFzF64g9kLtzN74Q5WrM2nutov39e2A88Br2utD9ndGRH4JAEQHqWU6gzcDYzAj87sJ8ZH0rNLA3p3b8w53RrRoU0GISHy0d4fFJVUMG/Jzt+TgvnLdlFSWml3t9xRDLwFTNBab7K7MyJwSQIgPEIpdQFwD9Db5q64JCkxil5dG3JOt0b07t6InFbpfrPrXpxaVVUNy1bnM3vhdmbO28aMOVsoKqmwu1uuqMFZV+AZrfXPdndGBB5JAIRlatf3xwJ3AW1t7s4pRYSH0Lt7Ywb2aUbvMxvRrmW6rN0HicqqGn5dtINvf97Edz9vYtnqPPzgbXAJ8CwwSWvtV9MZwndJAiBMU0rF41zfvx2oZ3N3TiotOYZBfZszuG9z+vfKIjYm3O4uCR+Qv6+E6b9s4tuZm5g+a7OvH0HcDTwJvCIXEgmzJAEQhiml6gK34dzRn2Bzd06ofat0BvdtzpDzsumaU1em9cUpaQ2LV+by7c8b+eL79SxcvtvuLp1MHvAE8LIkAsIoSQCE25RSacDfgRsBn6piExrq4NyzGnNhvxYMOa85Dev6ZF4i/MSWHQV8/NVqJk9bzeKVuXZ350QkERCGSQIgXKaUSsS5o/82IMbm7vxOKTirUwPGDm3LqEGtSU2OtrtLIgBt3n6QydNW8/FXa1iyyueSgXz+SAR8eg1D+A5JAMRpKaVicQ76dwE+c/g9p1U6Y4e15eIL28gnfeFVG7ce4OOv1jB52mqWrc6zuztHy8e5R+AlSQTE6UgCIE6qtkb/jcC9+MjFPM0aJ3HJhW24ZGhbWjVLsbs7QrB+837enrKciVNWsDu/yO7uHLEHeAx4QWvtF2cehfdJAiD+pPY439XAffjArv6EuAjGXdSey0e0p0tOXbu7I8QJVVdrvpm5kTc+Wsq0HzdQVVVjd5cANgN/01pPsbsjwvdIAiCOoZS6GPgPkGV3Xzq3z+SGyzpxyYVtiY4Ks7s7Qrgsf18J73yygjcmLWXd5v12dwdgDnCn1nq+3R0RvkMSAAGAUqoDzjrkPe3sR0x0GJdc2JYbLutEp3aZdnZFCEvMXriDNz5aysdfrba7JLEGJgH3aq232dkR4RskAQhytUf6/oNzyt9hVz/atUzj+ks7Me6idsTHRtjVDSE8pqikgnc/WcGEtxaw3t5ZgTJgAvBfrXWhnR0R9pIEIEjVrvP/Bbgfm4r4hIU6GDOkDTdc1okenRvY0QUhvE5r+GrGBp55fR4zft1qZ1f2Ag8Ar2mtq+zsiLCHJABBqPainmeAFna0HxcTznVjO3L7+G7Uz4y3owtC+ITla/J55vX5fDh1FRWV1XZ1Yw1ws9b6J7s6IOwhCUAQUUpl4xz4B9rRfkZqLLdd3ZUbLutEYrxPFRAUwlZ5e4t58Z1FvPTeYjvvIngHuEtrvdeuDgjvkgQgCCilooF/47ysx+vb6VtkJXPX9d0Zd1F7IsJDvN28EH6jrLyK9z5bydOvzWPNxn12dOEAzmu839QyOAQ8SQACnFKqL/AqNhzrO6tTfe6+/iyG9m8hV+0K4YaaGs3kaat5+LlZrN5gywfyWcANWuvVdjQuvEMSgACllKoD/A/n7n6v6tcriwduP1s29glhks2JQCXO+wUe0VqXebtx4XmSAAQgpdQI4Hkgw5vt9uzSgEfu6sM5ZzbyZrNCBDybE4FNwE1a6+neblh4liQAAUQplQm8AAz3Zrud22fyyF19GHBOU282K0TQsTkR+BC4XWu9x9sNC8+QBCBAKKWuwXkLmNdu62vbIo2H7+zNsAG2nCYUImgdSQQemvCLtzcL7gGu01pP9WajwjMkAfBzSqmmwGtAH2+1mZ2VzL9vP5sxQ9rgcMjuPiHsUl2teX3SUu5/aiZ79pd4s+m3gNu01j5z/aFwnyQAfkwpdS3wLBDtjfbqZcTx0J29uWJEDiEhMvAL4SuKSip49IXZPPP6fMrKvVbUbytwhdb6F281KKwlCYAfUkol4fzUf5E32osID+HO67rzj5t7EhMtt/IJ4at27C7k3sdn8MHUlXjprb0GeBr4l9a63CstCstIAuBnlFJ9cFbsqu+N9oYPaMlT9/WjSQOvbS0QQpi0aEUudz4ynV/mb/dWk6uAcVrrZd5qUJgnCYCfqL285yGcVbo8fmtfm+xUJvx7AH17NPF0U0IID/nsu7X87dEf2bDlgDeaq8BZcfQJrbVtFxsI10kC4AeUUs2AD4Aunm6rTkIkD97Rmxsv60RoqG23AwshLFJZVcNzby3ggadnUlJa6Y0mfwUu1Vpv9UZjwjhJAHycUuoq4Dkg1pPthIQorr2kI4/c1YfkOlGebEoIYYMduwu55f5v+OL79d5o7iDODYJfeqMxYYwkAD5KKZUIvAKM9nRbXXLq8trjg8lple7ppoQQNvv8u3X85YFv2Zlb6OmmNM7aJP/UWnvtaIJwnSQAPkgp1QH4FGjsyXaio8J4+M7e3HZ1NznWJ0QQKS6p4L6nZvJ/by+gutrjY8BsYIzWerenGxLukQTAxyilLgdeBjw6D9+vVxavPDpIdvcLEcSW/pbHdX+fxqIVuZ5uai8wVmv9g6cbEq6TBMBH1O7yfxa4yZPtJCVG8fR9/bhiZI4nmxFC+ImaGs0L7yziX0/+RGGxR4/y1+A8yfSw1rrGkw0J10gC4AOUUnWBKUB3T7YzZkgbnntwAGnJMZ5sRgjhh3bnF3Ht36bx9U8bPd3U9zhPCXj9NiNxLEkAbKaU6gV8DHhsB179zHhefOQChpyX7akmhBAB4tUPlnDnI99TXFLhyWZ249wXMNuTjYhTkwTARkqp24D/AaGeamP8mA48fX8/4mMjPNWEECLAbNp2kCvumMqcRTs82UwlcJPW+nVPNiJOThIAGyilonHW8h/rqTaSEqN49bFBjLiglaeaEEIEsJoazZOvzOX+p2ZSUenRwn5PA3fLvgDvkwTAy5RSjYEvgHaeaqP3mY1499lh1M+M91QTQoggsWJNPuP+OpUVa/I92cw0nKcE5HphL5IEwIuUUl2AL/HQen9YqIOH7uzNPTechcMh5/qFENaoqKzm/qdm8uQrc6mp8diYsRIYorXe5qkGxLEkAfASpdRQnPX8oz0Rv1njJD54bjhdcup6IrwQQjBn0Q7G3f45W3YUeKqJPcAwrfVcTzUg/iAJgBcopW4FnsFDt/hdOSqH/3vwfGJjwj0RXgghfldQWMaVd37B1OnrPNVEOXCN1vo9TzUgnCQB8CCllAPnBpfbPBE/MT6SVx4dxOjBrT0RXgghTup/r87l3sdnUFXlsb17/wHu0zJIeYwkAB5Su9P/A2CoJ+J3aJPBp6+OonF9KeUrhLDHnEU7GHPzJ+zK89jevU+AS7TWXrnHONhIAuABSql0nJv9ungi/uUj2vPyfwcRFemx8gFCCOGSvftLufS2z/h+1mZPNfGM1voOTwUPZpIAWEwp1Qr4Gg/c5BcW6uCZBwZw8+WdrQ4thBCG1dRoHprwCw8/N8tTpwRGaK0/9UTgYCYJgIVqy/p+AVg+L183PY6PXxrJWZ3qWx1aCCEs8f2szVx622fs3V9qdehNWutmVgcNdpIAWEQp1R/4DA8c8+vVtSGTXxxBRmqs1aGFEMJSu/KKGHXjFOYu2Wl16MZSI8BaHjmWFmxqz/h/gQcG/1uv6sqMD8fJ4C+E8Av1MuL46aPLuXSY5cVO+1gdMNhJAmCSUuoSnFf5WnrbTnRUGO9NGMaEfw8gNFT+Mwkh/EdEeAjvTRjGI3f1QVlXlFTeCC0mSwAmKKXGA69i8V/MzLRYpr11MR3bZloZVgghvG7K12u44o6plB42fZKvj9Z6pgVdErUkATCotrrfs4ClRffbtkjj67cvoUFduchHCBEYFq/M5cLxH7E733C9AA000FrvsrBbQU+mVAxQSt0LTMDiwb9fryzmfHqlDP5CiIDSqV0mC74Yb2ZW8z0Z/K0nMwBuUkr9B/iH1XGvHn0Grzw6SNb7hRABq/RwJeNu/5xPv13rzmPFQLbWOtdD3QpaMtq4SDlNwOLBXyl45K4+vPHkEBn8hRABLToqjCkvj+Ift/R06fUx0WE8c3//+Xrbffke7lpQkhkAFymlngIsLUcZHhbCW09dyNihba0MK4QQPm/Wgu3c/uB0lqw68Qf7FlnJfPLKKNpkpwJ8CFxOw4eqvNnHQCcJgAtq1/z/a2XMpMQoPnt1NGd3a2hlWCGE8Bs1NZrJ01azYPkutuwoYP/Bw3Q7ox7n9mhM7zMbH3/fyVRgDA0fKrepuwFHEoDTUEpdB7xiZczG9RP59t2xtMhKtjKsEEIEuu+BYTR8yPJaw8FIEoBTUEqNAiZh4V6JFlnJ/PDBZdTPlJ3+QghhwGxgEA0fKrS7I/5OEoCTUEr1A6YB4VbFbNcyje/fv4z0lBirQgohRDBaBAyg4UMH7O6IP5ME4ASUUl2BGYBlI3WXnLp8+85YkhKjrAophBDBbAXQR5IA4+Tc2XGUUq2Br7Fw8O/VtSE/fHCZDP5CCGGd9sB3bL9f1lMNkgTgKEqpRsB0wLLdef16ZfHtO2OJj7X0riAhhBDQGfia7ffLuqoBkgDUUkql4hz861kV88J+2Xz55sVER4VZFVIIIcSxegBT2X5/pN0d8TeyBwBQSsUDPwEdrYo5Zkgb3nt2mFT3E0II75gGXETDh36/dlAplQU0BRoBFcBPWusdNvXP5wR9AqCUigS+AXpbFfOKkTm8+eQQHA5L7woSQghxah8Dl6hGDzcA/geMOMFrNgB3aq2/9GrPfFBQfzxVSoXgPOff26qYwwe05I0nZPAXQggbjPrP87N/BtZw4sEfoDkwVSn1WO0YELSCdgZAKaWAN4ErrYp57lmN+XriWCLCg/rvlBBC2GLZ6jy6D3uLsnKXrwz4QGt9qSf75MuCeQbgSSwc/Du3z+Tz18fI4C+EEDY4XFbF6Js+cWfwBxirlLrPU33ydUGZANRe7nOnVfFaNk3hm4ljiYuxrGigEEIIN8z4dQsbthiqCfSgUmq01f3xB0GXACilrsDCm/0aZMYz/b1LSUmKtiqkEEIIN30/a7PRRxXwtlKqi4Xd8QtBlQAopToCL1sVL6VOFN9/cBkN6kohKiGEsNOvi3eaeTwK+EIp1cCi7viFoEkAlFLJwKeAJcUi4mLC+PYdudJXCCF8QXId06XWM3AmAUFTVTAoEgCllAP4AGcxCNMiwkOY+soIOrWva0U4IYQQJmU1rGNFmDOA92vHjIAXFP+QwMNAfysChTgUk54aQJ9eza0IJ4QQwgJndrCsivtQ4DGrgvmygE8AlFJDgXutiQWvP3g2wwafYUU4IYQQFrl0WDs6tMmwKtzdSqmrrQrmqwI6AVBKZQPv4NzladqTd3TjyjGdwCFn/YUQwpc4HIoJ/x5gZciXlVI9rAzoawI2AajdyPEpYMkW/XvH53DnVR0hImj2hwghhF/p1bUh/7ilp1XhwoCPam+KDUgBmwDgLPPbxopA141syX9v7QKRcVaEE0II4SGP3NWHi85vaVW4egTwpsCA/IdSSt0BWFLZaVT/Jrz0zx4QGgZhEVaEFEII4SFKwbvPDqNj20yrQvYD7rcqmC8JuMuAlFLnAD8AoWZjdW2byqy3hxAe5oDYJAiVBEAIIfzBrrwiul74Brvzi6wIVwNcoLWebkUwXxFQMwBKqXrAZCwY/FPrRPLJ0+c5B//QcBn8hRDCj9TLiGPq62OIijQ9HIBzrHxfKVXfimC+ImASAKVUODAFSDMbK8ShmPTEudRPr93wJ2v/Qgjhdzq3z+SdZ4ahLDkHRgrOTYGWZBS+IGCWAJRSLwE3WBHrib925e4r2zt/ExrhnP4PYIeKysndU0TunuLfv/J+/3URpYcrUUqhFCf8HhUZSmZaHHXTY//0PSM1lvAwOTYphLDPI/83i/v+N9OqcE9rrS27TdZOAZEAKKWuBN6yItaI85ow5am+f/wgLgVCwqwIbbuqqhp+27CXxStzWbRiN4tX5rJq3V5KD1d6rE2loGHdBHJap5PTKp32rZzfmzaqg8NhTVouhBCnc+mtn/HB1FVWhbtIa/2ZVcHs4vcJgFKqA/ArFlzy0yorkfnvDSUupnbAD4uEGEvqS3ud1rBq3R4WrdjNopW5LF6Zy/LV+ZSVV9ndNQBiosNo1yKNTu0yObdHE3qf2YikRNOXeQghxAmVV1TTe/RE5i3dZUW4Q0AnrfUmK4LZxa8TAKVUHWAJ0NhsrLiYMBa8P5SWTRKP+qF/ffqvqKzmp1+38vn0dXzx/Xqrdr96hcOh6NAmg749mtC3RxN6dmlAdJT//LsXQvi+nbmFdBj4GvsOlFoRbgHQQ2vtG5+qDPD3BGAicLkVsaY81ZcR5zX54wd+8um/sLicr2ds5PPp6/jmp40UFpfb3SVLhIeF0LdHE64Y2Z6h/VsQGREw+26EEDaa/stmLrjiA2pqLBn77tdaP2xFIDv4bQKglBoIfGVFrHuuas/jt3c99odxqRDim4PO3v2lTPl6DZ9PX8tPv26lsqrG7i55VGJ8JBdf2IYrRuZYeeOXECJIPfD0zzw04RcrQlUCZ2qtl1gRzNv8MgFQSiUAv+Es02jKuV3rMv2VCwg5ekNaeBREJ578IZssX5PPhDcX8MHnKymvqLa7O7ZokZXMlaNyGHdRe+plyPFMIYT7amo0A8a9zw+zt1gRbjXO/QBlVgTzJn9NAF4HxpuN0yAjhsWThpNa57j9g/Gp4PCNT/81NZovf1jPhDcX8NPcrXZ3x2c4HIrzejbhypE5DD+/pSwRCCHcsmd/CR0ueM2qvVJ+eTTQ7xIApVR/4DuzcSLCQ5j19mC6tDnuoqfwaIhOMBvetKKSCt78aBn/9/YCNm07aHd3fFpCXARjhrThr9d0o2XTFLu7I4TwE7MX7qDPxe9QZX4ZVQN9tNY/W9Atr/GrBEApFQesAhqajfXq/T25dsTxN0ap2k//9hWu2bz9IM+9tYC3Ji8PmA193uJwKC4d1o4Hbj+bpo18fwOnEMJ+T74yl3v++4MVobYC7bXWfnP8yt8SgJeB683GuXpYNm88ePaf/yAiGqLs+/T/4juLuP3B7wJ+U5+nhYY6uHJkDvfd1ouGde2fzRFC+LZh105m6vR1VoR6U2ttennaW/wmAVBKnYvzlj9T5eM6tU5h9ttDiIw47lO+Us6d/zZ8+q+squGae77knU9WeL3tQBYeFsK1l3Tgn3/pRWZarN3dEUL4qILCMjoOfI0tOwqsCDdUa/2FFYE8zS8SAKVUDLASaHK6155KfEwYKz4ZQaPMEwwGETEQFW8mvGEWTkGJE4iKDOXGcZ35+409SE2Otrs7QggfNGfRDs4eNdGK+gD5QFut9T4LuuVR/nIb4GOYHPwBnrrrzBMP/uBMAGywZ38Jjzw3y5a2g8Xhsiqefm0eTXo+xxMv/2rFhh8hRIDp0bkB99xwlhWh0oFnrAjkaT6fACilzgZuNhunX/d6XHNRixP/YVikbRv/XnxnkWz285KS0kr+9uiPdB78OguX77a7O0IIH/PgHeeQ0yrdilCX1S5b+zSfXgJQSkUDy4FmZuLERoex6tOTTP2D87rf0AgzTRh22W2f8/7nK21p+2jxsRFkpsWSkea8wjfzqO8pSdE4TnKhdmVVNXv2l5C/t4S8vcXk7yshf18JeXuK2bT9oM9+2nY4FH+5sguP3NWH2Jhwu7sjhPARK9fuocuQ160otrYe56kAn/2E5+vVUx7B5OAP8MRfu5588HeE2jb4A2zbZcmmE7ekJcfQqV3m71+d22dSP9P6/Q+Hy6pYvDKXeUt3Mm/JLuYv28XO3ELL2zGipkYz4c0FfPbtOl545AIG921ud5eEED6gXcs0Hrm7D3f/x/S+rGzgXuDfpjvlIT47A6CUOguYhcllit6dM5nx+iBO8gHWufHPpvV/gD5j3mHmvG0ebSM7K5mh/bLp0bkBndp5ZrB31a68ot8TgnlLd7J4ZS6Hy+y/TGv8mA489+AAuYFQBKzyimpWrnVeEb70tzwOFTk/mIaFOhg2oAXD+rckJMTUIauAUVOj6XPxO/wyf7vZUOU4ZwHWW9Aty/lkAqCUigSWASdZtHdNTFQoK6aMIKv+SWrGKwXxaaDs2wrx0IRfeOBpa4tHKQWd29dlWP8WDD+/Ja2a+W51vKqqGlaszWf2wh1M+uI35i7ZaVtfWjZNYfKLI2jXMs22PghhhaMH+8Urc1m8MpdV6/acssZIg7rxPHxnb64YmePFnvqurTsLaN//FYpKKsyGmqG17mtFn6zmqwnAE8DdZuNM+Ft3bh3b5uQv8IFLf+Ys2kHPEW+bjhMa6qBP98YM69+Cof1b+O1FORu2HGDiJ8t595OVbN99yOvtpyRFs+CL8TRp4HuXQQlxIkYG+1N55v7+3D6+m8W99E9vTl7G+Lu/tCLUOK31e1YEspLPJQBKqa7Ar4Cpbfk9O2Twy1uDTz71DxCXAiH2TvnW1GgGXfUh387cZOj5pMQorr2kAzdf3oUGde2b2rea1vDT3K1MnLKcT75ZQ0lppdfabpOdytzPryZONgcKH2P1YH8ybzw5hKtHn2FpTH9lUZXAPUBLrbVPXeziUwmAUkoB84EuZuJERYSyfMpwmjc8RRnYkDBnAuADDh4qo9Mg96pQtW6eyq1XdWXcRe0Cft26uKSCT75Zw8QpK5g5byve+Cv7j1t68p+7+3i+ISFOwluD/Yk0bVSH9TNvxuGQPQH5+0po2edFCgpN3/b7mtb6Oiv6ZBVfSwAuBj40G+d/d3bjzsvbnfpF0QnOm/98xOoNe7nyzi9OeT5dKbigdzNuH9+Nfr2yvNg737Fx6wEefm4W73++kupqz/3dbdk0hTUzbvRYfCGOZudgfzJfvX0JA/uYPoQVEF5+bzE3/vNrs2E00EtrPceCLlnCZxIApVQ4sBaTFf/ObJ/GnIlDTp25Kkft5j/fym61hg+mruSZ1+ezfvN+ikoqCAlRdM2pR/+zsxg7tC3ZWcl2d9MnbNhygIcm/MKHX6zyWCKwZsaNcr2wsJwvDvYncvPlnXn+4Qvs7oZP0Bp6XPSWFZuUlwGdtNY+8R/blxKAO4CnzMSICA9h2eThtGxymg1cNtb9d8f+g4cJDXWQEGdfnQJft27zfh569hcmffmbFTW8jzHn06s4q1N9S2OK4OIvg/2JSAJwrBVr8uk0+HUriptdrbV+y4o+meUThYCUUnWAf5qN8+8bO55+8Afntb9+ILlOlN1d8HktspJ5/7nh/OvWXjw04Rc++vI3y/YIpKfYVx9C+B9/HuxPJCTE5yvFe1X7Vun8dXw3nnxlrtlQjyilJmutS6zolxk+MQOglPofcKeZGJ3bpDDvvaGEnG7TSmg4xMo0eqCatWA71/xtGus37zcVx+FQDnGguQAAIABJREFUHFp1j5QJFicUaIP9iTz7wABuu7qr3d3wKaWHK2nd9yW27TJ9RPlBrfW/LeiSKbYnAEqpxjjX/g3Pc4eHOVg8aThtm9U5/Ytj6jgv/xEBq6y8in8/8zP/e3Wu4f0BY4e25f3nhlvcM+GPgmGwP15UZCi7FvyVOgnyXnm8r2ZsYPBVk8yGKQWaa61tvZXMF5YA/oOJwR/gH9ec4drg7wiRwT8IREaE8tjf+zJ6cGuuvutLlq/Jd+v5kBDFA7ef7aHeCV8WjIP9iVw2vL0M/icx6NzmjLigFZ98s8ZMmGicd91cbU2vjLF1BkAp1RlYABjejl8/PYb1X44iKsKFXCYyFiL9s0KeMKayqobHX5rDI8/Ncul2L6Xg4Tv78M+/9PRC74SdZLA/sbM61ee7dy+V5a9T2JVXRKtzXzRbJrgG54mAZRZ1y212JwA/Ab3NxHj74XO44kIXb3KLT3POAoigs2bjPm7659envHgpLiacic8MZfiAll7smfAGGexd071jfb59dyzxsXLy6HSee2sBt/37O7NhbL0nwLYEQCk1GDBVZDmnRRJLJg13rVpVWKRz/V8EtWk/buC/z89m+Zp8Sg9X4nAo2mSn0u2Metx53Zly7j8AyGDvHqWg/9lNueWKLgzs00yq/7moqqqGdv1fYe2mfWZDDdFaT7OiT+6yJQFQSoUAK4DWZuJMf/kC+nWv59qLY5IgTLJa4VRTo9m++xApdaJlqtOPyWDvvsy0WDq1y6RTu0w6t69L5/aZZKTG2t0tvzTtxw0Mudr0hsC1QDuttdfvRbcrAbgOeMVMjAFn1efbl853tUFISMfEVgMhhI9YvWEvr7y/hFkLtstgfxrHD/ad2mWSmSaDvZX6XvIuM37dajbMTVrrlyzojlu8ngAopWKAjUCG0RgOh2LpR8Npn53k2gNhURAj17sK4c+Wrc7jjoe+56e5W+3uik+Swd4ey1bn0WnQ62Yrke4Cmmqtyy3qlkvsOAZ4NyYGf4ArLmzu+uAPEC5T/0L4syWrcjlv7HscPGT6RraAIIO97zijdQaXj2jP2x8vNxOmHnAt8Lw1vXKNV2cAlFIZOD/9G66xGhURyoZpo6iX5mqI2ul/H7v4Rwjhmk3bDtJlyOtBO/jLYO/7duUVkd37BUoPV5oKg5dnAbw9A/AgJgZ/gDsub+vG4A+EhcvgL4Qfm/Dm/KAZ/GWw90/1MuK467ruPDThF1Nh8PIsgNdmAJRSrXHu/Dd8ED+1TiSbvhpDXEyY6w9FJ0C4f1z+I4Q4VklpJfW6PsOhIq8ujXqFDPaBpaS0kubnPE/unmIzYbw6C+DNGYB7MTH4AzxwQ0f3Bn+Q0r9C+LE5i3YExOAvg33gi4kO4+G7enPNPaaO9Ht1FsArMwBKqXrAFsDN0fsP2Y0S+O2zEYS6c0Wl3PwnhF+z6OIVr5LBPnjV1Ghyzn+VVev2mAnjtVkAb80A/AUTgz/AY7d3cW/wB/n0L4SfM3qbo7fIYC+O5nA4LxIbdeMUM2G8Ngvg8QSg9tz/9WZi9OyQwfBzG7v/oFT+E8KvNa6fYHcXfieDvXDFiAta0a5lGivXmpoF+LtS6jVPzwJ4YwbgasBUFZ7/3dnV/YdCQsHhC7cdCwCtYf2W/eTuKaamRqO1rv0O4eEhnNmhHpGu3Ogogkr7Vul0apfJ4pW5Xm1XBnthlFJw/23+MQvg0T0ASikHsB5oajTGqP5NmPykgcuS5OpfW+3ZX8KsBdtZuHw3C5c767SfajNXdFQY/c/O4tpLOjKwTzMv9lT4urc/Xs5Vd33hsfgy2AuraQ05579idhZgB5DlyTsCPJ0ADAc+Nfp8aIiDtVNH0rRBvPsPx6VAiKltB8KA2Qt38PzEhXz6zRpDNdqVggduP4f7bztbyjeI393wj6945f0lpuPIYC+8ZcrXa8zOAgBcorX22C5YTycAs4EeRp8fMyCLSU+c6/6DjhCITzParHDT4bIq3vtsBS9MXMTyNfmWxLz+0o68/N9BlsQS/q+6WnPd36fx1sfLcPUtSwZ7YSeLZgEWaK27WdWn43ksAVBKdQXmm4kx//2hdG2b6v6DETEQZWDWQLjt53nbGH/Pl2zadtDSuErB4q+upUMbU9dGiACzYNlu7n96JnMX76Sw+I8lJRnshS+yaBagh9b6Vyv6czxPJgAfAaONPt/jjHRmTxxi7OHYZGcNAOExJaWV3Pv4jzw/caHLn8jcNeCcpnz7zljPBBd+b9uuQxwqLCMzLY7UZKn2KXyPRbMAU7TWo6zq09E8kgAopRoBmzBR+e/TZ84zdvRPOZyX/wiPmbVgO1fd9YXln/pPpGzDP4gIN1VAUgghbGPBLEA10ExrvdWaHv3Bzco6LrsVE4N/Vv04hvZuZOxhOfvvUV98v57zxr7nlcEfYHd+kVfaEUIITxhxQSvatjC1Jy0EZzE9y1meACil4oFrzMS4/bK2OBwGt4BL9T+P+eL79Yy6cQoVldVea3NXniQAQgj/pRTccY3pfXzXKKUsP9fuiRmAawDDO/AS48K5ami2wacVhMoMgCfYMfgrwHHYa80JIYRHjB3WjrRkN66x/7N4nEX1LGVpAqCUCsE5/W/YdSNbEhtt8Px+aChyeNx63/28yeuDP0Cj1HjWzNnN208v4cBeyQSEEP4pIjyEG8d1Mhvm1triepaxegZgJGBw8R7CQh385ZI2xlsPkZ3/Vtt/8DBX3DHV64M/QIcmzs2c1eWVfPLaCubP3OX1PgghhBVuuryz2Q3NWcBQi7oDWJ8A3GHm4dEDsqifbmKaRI7+We7m+74hf1+J19ttmpHIgJw/ckmHglVzdzL5tVVe74sQQpiVlhzD2GHtzIa5xYq+HGFZAqCU6gEYuLXnD3eMa2uuE1L611Iff7Waj778zevtpsRFccuAM054/XPRvhImvyJJgBDC/9x+takhEqCPUqqJFX0Ba2cA/mrm4XM6Z9KxVYrxAI4Q55ewxJ79Jdz0r2+82maow0H/9o24b+SZxEWdfDan6EAJn7612os9E0II89q3SqdvD1Pjt8LCzYCW3L+qlEoCLjQTQz79+5bHXpzDvgOllsdNjImiSVocoQ5n7hkZFkJiTCSJMRG0aZBMSlyUS3EO5hXxw+ebOW9YluV9FEIIT/nrNd34cc4WMyGuVEr9W2ttemOWVRewjwQMj8DNGyYw5BzDewedZP3fMiWllbz50TLL4oWHhtK9WSM6N2lAYmw4mcnWxN26ei/7umeQki5lYIUQ/mFgn+ZkZyWzfvN+oyHqAwOAr832xaoE4FIzD/91XFvzp/dkBsAy73yygkNF5ad/4Wk4HIpOjRvQq0UWMRHOBC3UwlUapeCrD9dxxe0drAsqgobWsGnbARatyGXRit0sW51PcWnFn17XpEEiF56XzcBzm5MQJ3VGhDlKwW1XdeXm+0wtsY7HggTA9F0ASqkGwDacaxNuS0qIYMf0S4iONJOLKEhMN9oFcZzWfV9izcZ9pmKkJ8QxqmsOdWKO/XQeHwN1LK5nldOzAZ171bU2qAhIFZXVfPL1GiZ+soL5S3dRUFjm8rNhoQ6e+Md53D7eY7eziiBRVFJBZuenKSmtNBqiEqivtTZ1y5AVmwAvwcTIe8OoViYHfyAk1EwXxFF+mL3F9OAfExHOxWd2+NPgD9bOAByxakGe9UFFQNmyo4B7H59B/W7PMvbWz/ju501uDf4AlVU1/PWh6Vz7t2lUVtV4qKciGMTFhDNqUGszIcKAcWb7YUUCYHj63+FQ3Di6lfkeyPq/ZaZOX2fq+RCHgzHdOhAfdeI7GRweKD5dXVHJ3jzrNywK/7djdyHDrp1Ms7Of57EX57B3v/m/J69PWsozr8+zoHcimF09+gyzIcabDWDq7Vgp1QZob/T5czplmCv8c0SorP9bZfHKXFPPD+nQhnpJCSf9c6N3PJ3OnOnbPRNY+K23Ji+jbb+XmTp9HTU11l57/ugLczhQIOWphXG9ujYkO8vUjuhWSqmzzAQw+3nM1Oa/sQObmWy+lpQAtkR1tWb5mnzDz7eqm067BpmnfI2nrmrYt7vYM4GF39mdX8SgKz/k6ru/pLDY/GbWEykoLOPFdxd5JLYIHleNyjEbwtQsgOEEQCmlcK7/GxIRHsLIfhYUNJICQJZZs3EvpYcNb0qhS1aD077GY3c11VRTI8uyQW/Gr1tp2+9lvv5po8fb2rDlgMfbEIHtipE5hISYelMcrZRyrXjKCZiZATgLaGz04Qt61icxzoJP7nL8zzKLVhif/k+MjqJRStJpX+epJQClYPumQ54JLvzCD7O3MPiqDzl4yL3NfUbl7ZVZJ2FOZlosA/s0NxMiFrjA6MNmEoCxJp7lUqum/2UDoGXMTP+fat3/aBYvxR5j28YCzwUXPu37WZu5cPwkDpdVea3NsnLvtSUClwWbAUcbfdBQAqCUCjXTaHxMGIPPbmj08WPJDIBlduUVGX42MzHepddVW3yrcNHhCrbtLWTZ1r3MXbqTKjmeFXS++3kTF47/yKuDP0C/XlKGWpg3uG9z0lNMbYYfbHQZwOgB/P6A4Zt7LjqvCZERFq3bSwJgmdw9xhOApBOc+T+RaovG550Hivls/gaWb9t7zM8f//BXBp3bnAfvOIemjepY05jwWb+t38uwayfb8mk8dJ9i87oCsloker1tEThCQx2Mu6g9/3t1rtEQMcBA4BN3HzS6BGBq9/+lA5uaefwPIWEe3FUWfHL3GF/TjI10rUSqFQnAl4s38eDHc/80+INzd/b7n6+k64VvmL1wQ/i46mrNlXdOtWXwb1UvidTIMH76dB0Tn1nKwX3e2XcgAtOV5k8DGJqRdzsBUErFAEONNAaQkRJFn64WlW2V9X9LmUkA4lxNAEwuAczbkMvUhZs4XQnrAwWHGTDufb6ftdlcg8JnPfHyr6Y2rhqVGh/F9f3+eMOuKqtgyqsrWDzb+30RgaFNdiqtm6eaCTFIKeX2rWhGZgCG4pxyMOTi85sSYtVWcJn+t8yhonJTRwBjI1xLACpNJAB5BSVMnPmby6+vrtbc+cj3lheBEfZbvWEvDz77s9fbrZ8Uy1/O70Bs5LHvPQ6lWTZrO5+8udrrfRKBYfRgU6WBjywDuMVIAmBy+t+i3f8g5/8tZGb9PzoiHIeLSV1FpfMWNiMWbsqj0s01hJVr9/DeZyuNNSh81tV3f0l5hcU7Sk8iPDSE+slxXHNuOx4Y1Z26SbEnfW1BfpEkAcIQkwkAwCh3H3BrE6BSKgXnBkBDmjdMoHMbw3sH/8xh1W3GwhvT/+Ac/CuqIMLA5M2yLX9e83fFj3O2cPkIwxWrhY+Z8etW5i/dZWnM+kmJ1E9KIDYygoZpEdSJiSAhOpzE6EiiI9x7nynIL+LL99cx5NIWlvZRBLZWzVJok53Kb+uNvc/hPA0QrbV2+cILd0fQ0Qae+d2lgyza/AfOzX+euFkmSHljA+AR5RXuJwCl5ZVs21fo3kO1zBxvFL7nhYkLLYuVFh/Lua2b0zzDuf7qcECDNPNx92wv4Jdvt3P2+RYddxZBYfTg1jzwtOGlrWhgEPCxqw+4O4IOd/P1xxhr1e5/kOl/i3lrBgCgrML9Ng6UGK/pvjtfEoBAsTO3kC9+WG86TkJ0FEM7teW6Pt1/H/zB2uuq1y3J5eB+OR0gXGfyimCAke682OUEQCkVAfR0uzu1urRJpXlD16rFuUSm/y2Va2KQdDcBKDew1/CQiQQg0s0pXOG7Xnl/ieliT/FRkYw/pxvtG9RFHXeM2MoEwKFg2vtrrQsoAl6rZim0bWFqCqq/Usrlv8XuzAD0AE58ybsLLJ3+B5kBsJg3lwBqauCwm+N5QanxBCAz7eSbtoT/0Bpen7TUVIzQEAeju51BTMSJjxBbmQAAVJSUs2RunrVBRUAzuRkwEeju6ovdSQD6ut8XpxCHYswASQB8mTeXAACK3bxK/ZCJBKBuepzhZ4Xv2LTtgOkLeC7s0PaUZautTgAAVs6V+gDCdaMGtTIb4nxXX+hOAnCegY4AcE7nTDJSDN9YeGKyBGApb84AgHMGwJ3re80sAcgMQGBYssrcJ+nuzRvTpn7GKV/jiX3FleUVHNjrZsYrglbLpim0a2lqGcDaBEAplQh0MtqbAWfVN/royckMgKXM1AEwMgOgNZS4sT/KzBKAzAAEhqW/mUsAujVtdNrXeOK6agXM+X679YFFwBraz9QR0o5KKZcyCFfz3d6A4RG3bzeLSv8eTRIAy5QeruRQkfEB1tUqgMcrceNDkewBEGYSgMzEeJcSVU9dLbJnh5xEEa47v7epJXMFDHDlha4mAIbX/5MSIujQMtno4yfmcMglQBbad9DluhF/4k4VwOOVV7q+GdDcEoDMAASCJauMr6W3yHRtStVTbyu6utqtJS8R3M7sUJ/EeMN77sHFZQBXEwDD6/99utQ1PECclKz/W8pMrfw4g5/+jyhwceuBuSUAmQHwd4XF5ezdbzxRzc5w7aIVTywBgDOx2LH5kGeCi4ATEqLo1yvLTIj+SqnTju+nHUmVUvWAlkZ7cd6ZMv0fyEJCzO2aqqiE0jKIPkWyW1peSZXBe4SVgvRUSQD8nZlNqjER4aQnuDYLZNW9UVXVNfy8Zieb8w9RUFJG0eFKpizfxHVXdaR/r6bERMtFZuLULujdlI+/MnyvRArQGVhwqhe58lHa8PQ/yPp/oDvdtbyuKCg+dQJQYGL6PzUphrBQKRnt78xUc4yPcn0qtboaMDk2/7puN58v3MiB4mN3ue6eW8y3czeRnhLDZ6+NpntHD2yOFgFjwDmmj86fz2kSAFfeGQ0nAA0zY62t/neELAH4jIqqKtMxKqug6BSzu/mHjE/9ygbAwGAmAXDnmKrBiabfzVy9gzd/WvWnwf9o+ftK6DPmHd7/XG6pFCdXNz2OnFbpZkJccLoXeDQB8Minf5AZAIsdXw7VHQdKDlNRZf5a1oNFzlsCT2TFdsO3Y8kRwADhrUJVZhKAtbsO8MFs10r/lldUc/VdX7JlR4HxBkXAM3kaoItS6pRvgKdMAJRSLYF6Rls/r5vhR09NEgBLpafEEGpwmlxrTW6B+c1NWsPeg39eg9XAim37DMdtk+3a5i/h27w2A2Ail/1o7jq3NtRWVFbzzyd/Mt6gCHgX9G5m5vEQoNupXnC6d33Du//BUzMAShIAi0VGhNLOxAUU8zdZU+SkqhoOHJdLbNtbaKoMcKd2mSZ7JXyBqUqVJ6n7fyJGJ7MOFJexY5/7ScqkL1axM9fYNdci8J3VuQHxsaZOWvU41R+eLgEwPP3ftlkd0pMtLv8LMvh7SJcc48nautw97DxgzVRmSdmx+wGWbzU+/Q+SAAQKb80AlFc6Z53ctWzrHgNPOWe+tu2S44HixMJCHfTt0cRMCGMJQO2Vgn2MttrXU9P/IZIAeIKZBADgh9/M39F+xIFCOFQCew6VMmOV8dmF+NgImjVOsqxfwj7e2gOgtfNoqrt2HTDePzP/bCLwnXPm6UtYn8KZp7oe+FQzAJ0Aw1v4PXL+H2QGwEPMJgA79hewPs/cp/Wj5R+s4tmvllJSbuDduFbHthlSMDJAeGsGAKC8wv02DpUaeKhWcYnxZ0Xg69G5gZnH44B2J/vDUyUAhtf/Q0McnNPJQ1Ovpy9uJAxom51GhsmCOV8uWcX2/QdN90VrzacLV7CnsMRUHAvO0QofUFRSQUmp8UTQ3bsqjCUAxveppKfGGH5WBL4zWqebLRx10mWAU42mhtf/u7ZLJS7GQ5WuJAHwiJAQxXVjO5qKUVpRyXtzFrNs2y7DMbTWTF+1jo35xnf+A4SHhTB+TAdTMYRvMPPpPzo8zO1S5GUGcg0zCYDUqhCnEhrqoGuOqSV19xKA2hrC3Y221rerh6b/AedFR8ITrr+0o+HjgEdU19Tw5dLfmL5yndtVAjfk7eXVn+aywIJTBSMHtiI1Odp0HGE/UycADFxVXVPj+iVV4Nw0aC4BkFoV4tRMLgP0PNkfnKykXnPA8Bb+88700AZAkFsAPahuehzDB7Q0U3/6d/M3bWPr3gN0adqQdvUzCT3FnQE7DxTw428bLFk+OOLGcZ0tiyXs5c31/yNKDkOUi4+WlFVSbfASgdBQB6lJkqiKUzOZADRQSjXQWu84/g9OlgC0N9pSTFQoZ7Y3fqb8tCQB8KhbruhiSQIAkF9YxLTa2YDMxHjqJsYTGRZKUXk5JWUVFJWVU1xWTkHpYUvaO6JdyzR6djH1P4zwIWYSAHdOAByttNxZlMqV1QNT6/8pMdbflioCTvdO9XE4lJmbW3sAk47/4ckSgJPuGjyd7jnphId5cp1e/mfxpLO7NeS8nk34YfYWy2JWVFWxbd8Btu07YFnMU/nvPed6pR3hHd5eAgDnccDSMoh1YR7UTAIgpaqFKxLiImjbIo0Va/KNhjiLEyQAJxupDc8AnNHCw+euZQbA4954cojZ6lO2uWJkDoP7Nre7G8JCJSaO2BmdAQAodnFiqkA2AAov6NHZ1O2RJ9zhbXkC0D472eijrpEEwOMa1k3g6fv72d0Nt9XLiOPZB/rb3Q3hQ6LCXS8DfLzyCihzIfcoNJGgSAIgXGVyH0B7dYJb3/6UANTeHtTYcCvNZQYgEIwf08HsRRRe99rjg0mMd/3udxH4zL5bHHRh+4EsAQhvsKAg0J9qCp9oBqAdBv+/CQt10Cor0cijbpAEwFtee3yw6eJA3nLz5Z39LmERvq+i0rkX4FQKSmQJQHhe4/qJJCWaul8n5/gfnCgBMDz937JJooc3ACIzAF5ULyOOGZPGkZ7i25XKrhp9Bs89eL7d3RA+6NBh8ydMTjcLsPug8U2KMgMg3NG+pakTdp5NANpne+HiFakE6FWtmqUwY9I40pJ9Mwm4avQZvP74YDlKFcBioo2v4+8+aP6q3arqY2+oPFpFVTW5B42XrG5Uz/B1KyII5bRON/P4n8Z2axMAT6//C1u0bp7KjEnjfK6yngz+weEME2962/YdoLK62nQfDhad+JbADbkF1LhZ8fKIyIhQWjZNMdkzEUxyWplKAFyaATBcA8DjMwDy6d82bbJT+XnyFWb/AlrC4VDcc8NZMvgHiY5tjV8sVlpRyfyN20z3QWvYW+AsDnS0n34zXra6Xcs006W3RXAxOQPQpHaT/++O+dunlGoMxBuN7vkEQN7s7dSqWQoLp13Dv/7Sy7Y3rqyGdfh58hU8fm9fGfyDRMumKURHGb9c7NcNWzl8oo/vbqqqhv2H/vh97sESlm8zfmlVx7YZpvskgkubbFNJo+K4Gf7jIxme/k9JjKRuqqeniOUN325hoQ4evqs3cz+7mjbZqV5t+4bLOrHiu+ulzG+QCQlRpmaeyquqmLVusyV9KS2DwhIoLa/ihe+WuX3h1dE6tPHQlekiYEWEh5DdxFStnWOWAY5PAHx3+h9kBsCHdG6fyeKvruWZ+/vTrLHn/ts7HIqRA1ux8MtreOk/A83eiy38VNczzN0wumjLDvIPGb9T4GgHCjUvfLecvALjm/8AuuRIAiDcZ3IZ4JQJgI+fAJAEwJdEhIdw+/hurJ95M1+9fQnn925q2X+iyIhQrr+0I+t+uomPXxpJ5/byZhnMrhp9hqnnq2tqeHvWAtbl7jHdl+mr1rFu935TMdq1TDO1t0EEL5P7sI75kH/8ZUC+fQJAEgCfpBQM7NOMgX2asWHLAT7+ajWLVuSyaOVudux2/RhW6+ap9O3RmL49mtC7e2MS4vzzPgJhvZxW6fTo3IA5i/50o6nLKqqqmTx/GX1aNaNniyy3ny8tr+DntZtYtMV4H464Sa6rFgaZTACOqZamjqxhKaUigWIgxEjUxZOG0bGVh4+0hEVCTB3PtiEstXd/KYtW7mb56nwOFBymuLSCqipNanI0ackxpCVHk5YSQ+vmqVIVTZzSh1NXMfbWzyyJ1aZeBue1zSY+6vSloyuqqpm3cStzN26joqrKdNvxsRHsWnA7sTHG6xuI4JW7p5i6XZ4xEyJBa10IxyYAnYBFRqKFOBTF864kMsJQ7uC68CiI9nSpYSGEL6qsqqFBt2fJ32du7f0IpRTZGam0qptOZmI8ybHRHLkvpaq6hrxDhWzff5B5G7dRUm78wp/j3Xx5Z55/+ALL4ongk9DmCQqLDZeg7qC1XgbHLgEYnv7Pbpzg+cEfZAlAiCAWFurgliu7cN//ZloST2vNutw9v+8LCA1xEOJwbouqrKo2XODnVEJr/xmEMCOrYR2Wrc4z+nhTYBkcuwnQ+AkAr1UAlARAiGB2zw1n0baFqXroJ1VVXUN5ZRXllVUeGfwB/nbjWVL9T5jWtJGppfCmR35xdALQ0Gi0nBamziW6zkP/Uwoh/EN4WAhvP3WhX1bQa9sijftvO9vubogA4IkEwPCZlHbNvbUxTxIAIYJdp3aZ/P3GHnZ3wy2hoQ4mPn0h4WFeWCoVAc+nEoBGmbJ7WwjhPffd1ot25q5G9ap7b+oh5/6FZTyRABguTJ3p8RLAtWQJQAiBcyngs1dHUz/T8NUlXjNqUGuZ+heWMpkANFBKhUFtAqCUSgCijEQKC3WQnHD6s7RCCGGlpo3q8NOkcT6dBIwZ0oYPnhvul3sWhO9qkJlAmPG/UyFAY/hjBsDw3FR6cpT3TufJDIAQ4ijNGif5bBJw8YVteH+CDP7CeiEhisYNTNXEaQoWJACZKV6a/gdkE6AQ4ni+mARcOqwd7z07nJAQObosPMPkMkATsCIB8Nb6vxBCnESzxkks/fpaRg9ubWs/oqPCeP7hC3hvwjAZ/IVHNW1oKgFIB0tmAAxtHTBGlgCEECeRkhTNRy+MYPKLI0hJ8v4Hky45dVny9bXcfLlc9CM8r0HdBDOPW5MAZMgSgBDCh4wa1JrffriBERe08kp7CXERPHRnb3799CpaZHmpKJoIemnJpsbeNPjjLgD0GPDtAAAgAElEQVT/WAKQ8V8I4YK05BimvDySlWv38NJ7i3jv05UUlVh3oQ9Ao3oJ3HZ1N665pANxcrOf8LK0lBgzj6eDFQmAN5cAJAMQQrihXcs0XnxkII/fex7vfbqSl99fzIo1+YbjxcdG0Oesxlw8pA0jB7aSHf7CNmnJ1iUAvl8ECGQPgBDCkLiYcG4c14kbx3Vi34FSFq/MPeZr265Dx7w+JESRlBhFalIMmWmx9OrakH69suiaU1cGfeETTM4ApAEorTVKqYOAoUOF27+7hAYZpjrinkQppymEsFZVVQ3FpRWUlFYSGRFKUqIX65sIYcDhsiqiWzxqJkRUqFIqEoODv1KQ4dUlAEDXgJIMXAhhndBQB4nxkSTGS1VT4R+iIkOJjQmn2PjeljQHJtb/kxMizZQjNKamxrvtCSGEED7I7D4AUwmALUWAtCQAQgghhMmjgOYSAK9P/4MkAEIIIQTmNwKamwHwahGgWpIACCGEEGaXAFL9bwlA9gAIIYQQZktexziAOKNPZyTLEoAQQghhh5joMDOPRzv4oxiQ22LNNW6MJABCCCEEMVGmSlBHOwDDo3ioHdddSgIghBBCEB1l4wyA12sAgCQAQgghBDYvAdhSE1s2AQohhBCWzAAYjmDLDEBNtffbFEIIIXxMjLkEIMr/lgBAkgAhhBBBz9Y9ALZsAgRJAIQQQgQ9K/YA+NcSAEgCIIQQIugF3ykAkARACCFE0LOiDoB/nQIASQCEEEIEPZMzAFF+ugRQZU+7QgghhI8IMbkPTzYBCiGEEH6opkabeVzLHgAhhBDCD2lT478zAfC/JQCQJEAIIURQMzkDUGNyCUASACGEEMIOGjuXAMIkARBCCCHsYOsSgG2bAAGq5SSAEEKI4GXrEoC9ewAq7WtbCCGEsJk2NwXgp6cAQGYAhBBCBDUrjgEajlBWYeM6fE016Br72hdCCCFsZHIPQI0DOGT06YLCClOtmyazAEIIIYKUFacACow+XVBkdwIg+wCEEEIEp8pKU7PgJmcAisrNNG6ezAAIIYQIUkUlpsbgUpMJgMwACCGEEHYoNDcGF/r3EoDcCiiEECJIFRabmgEo8u8ZAK0lCRBCCBGUTCYAZmcAbN4DALIPQAghRFAqNDcGF/r3DADIPgAhhBBByYoZAMMJwCFJAIQQQghbWLEHwH83AQJUSQIghBAi+MgSgK6RfQBCCCGCTmGxrccAfWATIEC1DyQiQgghhBfJDABAlY/0QwghhPAS2QMAkgAIIYQIOnv2l5h5vNChtS4BDC2il1dUU1Zu45XAR9RUQ41cDSyEECJ47M4vMvP4PkftLwqNRvCZWQDZByCEECJIlFdUs//gYTMhdh9JAPx/I6AsAwghhAgSuXtMffo/rLUuOJIAyEZAIYQQwk/szi829ThAaO1vDM8A7NpjahOCdaornZcDKWV3TwwrK69iV15R7Vch+ftKSIyPpF5GXO1XPAlxEXZ3UwghhM1Mrv/nwh8JwAGjUTZuN7x9wHrVlRAabncvXKY1zFu6k6nT1zF1+nrWbtp32mdSk6MZ3DebYf1b0K9XFlGRoad9RgghRGAxmQAcMwOw2WiUjTt8KAGoKveLBGBXXhGPvjCbT75ZS95e96Zx9u4v5a3Jy3hr8jKio8I4/5ym/P2mHnTJqeuh3gohhPA1ViYAG41G8akZgMpyiIyzuxcnVVBYxmMvzuG5txZwuMx8+eLSw5V8+u1aPv12LaMGteY/d/eheZMkC3oqhBDCl1mxB+DIJkDDCcCmnT6UAFRXOu8G8EHPT1xI017P8/hLv1oy+B/v469W0/q8l7j5vm8oPSwXJAkhRCCzYgbgSAKwwWiUnfklvlEM6IhKHzmWWKu8oprL/zqVv9z/LQcKTJ3ZPK2qqhpefGcRvUZOZGeuDyVmQgghLGXFJsAjCcBOoMxIFK1h8y5THbFWle8kAPn7Sugz5h3e/XSFV9tdsiqXLkPeYP7SXV5tVwghhHfsMPch748ZAK21xsxGwO2GywhYz0dmALbsKKDLkNeZu2SnLe3n7S2m95h3+GqG4ckdIYQQPih3TzHFJaZq3xyzBABmNgL60kkAXePcC2Cj4pIKhl7zETt22/vvpay8iotv+ZRV6/bY2g8hhBDW2bDF8Ml9gAKtdSFYlQD40kkAsHUWQGsY99fPWbnWNwbd4pIKLhz/kdma0UIIIXzE+i37TT1+5BdHV5ExPFfsUzMAAFVlQKwtTd//1Ew+/26dLW2fzJYdBYy84WO+f/8yQkMdp3/AxxWVVLBy7R5+W+9MsuJiIoiNCScuJpy42HBio8OJi40gLiacmOhwfy4OKYQQf7J+s/UJQODMAFTVHgdU3h3slq3O4z/Pz/Jqm66aOW8bL767iFuv6mp3Vwxbv3k/N/zja2bO24rWrj2jFMREO5OC+LgIUpOiyUyLJSPV+ZWZXvu99mdpyTGEhEjGIITwXRu2mloCsDYB2J5bTGVVDWG+9OmyshzCo7za5D3//dHlgckODz83iytH5RAf63/3CTz31gL+9uiPlJW7V0NBa+cySHFJBXl7i0+bOTscitSkaDJSY6mXEUd2VjKtmqXQsmkKrZqlkJocbeYfQwghTFu/2ZoEQOnaEUsp5QAOA4Zq6a77YhTZjRLMdMpa4VEQnei15qb/spkB4973WntG3XtzD/57z7l2d8Mt037cwJCrJ9ndDQCSEqP+SAiap9CyqTNBaFw/EYdDZg6EEJ5VU6OJbvEo5RWG6+901FovhaMSAACl1BqgpZGIXz0/gIG9GhjtkPWUAxLSvdJUTY2m48DXWL4m3yvtmREVGcr6mTdTPzPe7q64JHdPMTnnv8Le/aV2d+WUIiNCyc5K/j0hOJIgZDdJlgubhBCW2bqzgCY9/s9MiDitdTEcuwQAzmUAQwmAz20E1DXOZYAwz093/7p4p6WDf3RkCB2zE2mXFc/WvFIWrjnIvkOmznz+7nBZFW9PWc6//tLLknie9sZHS31+8AfnkcsVa/JZcdzfA4dD0ahegjMpaJbye3KQ0zqduBjfv7hKCOFbTE7/7z4y+MOJEwBDfG4jIEDlYa8kAJ9/t9aSOOeckcJTt7TljOYJhBw3nbw1r5TH3lvPq1+4vgHuZD7/bp3fJAC/LrKnkJJVamo0W3YUsGVHAV//9Mf/XiEhivYt0+nRuQE9uzSgR+cGfjMrI4Swj1UbAMHKBMDXZgAAKssADXh2bfbz6eaO/cVEhvDoDW245aKskx5Za5wRzct3ncGoPvUY/9hStuUZ/1S8eGUuO3YX0qCubw84WsO8pf6dAJxMdbVm6W95LP0tj+cnLgSgUb0EenZp+HtS0CY7VfYVCCGOsXbjPjOPnzIBMF4LwBdnALSuXQaI9FgTq9btYdO2g6ZiTHmkK+d3c22/Qt9Oqcx9+WzaXj6DA//f3n2HR1WlDxz/3vSE0HsvUiyIiAhWXCtiA3XVRRddey9YdtVV1xVcfzawdwSlKCC9CIL0HkKkhB5KCIT03iYzc35/TKgmkNx7Zu7M5P08Tx4g5Jz7ioTz3lPek29+WWDGgh08dd+Fptv7gmFQqwbA/Qfz2H9wM+Onbwagft1ILrmg7dGEoE/P1rKfQIhaLiHxsJXm3pkBSErJp6ConLp1ws124R3lpV5NABau2Gup/QM3tq/24H9Ey8ZRfDa0B3f/d73p5y5csdfvEwCA885qzqJV++wOwxZ5BWX8umQ3vy7xfFuGh4XQ69yWXNa7LZdWLBs0a1zH5iiFEL7idiv+2Oq9BGA/UA7UeBR3uxXrtmRwdd9WFmLzgvJSz0yAl8rBWbmRqUWjKEY83d1U28HXtGHSooNMX55qqr3d9xRU1/nntKi1CcDJyp1u1iYcZG3CQT78dg0AXTo24rIL23HZhW3p3+8MWreoa3OUQghv2Z6USVGxpbtuthz/ixMq9yilXFi4FXDNJv+of38Cpbx6RXBqeuHpv6gK/fs2o76FGZM7r2ptum1quh9d4XwKzz3YV3bLn8KuvdmMnvQHD740izZ9P+KCG7/jPyOWErfxkF8XpRJC1Fz8ZnMvfBVylFInTFlXVrovzmzvfpkAQMVmQO84lGZ+IL3wTGuFinp1Nd8+PasIl8v/R4g2LevxzstX2x1GwNiwJZW3Pl5Gn1tG0erCkTz40iymzd9u9epQIYQfsJgAbDj5E5UlAGvM9u7XCYCXXoeszAD0OauhpWd3bRtres+Fy6VIzyqy9HxfeWJIb4Y+1Fcu9amhwxmFfD/pD257ZDJNen7A9fdO4LMf4tiXkmt3aEIIEywmAPEnf6KyBGC12d4zc0v99zSAl5YB8gvM99u2ubW7CgwDWjU1X5s+v9C+a5NrwjBgxOvXMX/sPX5/dNFflTlczF+axNNvzKPjpZ/S/dqvePn/fmdF3IGAmAkSorbzbAC0VHDuTzMAlZ0p2oTnTgBTo9Oazel0bueH/0g7SrxyGkAF8EJroMV+7eWdSF79LDv2ZLFq/QE2bksjv9BBQWEZBRUX/hQUeX5dWOygoNBR48uDaovEnRkk7szg3S9X0bhhNAP+0pmbru5C/yvOoEE9752aEUKYs3NvltWlvD/NAPwpAVBKOQ3DWA+YKhW3emM6f7+xs5mm3lVeassVwUK/bp0a061T42p9rdPpPpoMpGcVkZpeSGp6QcWPhSf8Oi2jCEe56Qs2AlZWTgnjpm1m3LTNhIWFcM1lHbl7YHdu7X8msbIBUwi/YHH6Pw9IOvmTVVUVWYPJBMBv9wEAOIohMtbuKIQPhYWF0KBeFA3qRZ12+UApyMopJjW9kD3JOWzbnXnCR23YSOd0upm3JIl5S5KIiZ7LLdd25Z5B59L/ijP867pvIWoZiwlAgqpkyvdUCYApm3ZmU1zqJMYfK5aVlUgCIKpkGNCkUQxNGsVw7pnNGHhdtxN+/8Ch/KPJwNZdGUd/npnt/5cVmVFcUs7PMxP5eWYijRtGc8eNZ3PPoHO5tHdb2ZAphI+t36R3AyBUnQCY3gjodLmJ35rJ5b1amO3Ce9xOcDogTKY1Rc21bVWPtq3qcV2/Tid8PjO7mK27jswUZFQkCJmkWCgS5W+yckr4alw8X42Lp33r+gwe2J17BnWne7dmdocmRNArc7iI23jIShfVTwCUUqmGYSQD7cw8afXGdP9MAMCzDCAJgNCoSaMY+vVtR7++J367FBQ52H7cjMGWHRms3pBCdm6JTZHqsf9gHv/3xUr+74uV9DirOXcP7M7ggefQrlV9u0MTIiitTThodUPzn04AQNUzAOBZBjCVAPj3PoBSiJbNgML76taJ4MLzWnHhecfKYysFW3dlsCLuAMvXJbN8XTLJh/JsjNKaTdvS2LQtjVfe/Z3L+7RjyG09GHxLd+rE+NmdIEIEsKVr91tpXsBJdwAccboE4E4zT/PrBADlORIYKZeoCN8zDDina1PO6dqUR+/pBXj2FiyP8yQDK+IOkLgzPeDK+CoFy9Yms2xtMi8MW8A9t3bn0Xsu4LyzanbRlRDiz5ausZQArKlsAyCcOgEwvQ8gNbOY5NRC2rX00w13jmJJAITfaNuqHncP7M7dAz0XQ2XnlrBy/YGjswTxm1MD6nhifmEZX46N58ux8fQ9vzWP3t2Lu24+h5homRUQoqbKnW5Wb0ix0sWSqn7jVAlAAuAATC2Yr96U7r8JgEs2Awr/1ahBNDdf05Wbr+kKQEmpk3V/HDw6S7A6PoWCADmSeOT2wqFv/caQ23rw6D29ZOOgEDUQt/EQxSWWbgBcUtVvVJkAKKXKDMNIAPqaeeKaTenc1b/T6b/QLrIZUASI6KgwrrioPVdc1B7w3OOwcdthFq/ez+yFO1mx/gBOp9vmKE8tr6CMz36I47Mf4rjkgjY89vcLuOPGs4mK9MPjwkL4EYvT/8Wc4oK/0333rcFCAuDXpDKgCFChoQa9urekV/eWvPDwReTml/Lr4t3M/n0Xvy7ZTU6e926/1GFVfAqr4lN49s35PHjX+Tz7QB/atPTD8uFC+AGLGwBXKaWqnD443ehnuiBQwvYsSvy5DrtSUBacBVxE7dKgXhSDB3Zn/Ce3kr7hBZZMvJcXH7m42uWS7ZKTV8oH36ym02Wfct/zM9i83c9fGoTwMafTzcr1B6x0seRUv3m6BMD0RsAyh4sFqw+abe4bjiIgwLZbC3EKYWEhXHFRe97/9zVsX/wEO5c8yYjXr+PKizsQ5qelfMudbn6csoke/b9mwH0TWLRqn90hCeEX4jenWi1BvvRUv3nKfxGUUvuBw2afPHNJstmmvuF2e+oCCBGkunRsxNCH+rLo5yFk/vEiP392G/cMOpdGDaxdRe0t85YkcfXgsVxw43f8PDNRrioWtZrF6f8SYN2pvqA6rwSmlwFmL0v2//PMZYV2RyCET9SvG8ldN5/DuI8Hkb7hBZZNvo+XHr2YDm0a2B3an2zYksrgp6fSud9nfDJ6HUXFlnZBCxGQ5i7ebaX5KqXUKacPqpMALDf79LSsEtZu9vN1PZcTysvsjkIInwoNNbi8Tzvee/Ua9qx4mhVT/sET9/amSaMYu0M7wb6UXJ59cz5tL/qI975a5f8vFEJokptfanX9/5TT/1C9BGCWlQhmLrE0heEbZUV2RyCEbQwDLu3dls+HDSA1bihzxgzm7oH+Vc43J6+Uf73zOwMfmkhegSTsIvjNW5Jk9XjvktN9wWkTAKXULmC72Qj8fh8AgLMMXDLFKERYWAg3XNmZ8Z/cSlr8C0z45FZuvKoL4X6ygXDWwp1c/tcxlPt53QMhrJr9+y4rzYuBtaf7oup+V880G0ViUg5JBwLgWlSZBRDiBHViwhk8sDuzR/+N1PXP88XwG7jswrYYhr1xbd6ezhc/rrc3CCG8yOVS/LrE0vr/76db/wcfJAAQILMAjhJwB069dSF8qXHDaB4fcgHLf/kHe1c+wzv/uopzuja1LZ63Pl4mSwEiaK2KP2D12vDZ1fmi6iYAq4EMs5EExD4AkFkAIaqhfev6vPzEpWxZ8Bgrp97Pvbf38HlJ3+zcEhISTZ9QFsKvWZz+B5hTnS+qVgKglHJTzYyiMisS0sjJD4Bs3VGMbDMWovouuaANP4wYyKG4oXz0n/6c1bmJz569JznHZ88SwpcsJgAblFLVqsJXk509ppcBnC43c5dbOs7gG0rJLIAQJjSsH8WzD/Rh6++Ps2zyfdw9sDuREaFefeahtAKv9i+EHfYk57B1l+kJd6jBy3pNEoAFgOmyeQGxDwA8hYGU7DAWwqzL+7Rj/Ce3cnDdUD547Vq6eulOgt7ntvJKv0LYScP0v/4EQClVBPxuKhxg3soDOMoDYGCVWQAhtGjcMJoXHr6IHYufYNHPQ7jl2q7aThBERYYdvR5ZiGAyc8FOK80PA9U+IlPTw72mlwHyi8pZsj7VbHPfKiuSWQAhNLry4g7M+O4uti96gkfv6UV0lLVNgzdf09VyH0L4m7TMIpas2WelizlKVX8jW00TgFlYuD4vYE4DKAWlMgsghG5dOzXmq//dSPLqZ/nv81fQrHGdGvfRuGE0H7/Z3wvRCWGvibMsX4BVo836NUoAlFKpQFyNwjnOrKUBsg8APFcFyyyAEF7RpFEMbzzbj/2rn+Hbd2+q9umBxg2jmfLVHbRsFuvlCIXwvQkztlhpXoZnr161manvaXoZIDm1kD92ZJlt7ltKQancFCiEN0VFhvHQ384nceHjzBkzmGsv71Rp2WHDgBuu7EzcrIdk7V8EpT3JOaxNqNbpvaosrtirV21mFtFmAsNNtANgxuL99OzmnV3B2jmKITIWQvyjDroQwerIAH/DlZ0pKXWyJiGFZWuTyc0vpXOHRlxzWUe6eek0gRD+4KcZiVa7mFbTBjVOAJRSmw3D2Ad0qGlbgB9n7eKNR3vZXk+8WpTyHAuMrmd3JELUGtFRYVx5cQeuvLiD3aEI4TMWp//LgV9q2sjsq63pZYA9KQUsWnfIbHPfKyuWOwKEEEJ4zcZtaVaL/8xTSmXXtJHZBGCGyXYAfDd1h5XmPiZ7AYQQQnjPhOmW3v4BJphpZDYBWAbkmmzLtEX7yMoNgLsBjnAUg6vc7iiEEEIEGaXg55mW1v+LMDkrbyoBUEo5gblm2gKUOVyMnW253KFvleTbHYEQQoggsyIumeRDeVa6mKGUKjbT0Mr29h8stA2wZQDA6YBy01chCCGEEH/y45RNVrswNf0P1hKABcA+s40Tk3JYvTHdwuNtUJIv1wULIYTQIr+wjJ9mWlr/zwJ+M9vYdAJQUW/4e7PtAb6dut1Kc99zu/50UVC503y1wIhKCp4IIYSoHcZP20JRsaX9ZZOVUqY7sDoCfQ+YPiM3af4eCooCbHNdWeHRY4FOp5ucvBJT3YSFGjSsG6EzMiGEEAHk6/HxVrv4yUpjSwmAUuog8KvZ9kUlTib8mmQlBN9TCkoLAMjMKTa9ItCkfmRgFEMSQgih3ZqEg2zclmaliwPAcisd6JiD/s5S40BbBgBwlICznPRM8zcGNmsob/9CCFFbaXj7n1CTq38royMBmAOkmm28PjEzcC4IOl5JHmmWEoBIjcEIIYQIFLn5pUycZensv8LiyzdoSAAqagKMttJHwB0JBHCVk55muhYSzRtFWY9B1hCEECLgjJ26mZJSp5UufldK7bYah65t6KPwZCSmjJ+zm5IyS38Ytkg/XOPSy0c1a6BhCUASACGECDgapv+/0RGHlgRAKbUHWGS2fW6Bg18W7NMRik/t3Gd+BkDLEoARar0PIYQQPrNy/QESd1q6+CcNmK4jFp0H0S2tR3w7JfA2Ay6OM3+roZYEIEQSACGECCRfjrX89j/aytn/4+lMAKbhqUpkyvINh9mxz1I9ZJ9KzSy2FG/Lxhr2AISEEB0ZZrp5aQAuuwghRKBKSc1n0mzLm/++1RSOvgRAKVUG/Gilj69/2aYpGu9btNb8279hQJ+zGloPIiSUVs1iTDc/lCbXHAshhK98NGqtpeqxwIKKJXctdNeitbQM8M0v28nMDYwLdxbHmT75yHmd69O4voZNgCGhtG5Wx3Tzg4flhkMhhPCF3PxSvpmwwWo3X+uI5QitCYBSaiuwymz7ohInI37crDEi71m0zvwMwFW9muoJIiSUVk3NzwDsPWB+E6MQQojq+2pcPAVFDitdHAZmagoH0D8DABbXJz77eSs5+WW6YvGKvQcL2HuwwHT7qy/QkACEhIJh0NrCEsCviwOsDLMQQgSgMoeLj79fZ7Wb7yvq7mjjjQRgEmB6brmgqJyPxlm6HtHrrJxYCAs16NezsfUgwsIBaGVhCeCPrYfZfzBwNl4KIUQgGjt1E4czLO25cqFx898R2hMApVQxMMFKH59MSCSv0NJUidcUlTj5arL5BKDPWQ2JjTa/c/+oUE8fHVvXtdTNlLmBs/FSCCECjVLwwderrXYzRSm1T0M4J/DWhfSWNirkFjj4dIKloxJeM3r6TktLFFfpmP4HCPXMAJzdqQHtWsaa7uaDb1ZbvY9aCCFEFWb8toMdeyzfd/OejlhO5pUEQCn1BxauCQYYOW4LhX42MLndipHjrG1S1LL+b4ScUARo4F/am+4qNb2QEd+tsR6TEEKIP3n/a9P74o9YpJSyXD2oMt6aAQAYZqVxdl4Zn/+8VVcsWkxbtI89KeY3/8VEhXJx90bWAwk9cQlh0FXmEwCA979aJScChBBCs5XrD7AqPsVqN+/qiKUyXksAlFKrgYVW+vjwx80UW7sxSasPLR5RvO/6dkSGa/gjDz+xjHC/C1rQsJ750sIFRQ5ufuBn8gv9+/SFEEIEkjdHLrXaxUal1G86YqmMN2cAwOIsQEZOKV9N9o9NapN/28vqjemm2xsGPHfnGXqCCTuxiFBYaAg39WtrqcvEnRkMfmoqLpfpSx2FEEJUWLJmPwtX7LXajVfW/o/wagKglFoGLLPSx/tjNlFa5tIUkTnp2SU88fZKS33cfGkLurY1v1nvqLCISq8BHjzAenIxd/Fubrz/J/IKZCZACCGs+Pd7pi/IPWI/nmP1XuPtGQCAt6w0PpxZwrdT7b0p8Im3V1kuUfz8XZ31BBNWeQnhAZe15dKezS13P39pEhcN/J7d+7It9yWEELXR3MW7daz9j9Bd+OdkXk8AlFK/A5YOQb43ehOOcksXKJj287wkpiy0No1zQbcGXNGziZ6Awqu+Q+C9oX20PGJ7UibnXvc1L//f7zIbIIQQNaAUvPb+YqvdZAOjNIRzSr6YAQCLewFS0ooYPWOnrliqLS2rhKfesXyEQ+/bv1H1/7JLejZn4JXWTgQcUVrm5N0vV3HG5Z/y5silbNqWpqVfIYQIZr/M3UpC4mGr3XyulCrSEc+pGEr5ZtOXYRhxQG+z7du3jGXX7DsJD/NVzgKDnlvAjMX7LfXRpmk0eydfR1jon9ftayym/tESwFXZtieXc2+fgsut//9rp3YNufbyjrRuUY8WTevQvEksEeGhp28oRBXqxkbQukVdWjWvK3+XRMBzuRTdr/2K7UmZVropAjoqpTI0hVUlDTVpq20YMMNs4/2phYydvZsHBnXVGFLV3hu9yfLgD/DMHZ30DP6hYacd/AHO6tSAB2/rxje/6N83sSc5h6/H52jvVwjDgKaN6tCmZT2uvLg9A6/rxqW92xISouF7RwgfGTdtk9XBH+ATXwz+4MMZAADDMBKAnmbbd25Xj12z7tQYUeUWrD7IgCfmWX6Lbt00iq1jr6FeHQ15VnS9U67/H6+wuJxL7p3F5l2ykU8ErqaNY7jp6q48eFdPLu1t7ZirEN5W7nTT7S+fWy2qlgt0Ukr55E3Ld/PpHsOtNN6dnE/Cdss1lU9p78EC/vavRVqm0L956Xw9g39IaLUHf4DYmHBmfnItTRtGWX+2EDbJyCpm9KQ/uOz2MQx8aCLbdlt+sxLCa777KUFHRdUPfTX4g+8TgP7BsS0AACAASURBVKmApVt+dEzLV6W41Mmg5xaQnWd95/s/BrTjhoutH8sDICK6xk06tKrLlBHX+HTPhBDeMnPBTs697ise/tdsMrKK7Q5HiBPkF5bpqPqXAXykIZxq8+nooDzrDZZmAZZvsLy7skoPvLGMTTutT5u3bhrFR8+eqyEiPLv+I8yV+b28Vwu++PeleuIQwmYul+K7nxPofdN3/LHVe/8OCFFTwz5eTnqW5U377yilCnXEU112vB5OAnaYbWyl5v2pvD9mExPn79HS17f/PJ/6dU6/Ya9aIqIB8xuhHrqtG689cr6eWITwA8mH8rj0tjH8Mtc/yoSL2m3X3mw+/n6t1W5SgC81hFMjPk8AlFJu4H9m27dsWvPp8NNZsPogr3wcp6Wv+29ox4CLNE39GwZEWF/HH/bkBYwZdgWREXLMSgSH4pJy7nziF97+dIXdoYhabuhbv1HutFyobphSylq5WRPsWiAeDySZaXjhOU21BqJz01+bptGMfEbT1D9AeFSldf/NuO+WLiz69gaaN9afQAlhB6XgtQ8WM2byRrtDEbXUvCVJzFm0y2o3ScD3GsKpMVsSAKWUCxN7Abq0q8/dN2i6UQ/Ppr9bh+rZ9Afw7b966pv6B4jUO1hf0rM5cRMG0bNbY639CmGnx16dw+oNluuuC1EjTqeboW9puan3TW/X/K+KbVvElVJjgNk1aTP86QsIC9UX8pP/W8XGHXrOyg+98wyu76tp6h88a/+nKPtrVtsWdVj54808e093IsLlhIAIfGUOF7c9MpmU1Hy7QxG1yGc/xOko+pMITNAQjik+LQT0p4cbRmNgLnDKW2wiwkP46rXLuF9jFcAJc5O45xXLFzYAcFWvpvw28hJCdVUtCwmFOg20Tf9XZU9KAf/+dD0T5ydh418DIbS45rKOLBj/d7vDELVAZnYxXa74nNx8y8v2Nyml5uiIyQxbXwGVUllAPzxnHys73KtiosK2Lx51k9I5+CcdyOex4Xo2D7VvEcPEty7UN/gDRMd6ffAH6NSmLj+9eyVxEwZxVZ9WXn+eEN60cMVeFizXc5JHiFN57YPFOgb/eXYO/mDzDMDxDMNoAAwCugAxwHJgqVIqi+3PzMZRcqOO55Q73Vxy70zWJ1qvKhYdGcrKL/txfpf6GiKrEBENUXX09VcDS9enMnnBXmYs3k9KmtcvohJCu/PPaUH8nId9kT+LWuqPrYe54MbvcFvbOF4O9FBK6b+0pQb8JgE4pZ1DY3GUZON2Wd5h99KItXzww2YdUTH29Qv4+3Uaa5SHhEJsA6yc+9clfmsmMxbvZ/ri/XKngAgoEz65lcEDu9sdhghCLpfiokGjWL8p1WpXI5VSz+uIyYrASAAAdjw7nLLif1vpYt2WDC4eMtNq5gbAc3eewcinNR75A8+6f6gvL2isnrSsEg4cLiI1s5jUjGIOZRSTmlnM4cwSyhwuu8MTAexwVjFbduVovb66V/eWxM95SFt/Qhzx4bdreHH4AqvdZABdlFJ5GkKyJHASAIDEJzJxlZs6w+Z2Ky68ewYbtlmf+r+yVxN+G3Gpnmt+j4iM8XwIUcsUlzpJ2J7FzCX7GfHjFpwuy0VV2L/6Gdq10rg0J2q9pP059Oj/NcUl5Va7ekQp9a2OmKwKrHNgYZGDzU6PfzFxm5bBv13zaCa91Ufv4B8aJoO/qLViosK4tGdz3n2uD2vH30KPro0s9znjt50aIhPimEdenq1j8E8ARmkIR4vASgC6jVxARFSNKy+kZZXw2mfrLT8+OjKUaf/rS5P61b+at1qiYvX2J0SA6nVWE+ImDOIvvVta6mf6fFv3VokgM2piAotW7dPR1bMV5fD9QmAlAAAhoQMJCavR+YsXP1xLXqHD8qM/G9qDXl0bWO7nBJExfrnuL4RdIsJD+P6tfsTGmN/zu2xdMoVF1r/nhUhNL+TF4Qt1dDVRKbVcR0e6BF4C0HVkKeGRj1X3y9cnZjJuzm7Lj73x4hY8cGN7y/2cIDRcpv6FqETH1nV597kLTbd3Ot0kH7J9j5UIAk++9quOM/8lwD81hKNV4CUAAN0++oHwqITqfOmbX8ZbflzDuuF888+elvs5gRECMXX19ilEEHnw1m6Eh5n/J+rg4QKN0YjaaMqv25imZznpHaVUso6OdArMBAAgNOx6QkJPeYHC+sRM5iw/YPlRHz/bg1ZNrF/Le4KYel6p9S9EsIiMCLW0IVASAGFFTl4pT70+T0dXicC7OjrSLXBHoK4j0wmPfOtUX6Lj7f/mS1swpL/GYj/g2fQn6/5CnJaV678lARBWPPOfeRzOKLTajRt4SCnllxtSAjcBAOj28TDCIvdV9ls63v4b1g3n65c0T/1HRHk+hBCn1byx+SuxC4v98t9cEQAmzNjCuGlaKsZ+qpRao6MjbwjsBAAgLHwARsifqhkN/7ZaWwRO6dPnetCyscbBOjRMjvwJUQMJ27NMt23ZTL7XRM3tS8nl8VfnaukKsFS91tsCPwHoOnI74VEnFFZISSti9lJr+y0GXtaSe3TW+TdCPOv+Qohqi9uSYbpt6xayyVbUjMuluOeZaeQXluno7lGllF/fqhb4CQDAmR8/TFjE4SO//H76Tku1xaMiQvnyxfO0hHZUTF3Z9CdEDexOzic1s7JbwqundQtJuEXNDPtkGaviU3R09aNSqsZF63wteEaksIgrMELcbrdi1LQdlroa0r+t3qn/qFjPmX8hRLUoBY+/vdJSH62bywyAqL6V6w8w/FMtdXrSgaE6OvK24EkAuo7cSUT0a/NXpZCcan7npmHA0LvO0BdXuGz6E6Kmvpq8jYVrDppu37JZLG1aygyAqJ68gjLueWYaLpeWy/GeVkoFxB3qwZMAAHT76J2Pxm/LtdLFDRe14Kz2mt4cQkIhqo6evoSoJSb9toeXRqy11Mct13bF0Hhflwhuj706h/0HtVSOnKmUmqSjI18IqsPohmHUByyNuC/8rbOmaIDoWORfISGqJyu3jCf/t5KJ8/dY7mvQdWdqiEjUBj9O2cTPMxN1dJUHPKGjI18JqgQAuAEwvdh+fpf6XNmriZ5IIqJl3T+AKQW7D+SRlatlN7CoQlpWCfFbM4nflsmqP9LILbB+dr9ebCRXXdrBenAi6O3am81Tr/+qq7vHlFLm161sEGwJwEArjbW9/YeEyiU/AerneUl888t2NmzL0nKDpPC92284i4jwULvDEH6uqLicWx+ZRIGeWyPHKqV+1tGRLwVNAmAYRjgwwGz7Nk2juevqNnqCkan/gJOVW8YTb69k0m/Wp5+FfSLCQ3nj2cvtDkMEgAf/OYvEnebrTBxnL/CUjo58LWgSAOBKwPS232fu6ERYqIZBOzxKpv4DjMutGPDEPOIStfxjIGz0xL296dCmgd1hCD/34bdrmDhLy7q/C/i7UipfR2e+FkynAG6x0vjvuqr+RZqvXS7s8d7oTTL4B4F6sZG89rS8/YtTW7JmP/96Z6Gu7oYrpVbp6szXgikBuMJswzPb19VT+CcswrP+LwJGZm6pllsjhf2GvfgXGjeUBFxULSU1n7uemKLrvP9qYJiOjuwSFAmAYRixwNlm21+lc+e/CCjrNmfgKHfbHYaw6N7be/DM/X3sDkP4MUe5i78+/gvpWVrK8xfgmfp36ejMLkGRAAC9sfDfctUF5u8cPyo0DMJk7T/QyNR/4Ot7fmu++b+b7A5D+Lmn35jH2gRtp/SeUkoF/I7hYEkA+pptaBjwl54aZgDk7T8gpWaYv2xG2K9Ny3pM++ZOIiNk6U1UbdTEBL6ZsEFXdxOVUj/q6sxOwZIAmJ77O69zfRrXj7D2dCMEwiOt9SFs0fPMxnaHIEw676zmrJz6D1o2i7U7FOHH1iYc5MnXtBX72Qc8pqszu9X6BOCqXhqm/2XqP2BdcLam/R/Cp24fcBYrp95Pu1b17Q5F+LG9B3K55cGJlDm0LNWXALcqpSzdN+NPAj4BMAwjBjBdweeqCzQMAJIABKye3RpzZkc5Nx4owsJC+O/zVzD5y79SJ0a+70TVcvJKueG+n3Rt+gN4VCn1h67O/EHAJwBAR7MNw0IN+p2nIQEItbiEIGwTHhbCmGH9CA2Ryo3+7tb+Z7JlwWO88Ww/KbQpTslR7uLWRyaxPSlTV5efKaXG6urMX9TqBODM9nWpG2OxGGJIKIQEwx9j7dX33GYMf7q3DCp+6rIL27Jq2v1M/eYOunWSPRvi9B54cRZL1+zX1d0K4HldnfmTYCgF3Mlsw+YNNWzck+n/oPDyA+dx4TlNeeA/y0hOLbQ7nFotJMTgovNbM6j/mQy8titdZdAXNfDGh0sYP32zru5SgTuUUuW6OvQnwZAAmJ4BaKYjAZC6/0Hj6r6t2DzlduavTCFheyYJ27OI35pJRk6p1udER4XRtaMMagB1YyNo3aIerVvUpU2LerRpWZcrLmpPs8Z17A5NBKDRk/5g2CfLdXVXDvxVKXVYV4f+JhgSgA5mGzZtoCMBCIY/QnFEvTrh3HFdR+647lheue9QAXFbMvlh5k7mLD9g+RmhoSGsm/WgXFkrhEa/r9zLo6/M0dnlc4Fc5786gmHxuqHZhs0aati8ZwTDH6E4lQ6t6nLHdR2Z/Vl/vv9vP+rVsTbrU1jkYNnaZE3RCSESd2Zw+6OTKXdqK+v9g1LqC12d+atgGL1izDbUsgQgO8dqlfsHdWXTlNtp2tDa5VFzF+/SFJEQtdu+lFyuv3cCeQVlurrcQBAV+zmVYEgATC8WWk4A5O2/VmrfMpYvX7vUUh+/Lk7SFI0QtdehtAKuHjyOlNR8bV0CA5VSejf++KlgGMHMzwBY3QMgx/9qrduv6cjgAWeYbr89KRNHeUBfJCaErTKyirnm7nHsSc7R1WUhcKNSKkVXh/4uGEYwG2cAZPq/Nhs6pLul9umZ2iqUCVGr5OaXct3fx7Ntt7ZCPy7gzmCr9Hc6wZAAmJ4BsHwKQJYAarUeXRoREW7+78DhDEkAhKipwiIH1987gT+2aj2d96RSStuNQYEiGEYw0+fwIsLlDV6YFxkRyrldGplufzhDCg4JURMlpU5ueuBn1iYc1Nnte0qpr3V2GCiCIQEQwjbtWpi/irao2KExEiGCm6PcxW2PTtJZ4hdgEvCyzg4DiSQAQliwcWeW6bbt28gthEJUh9Pp5m9PTmXeEq2nZ1YC9ymllM5OA4kkAEKYlJVbxp6UAtPtO7WTBECI03E63QwZOp1p87fr7HY3tei4X1Wkjq0QJq38w/wmpDox4VLvXojTKC1zcucTU5i1cKfObjOBAUop89N3QUISACFMKC1z8a+P4ky379TOdAVrIWqFwiIHtzw4kcWr92ntFrhJKbVbZ6eBShIAIUx444t4tu/NNd1eEgAhqpadW8L1904gbuMhnd2WADcrpdbq7DSQSQIgRA2Nnr6TD3+0dt94925NNUUjRHBJTS/k2nvGkbgzQ2e3DuB2pdQSnZ0GOkkAhKimg+lFPPLWCuZavBLYMOD+O3pqikqI4LH3QC7X3D2WPcnmZ9cq4QIG18ZCP6cjCYCotXILHOSe5gaxPSkFrNuSQdyWDBauOUh+Ubnl515/RWfOaC9LAEIcL3FHOtf9fRyH0rVWyHQD/1BKTdXZabCQBEDUKr+uOMB3U3eQsD2LvQfNH+Gz4sn7etvyXCH8VVz8PgY8MJmsXO2n8p5QSo3T3WmwkARA1Ar5ReU8//4aRk3bYWscHds2YMBfOtsagxB+w+1iydJt3PLkbAo0zK6d5IXaWuK3uiQBEEHP5Vb0f+xX1mxKtzsUHh/Sm5AQuYNCCMqKmD0/kTteXEhpmfarsd9QSo3Q3WmwkQRABL0Pf9jsF4P/2V2a8uS9Mv0varnyMigtYMKs7dz32lKcLrfuJ7ynlBqmu9NgJAmACGppWSW88UW83WEQEx3O5C9vJyY63O5QhLCHswxKCsBVzrvfb+TVT9fjdmsvw/9/SqlXdHcarCQBEEFt7eZ0yhzapxdr7PNhAzi7i5z9F7WQ0wGlBeB0UFrm4qH/Lmf8HK8U4ntZKfWuNzoOVpIAiKC2PjHT7hC476/n8Y87zrM7DCF8y1XueeN3eo7apmYWM+jZBazborXAD3iO+j2plPpKd8fBThIAEdT2HbLnqN8RPc5qzhfDB9gagxA+5Sr3vPGXH6uxsT4xk0HPLeCg3jP+AE48V/pO0N1xbSDXAYugdm6XRrY9e+B13Vj+y32y7i9qB5cTinKgIPOEwf/neUn0u3+2Nwb/UuBWGfzNkxkAEdQu7O77dXfDgDeHXsHrz/TDkBN/Iti5nVBaCI6SEz6tFLz++Xre/vYPbzy1ALhFavtbIwmACGp9ujelTfM6pKRpf/uoVP26kYz7+FZuurqLT54nhG3cLs9U/0kDP0BhcTlD/r2E6Yv2e+PJWcAApZT5+7gFIEsAIsjFRIXx3ZuX++x507+7SwZ/EdzcLijOg/z0Sgf/fYcKuPS+Wd4a/FOBK2Tw10MSABH0+l/ShqFDuvvkWQuW7/HJc4TwObcLSvIhPwMcxZV+yfINh+lz9ww27cz2RgR7gcuUUone6Lw2kgRA1AojXryIyR9cTZMGUV59zjcTNlBa5vTqM4TwqfIyKMr2vPGXFQGVF+/5buoOrn54Lhk52i/0AdiKZ/CXDFsjQyntlZh8yjCMUiDSTNuS328mKiLU/MPDIyG6rvn2wucyckqZ+vs+1idmsD4xky27c7SXIv3+/Zu5/86eWvsUwqeU2/OWX1bsefM/hcLicp56ZxU/zNzlrWjWA9crpbK89YDaShIASQBqtTKHi027sonfmskPM3dpuTOg59ktSPj1YQ3RCeFjTodn4HeUUtWb/vHiEjO4++XF7E7O91ZE84E7lFL2FvQIUpIASAIgKrjdig9+2MwbX8RbLh+8dNJ99OvbTlNkQniRUp7NfI4iz1n+anC7Fe+P2cTrn8dT7tR+mc8RI4GXlFL21/IOUrIHQIgKISEG/7y/B+vGD6RuHWvFe2Ys2KEpKiG8xOWEkjzIT/P8WM3B/1BGMdc++isvfxznrcG/DLhfKfW8DP7eJQmAECfp0bURI168yFIfSftzNEUjhE4Vb/uFWVCQ4Vnjr8Es8IzF++nx1yksWnfIWwGmAVcqpcZ46wHiGEkAhKjEQ7d1Y8BlbU2335MsCYDwI26X52KevHQozvWs9ddASZmTJ95eyaDnFpCVW3b6BuZsAHorpVZ76wHiRJIACFGFfz9sfie/JADCdkpBeelxR/gKPbv7a2jTzmx6/206X07a5oUgj5qI55hfijcfIk4kpYCFqELPbo0JCTFwu2u+UbaouJz0rCKaNa7jhciEqIJye87tl5d6ruG1uMn7kwmJ/HPkOsubYk9BAa8rpd721gNE1SQBEKIKdaLDOLNDfbbuyTXVfk9yriQAwvvcLs+AX15a46n9qmTklPKP15cyd/kBLf1VoRD4u1JqhjcfIqoWDEsAplNTpyuwj0AK7+vQ2vwxz7SUNM8/ytU4Ty1EjbgqbuAryPRM75fkaxv8x83ZzTm3/uLtwX8vcLEM/vYKhhmAIiDGTMO07DJiW1v4IzCxniYCy9Ykc2//AG2bhHvuRzcMCI+CsEhP7QgjGPJu4XNOR8WbfpnnCl7Ndifn8/jbK1m45qD2vk+yBPirVPazXzAkAAWAqUvfD2WWckZrC1O0bkkAgll2Xhn7DpkvQNapTT3PT44WWqm4OS003JMIhEVCWISGSEVwUlDuODa976UXjnKnm/dGb2L4twmUlnn92P0XwLNKKbkwww8ESwJgSmqWxUsrZAYgqK3dbL4scMN6kTSoW8Xg7ir3fFDomQ0Ii6hICKIgRGYHarUjO/fLy8BZankT3+msSDjMo2+tML3PpQbygEeVUhO9/SBRfbU6ATiUaTUBUJ4Pw7DWj/A7jnI3L39s/srxTm2quXdAuY+94ZF33OxABIRGyN+tYOd2eab2XQ5wHkkMvS8nv4x/fRTHd1O3ezvHAFgJ3KOU2u/1J4kaCYYEoNBsQ8szAOD5Bg4Nhj9Gcbz/frXB0p3mHc1uHnSdNAiEhkNYuCcZCIuAEAt3Vwh7KeX5f+t0HPvRhlnECXOTGPr+GtKzS7z9KBcwHBgmJX39UzCMXKlmG1qeAQDPN7EkAEFl4vw9vPv9Rkt9nN2pgZ5gjiYExZ5fh4RWJAPhFbME1u4sEF5k09t9VfakFPD48BX8ttrrm/wAkvG89a/wxcOEOcEwcpm+dUXLDEB5GUSaOoQg/ExGTilP/m8lk3/ba6kfw4B7b+6iKaqTuF3gLoHykmMPO5IQhIR5EgJJSH3vyNv9kcHeprf7ypQ73Xzww2aGfZ1ASZlP9t5NBh5RSnl9Y4GwJhj+pTCdAOxPK7b+dLfL8yFTs36n3OmmqOTU/+DtTs4nLjGDuMQMZi1JJjPXelJ47UWtOaNtPcv9VItSnopvzuPrsxueJCD0uIQgJEz+juridnuO4bldJ07p+6G5yw/w0oi1vtjkB54j2c8qpUb54mHCulqdAOxOKWLPoSI6tbJYrc3pgIhoa30ILVZvTOeHmTtZvzWTzbuycZT7/i3s8TvP9vkzT6SOWzo4bp3XCDkpKQg99oFsNjxKqYrE3nkswT/+5z7YNWfVui0Z/GvkOpasN71CWlMJwGCllNyDHUCCIQFIwrPZxNTrzfTlqTx/V2drEZSVeAq9yI5t25SWuXj98/WMGLvFVO1+Xdo0r8PNf2ln2/NPSbk9yWplFeOOTwZCQo/NGBxNEILM0YH9pMHd5fSbqXszdifn8+qncZaXsWpAASOBV5RSekoRCp8J+ARAKeUwDCMJ6GqmvZYEQLk9RV5kL4AtlIIbnpzH4jifve1U6eHbzyQ0JAATwSMDYFVCQj01CoxKPo5+3jju8z74M1DuirdxdexI7sm/puJrlLtigD/y3+n/b/E1kZ5dwltfJ/DNL9spd/osgUkD7lNKzffVA4VeAZ8AVFiGyQRg1eZsMvMcNKlvsSKbowQioqTMqw0+Hr/FLwb/9i1jeXqw3dP/XnK6BOFkhlGRBFR8HEkITvjxyO9x3NdUMZCf8OvAfUPXrajEyYc/bub9MZsoLPbpPoRpwGNKKfPVsoTtgiUBWAQ8ZKahy62YtfIw999gcdpWKc9SQJTc/uZLqZnFvPKJ+YI9ukSEhzDpg6tpWC/S7lD8w9FBW3iD0+Xmu6k7+O9XGzic6fXz/MdLAZ6SS3yCQ7C8ri620nj68kN6onCUaLuRS1TPmk3pvqhfflrvP9+XPt1NXUkhRI1MWbiXc26dwuPDV/py8HcDnwBny+AfPIJiBkApddgwjK2AqfnXBXEZFJe6iInSsNmppADqNAjOjVN+KGGb/ReK3XZ1B565+xy7wxBB7ve1h3jts/Ws2eTzWfcEPOf61/v6wcK7gmUGAOB3sw1LylxMWJiiJwqloDhfpj99ZO9B87f16dClXX2+f6ufrTGI4OVyKybO30PvwdO55pG5vh78i4AXgQtl8A9OwZQATLXS+M3vt1GiayrZ7ZIkwEfO7Kip5K4JV17YklVjb6Z+rFzpK/QqLnXy+c9b6XrzJP72z0XEb830dQhzgHOUUh9KHf/gFRRLABWW4qk/bWo338GMUj6alMQrQ0wdJvgzVzkU5UJMPVkO8KJeZzW25blDh3TnvaF9CAsNphxa2C0zt5TPf97KZz9t1VKV0oRUPNX8JtvxcOFbhgqit1TDMN4GXjXbvn6dcJImXktjq0cCTwwKout6Lm4R2uUWOOh800SycstO/8UaREeG8d2bl3P3DWf45HmidtiTUsCIsZsZPX0nxaU+qdd/MgV8DbyslMqzIwDhe8GWAHQDtlvp47k7z2Dk0+dqiug4kdEQESPVAr1g8m97ufMl01tAauS3rwZw7cWtffIsEfzit2by/phN/LJgLy77KlhuwbPJb7VdAQh7BNX8ZUUd6nVW+vhi2l72pmq4JOhkZSVQmOM5Kii0uuO6jtw/SNPSzWms3Sx1T4R181elcPXDc+k9eDoT5++xa/DPAoYCvWTwr52CagYAwDCMIcCPVvq4+9o2jH+jt6aIKhES6pkRCIuQyoEaff3Ldl78cK1XK6K1ahrD/vl/k7V/UWMZOaWMnb2LUVN3+Op2vqqU4Knf/55M99duwZgAhOG5IbCT+T5g2v/6MvCylvoCq0poOIRHeJIB2Sxo2d6DBUycv4f1iZnEb81k3yH9xwQnvn8Vd15n+q+XqEVcbsX8lSmMmraDWUuTfVmnv9JwgNHAf5RSmqqfiUAWdAkAgGEYj+DZ0GJabHQYK7/sR48zfHSvOwBGxcUqxrELVuSaVkuy8srYsCOH+G3ZjJ+/jy1J1l94Lju/BcvH3KQhOhGsdifnM3rGTsbM2MmhDC8sKdbcTDwb/LbZHYjwH8GaAETguSa4jZV+2reIIe7bK2jaQOq7BwNHuZs3R2/nvfG7LK+5Jky6lZ7d7DmCKPxTcamTKQv3MWraDpbFp/pLGZDVwD+VUivsDkT4n6BMAAAMw3gG+NhqP5f1aMzvH11KRLis+QaLVVuyuea5lZYKP732yPkMe/ICjVGJQBWXmMGoqTv46dck8ot8eiPfqewAXlFKTbM7EOG/gnlU+wrPN4ElKzZl8fiHGzWEI/zFJd0bMfzhsyz1sTs5X1M0IhClpBUxcuwWzr19Cn3unsHXv2z3l8E/FXgU6C6DvzidYKoEeAKllMMwjKeABVb7+n7Ofs7pWJfn7+qsITLhD5674wymLDnEqi3ZptrvPiCbp2ubxKQcpi/az/TF+1if6PPSvKdTALwHjFBK+cWmA+H/gnYJ4AjDMCYCd1rtJyTE4MMnu/PcnVIBLljMX5fO9S+sMtW2Yb1IspcP0RyR8Cdut2L1pnSmL9rH9MX7/XXWJxP4FPhcKWX/1ZgioNSGBKA1nuqAsTr6e/Cm9nzx0aRdOwAABtFJREFU/HmyJyAI5BSU0+iGOabbZy0bQqP6skE0mJQ5XCxce4jpi/Yxa2kyaVl+W7hrD/AhMFop5bdBCv8WtEsARyilDhqG8SrwiY7+Rs3ez84DhUwZ3kdOBwS4hnXD6dymDrtTiky1T0rJp1H9ppqjEr6WW+Bg7vIDTF+8j19XpHi1kJQG8Xim+qfILX3CqqBPAACUUp8ahnE1MFBHf8s3ZtHn4aXMfPcizu3kyzoBQreubWNNJwApaUVceI4kAIHGUe5m3ZZ0lq4/zOK4QyyLP2x3gZ7q+A1P5T7fXHohaoVakQBUuB/YAHTQ0dm+w8Vc8tgyxr/Rm1sua6GjS2GDbfvMVwqsHys3PAaCkjInqzems3R9KsviD7NmczqlFo6A+pATmIRn4JejSEK7WpMAKKVyDMO4C1gBhOvos7DEyaBX1zCkf1uGPXQ27ZpH6+hW+EhmnsPSxU9NGkRpjEboUlBUzso/0lgWn8rS+MPEbckIhDf84xUBo/Ds6N9vdzAieNWaBABAKbXOMIwX0VAg6Fif8OO8A0z8/SBP/7UTrw7pRsO6WvIL4WVrt5o7AnhEk4aSAPiD/amFJGzLYkXCYZbGp5KwLcvOq3WtyODYjn5rfzmFqIagPwVQGcMwPgKe9UbfDWLDefXerjx9eyeiIuRyH3/ldCn6PrKUDTvN38rWuEEk53ZuxLldGtG9c8OjP9atIwmgNxSXOtmyO4eNO7LYtCubjTuy2bQzm7xCh92hWeHGU6tkFDBDKRXQ/zEisNTWBMAAxgF3e+sZbZtF89ZDZzH4mjZEypFBvzNszA7eGKX/XhTDgPYt61YkBJ6k4NwujejWoT7hYfL3oLqSUwvZuDP7hMF+94F83IH5Zl+ZvXhu5hujlDpgdzCidqqVCQCAYRjhwCygvzefExsdxvV9mzHw8pbceHELWR7wA/PWpjHwlbU4yn23LhweFkK3DvWPJgPtWsTStkUd2lb8GBNVq1bjKC1zkXy4kP2HCtmfWvFxqIC9BwvZsjub3IKgfBEuBaYA3wOLVW39x1f4jVqbAAAYhlEHz/Tbxb54XliowRU9mzDo8pYMvLwlbZvJpkFfyi9y8uLnW/h21j67Q/mTxg0iadvckwy0axlL2+bHkoN2LWNp1TQmoGYQcgscJB8d2AvZn1pw3M8LSc8u8Zfb8nwhHs8U/09KKfNrTkJoVqsTADiaBEzByzMBlTm7Q106tIyhZeMoWjWJ+tOPLRpFERZq+DqsoLI7pYi47TnEbcvhlyWHOJAemEXTQkIMmjWKon5shOejbgT16kRQPzacehWfqxcbfvT3PZ8Lp14dz+dDQ0JwK4VSCqWo+FAoOOFzbrdCcezXpWUucgvKyC1wkFvgIK/QUfHzMvIKHEc/f+z3ysgrKMfpCqhd996QjWeZ8Xs5wif8Va1PAODocsAPwGC7YxFCBCwXsBDPFP8MpVSZzfEIcUqSAFSo2Bj4EfCM3bEIIQJGMTAfmA7MluN7IpBIAnASwzCew1NrW3brCSEqk4lnA/F0YIFcxiMClSQAlTAMoy+eEpzt7I5FCOEX9gAz8Az6K+UiHhEMJAGogmEYjYAxwM02hyKEsMcGPAP+dKXUZruDEUI3SQBOoWJfwLPAcKCOzeEIIbyrGFgFzMSziS/Z5niE8CpJAKrBMIw2eDYI3m53LEIIbXLwXA62vOIjXilVbm9IQviOJAA1YBhGfzyXdXSxOxYhRI0d5NhgvxzYItX4RG0mCUANGYYRCTwJvAi0tDkc4V2H8VzW0sruQIQpO4FlVAz4Sqm9NscjhF+RBMCkikTgQeCfQHubwxH6zQGGKKVyDMNoDvQ66aODjbGJPysGEvGs4R8Z8NPtDUkI/yYJgEUVVQSHAE8B59scjrDODbwB/O9U08OGYTTEkwicz7GkoAsQOAX7A5MD2I5nsN9S8ZEI7FVK1fr6w0LUhCQAGhmG0R24F7gHmTYORBuAF5RSS8w0NgwjFuiJJyk4EzgD6Ixnhqh2XfdnnRPYzbEB/shgv1sp5bQzMCGChSQAXmAYRghwNZ5TA1fjGQSE/9oM/AfPeW/t3xCGYYThWTLoXPFxxnE/7whE6n5mgHDi2WeRCqQA2zg22O+QWvpCeJckAD5gGEZb4KqKj3543gjlmj97ZQDzgKl4znzb8o1QkSy25Vhi0BJoWslHYwJnFuHIwH4Iz+Be1Y8ZMm0vhH0kAbCBYRgxQLeTPloCsUDdio/Yig9ZU7Ymh2NvmanALjwDf1wgDT4VRakaUnly0BTP35VIIKrix+N/XtnnjvxcAaVAyUkfNflcAcf+fA/hGdjlHxYh/Nz/A8vzSZeLeYELAAAAAElFTkSuQmCC;" vertex="1" parent="1">
          <mxGeometry x="49" y="129" width="314" height="314" as="geometry" />
        </mxCell>
        <mxCell id="F2KbXpKkZdYXq5yLTn8Y-2" value="" style="shape=image;verticalLabelPosition=bottom;labelBackgroundColor=default;verticalAlign=top;aspect=fixed;imageAspect=0;image=data:image/png,iVBORw0KGgoAAAANSUhEUgAAAGQAAABFCAMAAACLzLP1AAAC+lBMVEUAAAB7eHqTkZOJh4menZ+yr7NWU1R1c3VOSUqkpKZ5dniNi41xbW9aVld+fH1nZGSZmJqhoKK4tbizsLRbWFiMioyWlJZuaG1fXF19e32gnqCFg4WPjpGxrLFPS0udm52Vk5W4trl8eXtwbG2qqKq5tbhoZWeLiYt8eHrT0dSLiouZmJleWllCPUGBf4JmYWOTkZReWlufnZ+Qj5FzcXKkoqRjXmC4s7iup67BvMGspqygn6CioaO6tbr5+PqnpadIREZWU1NYU1haVFpUTlVbVltZUFhpXmdWUFdSS1FMR01PS0hDOD1pYmljXWNqY2pSUFNvZW1sZWtmW2RhW2J2a3RvaW9xZm9OSkQ1LzWTiJFkXmReWF9UUE94bXdqX2mckZuUiZOXjJVzaHJmX2dgW2BIQkdhWGBGP0VyaHBRTlNQTExNSEdHPUKBdn9dV15eWV1YVltLREpDOkBVU1ZVU1J/c39taG5saGxTTEuooah5cXlybHJVT1ZVT1NNTE9tYmxsYWpTUVQ5MTd8cXt7b3lMSkk+Nz5/dH1PSE87MziNgY2MgYqHfIaFeoR2dHdeVlxSTk5ORk1FPD92cHZnYmZQSlCRho+NhY6Ng4yJg4qKfoiDeIF+cnxwbHBcVlxYVVdbVlNPTFFQTlB9en5wanFPSUmYj5eQiJFmXWhjW2BgV15bU1pYVFNpZWleU1tjWlpcV1ZcU1JMR0pLRkShmqGblZuYk5iTjJOIhol+fX57dXt6dHt0b3V3bnVzcnRnX2JjWWFbUVqYjJiEfoOBgIJ4d3prY2dXTk1LQkSln6Wim6KHgIeAfoB2a3Zxb3FcVVxUTFKupq6rpKuemJ6CeoVmXGBaVVpXUVZZUVBJR0i3srennKaKhoyBfIJoZGhfVVVXTlVQTVJDPENANjuglJ+DgYR9d31TVFteWlhNSE6xrLGqqKuajpqOjI6FhIZhV1e8tb2koqWkmaOamZqLioxWU1dYT1c0LDKTkZOQjpCKiYlNS06gnp9mQh/tAAAAQnRSTlMADQgVQjCH8tGvH9rMw355b09INzQj9vT08vHx7eTjybWuq5SSbGlRPCb29Ojoz76nooyLin7y7Ozr5t/Y1sfGtEUHZ6GgAAAOaElEQVRYw+zVWYgScRwH8E566KWL6KSDIiqKKKKbwFFnJxqHGXdmSDfvzfUhtQMVtU3TJdebTc27HhSt3YqIXK/c1m0Ltna3u+gkuqCTLroI+lsQ0X099nuch/nM9/f//f7T53/90xow8vHbGbPnTRvw2bN+Ex69ffT8+fPXY4b2+yfGi3y++3Hn40dvxiyaPn3gh2cDxzxKvwi/OajvOph5PXPB1L8T+s65czSfv5vo7jzxqPX50wdPny8HT6e2vskniodKR652nenKXn2tHz/sb1LkEkcLnkKxeFfpzL4DxrvXb5cMm/KoM+Ep+nqEXOLIWf2Zg5njx+8/6P+nxoTHhbt37xaLBkPxrjPb1aU/25q787i7rbfN4zNIe9rX15VlxdTxrrPH9Q/uD+z3R60afPTatYTNIPD5DFZNRHzlysGrBR3H79+ri/f2GsiYqc6yphGhwqnM8S79/fv3p/5+0yZ3Hjly59pdH0bgRoPG6hJfeZY5Eq9mqdW7r+soSkpHHC7zy6ZGs+GqJHP2YNeDy5cvT/pNY1AnQI4UjFoMFNVjcAdToky4VM1mQyw+SmC0QOMQiUKkVEGeSEsyGdCyM2cuL/sto9fz4sQR1xFPEjULYViIS622mDVRMKIMZhUEEFRKxpyi27d5TquicCLIk6QOHgdN00/5DWP00TtXr4ZPXPMlMRjmcmGUFggEOIcj4zOYmxgyFNdKyaj44LPbPF7IFQ4G01lJ5iCoVOvAXyX6HW3L54Lp4AkfhclgWAaQ5KEGpQav3lHLRJCXMowiTDQZvHLltigl5vF423licSpztjUtTmeH/yIyVtfbnQNBikkMheFdu3aZMKrgCm13YvKTAQTZxMEwmZnGbY7tYkmHBBjAEQNGks2mf1HpN6PNcyd39WrCkKSAIQMIQRkLruD2oKCGWbc+wKzBMBSnTT0aZTQilkgAAyAASrJv0sFwdsAvIO/aevO5XDBnoCgtCgsrSSrtUoYcjqiwcevNNQBBURNON0SjLpdT/AEJhpyhEA8w6fCJ4M+VIW97D10Lh08c8VEEAZvhysFzUSLZ09AQo5vXWG7dDLDlcjAMtCbicrpcShdPIuaFIm6bMiRplYhD4fCdoT+9rjrz186dO2fTSCkCQzFUCHN37wbvxJNaLYe50mKvawKFlNvNGucJt81AK2zO7ZIQMJQRiUgk4TnC4fDcHyOtjzu7z52LagwGMkmBTSQwvrwGlAxFZRxmnd1iX7l2g92+tondLlUqGxpIBY6XlNudbpvVanOmHoIozlB4zg+NcbnuSg5lrEHQY0waKQqXyU+2tKhOAmcHY8VWi8V+a+XKWyvX1jXdaFcoSS6hMHHNZHS7O2qzCpTbUx1iMAPp9I8aNrjzaCJRMXqkdA9FGY3ULi/7Y+2Tq6BA3apXllsrN6xdu2b9Gia7XWGA5Vwh3M5V2CJRt4YUmqwhUYdYnOWlv7+U83NHPQWr0laiaQI9JDXRBmn7SWZVFbvqJXsHf++OSyCJ5da29afYLd6WFu8+L0YLuTKZl30SXDtKjVUKmzQdDzs6OiRZ/ffWZeKjhMcXsypLBBdWkFES893VMlc0IZsqSRinmtZv2Gpftcq+YX09S+3X6fyHDxMKM5jw5rJXqgCI2+0WCNwdInCnnb1y+n7/b+Z43dkWP1SM2aRCOdzgjincbiOjqamRWVVml9nMU00HAo12yyrL1jUBBoTFKYrQxQkz2KPqlrKZtsY0GlfEqWmIpG4/u/JMf/r0/SHf6NnSF/k2HWWICYj2ZjxqxaMRQy2y4l4jcxO7XAZZoMN7A5ZVlSgH6ln+ePzQoZIRQ8Eatctb5GaFIBZTuiIRt9vx8NkVPUBOn9GP/+o6edOdb7u+1+BTHGuGozYaF4BbZFNTFaRS7YPK7JZq7FjjVmBY7FvXIBfVWqPPVySFGEDkcvkOOddE4z3WGLgDHA4JUMDvRa/vWvzl9HYf9Wj3xj26vTJ+KUriOI0y2PUQeAGbibBfllFZ1Xr7qleVKDeR+npor6FQJHGzrLq2hrVDXVPLRzECxHFHHA4HTyICJ3P8uF6/8IvpTXh6tVqj0X8dNhaKCprGIPbFesh7chOCIPUXd/r5HPnJulWV2rqFURXgGA0lBQ1z5DWsdetU61S1qhoZriAbKgpPLAKVynTpT4//3Mh3++J+7aG4jo/qfCWjEZNVMwKnzje3MJFG5NQNtvcwBz15zwIIcPSIV71azSeSuIlbo9oBrasUBLE4hEJKWjVRh0TyAWk9e+b05c9meWxnIq7Vxo2UH92b9BVIAq2+gDSeP7avHkGYm2683Hd+96nATfurCmK319Wz9uxUo5TZzFWxWBBj3QUGgwFB7ahWQZYEMQfYFdGHOn358rDPf7igWUkKQ/18omRoIIWw/FTTbqL5BlLPrGIz9jWfr63bCtbkQxLLzU0Xd0LewzgOc3dAAIGAUVFqUQKXCgRKR4jX8VAkymTOXH7yZOCn0fK0tfX2Ggl+bS1HWxIIFEJ4H1ImyiAGMCBItfu8egNAXr0CBBiv+j179nt3H8PhZhbEYn0gNm5kMFRyDk4LBGBnnGlxR0rUevz0k09K3xxAKJ2Oz2JcqNaSpJQWws3N9OFGgFQxQLdVtee9IMnWWbPq1qwPMPbsBIhazTl2rIJA0EcEHIuqGsNJAbiQI0Hwq3z4MNUKskz6iLz1xHXH/JxaFaNKjSZJKY4LuXIT3gIIJpsBjJpqTg2yedSIj5/0vh1zjW0pDOP4mSWMuCauXxDEJYS4xEfhXLrTbjvOtmK0XSPrqTo9rO3OWNHVjqzUdTWba6wXGhnbehMhwYhQCUIitu6Dy4jYIrEI48M+eN7TKWME4ZtftmXJlv76vM/7/t+nZ+YyX9jXUWWpb75VTxF1hNgtdlutOEi065jlRSsq4fDDACCzZstbWZL+/mrZk/qqllaapB2aldtWrN+ep2nhctRK5QO8FTnWrWOYaxYmDUuxOBwOWzpCt5q1UIfD8eqV1dpC4FqOM0DsFVYWbtq4f9/eI4ePrlnzcMtg+P9RL0+dfMJB+2iSJIknm1dCKuXcxzVMOZw51E6qSqtWM0zZDOwLUx91dIR9oeZmNc6TPM+/ekWpOTVjMOj1MC0VFlbCTt54fM+RtWvOv0aSCXfvljG4gqRB4tDm5W0uy8vR4CJn9dcqy6EOsGjBoh6HfcUQruMpEOIsZK3f3y5L1BogMxMsRUX3Cisrd206sffw0aRk0KWbGtpBkgqQnFueU5y3fnmOGsctkl/JyxIKerJOrZ6Cfc2iUNfTp11dHKXsdPv9ILGiapn8fL1eX1FRkVtUBJrKjfv2XngrS25elldKQTronByiGMYtjdbqpSQ+UF4u4hRFVRUXg2Rm3zx9FEKSEOW22VS1fsnazTAagyH/Wn7mrQq9AepZvwKas/H4kYcgWTLoQCOZxHG/rM6rOX2r3oJ7RTHA+wO8JHqtVktxsZZpTMP6MC8UiUR8YUJlMhptKj9NcFCI+mxTVX4moEe9WX+vcOvjYxcmo0Q59UTZK9GoJVGDNgEtsayzBySsJIIEbeFBWF/SHyGJzxs1VZtMRhWPG1auNBDPmprO5mfqK7br4Qc0p3LjnXcYMPZUDU8jFDRDwXVUU4fjtIMNOF1Of4AFS7cXbf+h2DfMAwfgqobBwmSKkprLV1aefaZQXG+q1+fm5m6vAEvuqk1nFsiSS2XdEAk4aLhzBJdXY2mFl2adUZU/gCSSKGrVBs3MbyVpoa6wz9cQBUlJyXMjz2yD7KYUzz48U6y7lrkKYmPVqu25uy4MwIDZbw5wBN4bcYSlkSFKgUBPsMfpBEmpxFL1+YZD388F47o6fJHE7ers7OySkg2d+PLlJ/NgpR+Q5DO8KT8X0qmoaP3jSRhi2sXLGm0rTiML1cIxFK3T6TyeoBB0mgPlulJdaVX9I8NQ7DumhkK+SFyWbMguMalokiDa5Y0KgXeu6ey5c01V6kO9HXx/ubEY/oQqoQgLUa40A0FByHKZzR6PR9fQUc9w2Pek3+p4GrH3SrJ3Pj9YSzqUkgNJFC2U4gGKcHzz5yH71BPCQScrofByZWe0zSUIQizocskSSA9uDNYP05t9HllSgiQlNreSV/IkAr1dhQKtP0iSjCxDHwUR3rDHY1ZFXUEhSwDAkmXXhUP3h2P9kR5K2INyJdXZcNsYD7qVIHHIEgBZqJQEq7GyvIQkDQ3mYDAWiwkFiCyE3Z4IjcD6Z1i1SUg2HlqPKmnneVpOD4JooRCNc7HPNEo8y8oSnTlLAEmBTNIRzAJH/yz9uOM2kryA3fX8uU2lcjud4EE3HaoFTCeHYNgsTKZMDLBSSiIISJBCGIb9kB2rk5LsajiPRkgxoLa2VkkjR11dsfarTXnA6mRFJCnXyduqoCBWYO91xCZiP2agMfb5nJjkDLP1ON1ut59shVJwQqEeiaV4WYdOHaDTmV0uIQssSeC32FTsJww3G6tfoD0M0QIOwO2EJWtnRREsrZsHfDWi1vQgCcvKkiC8/5RECKdhP2NotHr3i16JEUkOIgnPiixI+JN9nkF0tkspiSBAu+GrAPbAhgxw/JS0jGxYMNlhkyXw7UfpjcMt2PeiGy9RXyoBSTwet9tjsYmjf+XJ2MQSCGJw9Eo6VSj0vISDtPQ9w0NEUUpKILN0kQQ4zGYTKH6JIc0bbttsUVs0qkKAxM9aqQf8jW876IW+g8Rut8cjDYlE3G4clob9MvPNbW22qKutLYocMFp0W+p0XGq+SQ2qDSDxJMCRSEQSnrhuMvZbjDca20DicnWqlCRbp9FYqO/DKK2mVBeAOLSb4754MGP+bz+4HJGRkSF52gLmQKnHy8DM219QDNI1eOEiMYfnzBmI/TkDEYsWjhkyBuuPcZ6w2esdBiX8Q9KnTx+dnob95z9/i08UIYD2rIUI7wAAAABJRU5ErkJggg==;rotation=5;" vertex="1" parent="1">
          <mxGeometry x="26" y="27" width="382.61" height="264" as="geometry" />
        </mxCell>
        <mxCell id="F2KbXpKkZdYXq5yLTn8Y-5" value="" style="shape=image;verticalLabelPosition=bottom;labelBackgroundColor=default;verticalAlign=top;aspect=fixed;imageAspect=0;image=data:image/png,iVBORw0KGgoAAAANSUhEUgAAAgAAAAIACAYAAAD0eNT6AAAACXBIWXMAAA7DAAAOwwHHb6hkAAAAGXRFWHRTb2Z0d2FyZQB3d3cuaW5rc2NhcGUub3Jnm+48GgAAIABJREFUeJzsnXecHMWZ93/VsznMKpBtsASYJAMGhMFksDHBAcxZBJMlgY19vHcHxuF9796T/fp8d4BtbOMAJkcJ2YDhDAaMwSZHg4REBklEaWcVNu+ErveP3dmdnZ3pUF3dXT3z+94Hn2am6nlqZrvr99RT1VUAIYQQQgghhBBCCCGEEEIIIYQQQgghhBBCCCGEEEIIIYQQQgghhBBCCCGEEEIIIYQQQgghhBBCCCGEEEIIIYQQQgghhBBCCCGEEEIIIYQQQgghhBBCCCGEEEIIIYQQQgghhBBCCCGEEEIIIYQQQgghhBBCCCGEEEIIIYQQQgghhBBCCCGEEEIIIYQQQgghhBBCCCGEEEIIIYQQQgghhBBCCCGEEEIIIYQQQgghhBBCCCGEEEIIIYQQQgghhBBCCCGEEEIIIYQQQgghhBBCCCGEEEIIIYQQQgghhBBCCCGEEEIIIYQQQgghhBBCCCGEEEIIIYQQQgghhBBCCCGEEEIIIYQQQgghhBBCCCGEEEIIIYQQQgghhBBCCCGEEEIIIYQQQgghhBBCCCGEEEIIIYQQQgghhESBiLsBhBB1pITAa+fOxHB+Jiw5E8KaCVvOhIVpsO1mAIAQXRDCgpQNEOgcrShaIdACAChgGEIOjb6PPgiRh5Q2hNw0+p41AoGNkHYPLNEDW/Qg19CDfa7sEQIyhq9NCNEAAwBCDEWuWDADeXsWUmI2JGZByFmQ+BggZgIo/a/kPvapx8HkW0KgBxI9AHrG/r0akG9DYBVssQoN1iox5+r1gbwQQkKBAQAhMSKXnTcdGN4DljUH0t4JwpoFKWcDmAUg7dNaqMUDsAk2VkFgFYBVgHwNIvUSCoVlYq/rNkbWCkLIJBgAEBIB8qFFDZi5ZjtYYg6k3AcCu0FiDoBdoeU+NFb8q/gae1PgA0i5ArBWAvZzEFiBTrFCzL5uOMIWElKXMAAgJATksvnbQ4gDYckDYIv9AbkbgKaQvEVSRQkn8a9OFhArAPtJSOtxiPxjYs8b39bfOELqGwYAhAREPrSoAVu8tzNQOBDAQZA4BMDHRj+MpAWhFldGTfyrFf0QkM8C4lHAegzt7c+Ij/9iJFD7CKlzGAAQ4hMpF1lYsWofwDoaAp+BxL4A2ioXDr01oRZXRq/4V2IAwDOAeBC2+BP22u55IRbZ3h0QQhgAEOIB+fIZM2E3HgEpPwvgCwC2ca8UeqtCLR6I8AOA8goZCPEQpPwz8oW7xdybPvBrgZB6gwEAIRWQcpGFlav3hS2OgcAxAOYCsLwbCK1p6g5qZ/TvXFmiAIhnAfteCNyLPbd/ltkBQqbCAICQEuSyhfsgZZ8Bia/Ayyi/ohG9bdLipH7EvxIZALdDyBux5w2PcfMiQkZhAEDqHrninDmwC/MgcDqA7YMZ09MmrU7qW/zLeRcCtwNyKYMBUu8wACB1SYnonwpgR32GtVnS46Cm5/3LKvutL/EOLNzBYIDUKwwASN0g/37WNDRZJ0LimwD20O9Au8XgDjj694YtX4XAtUDqGrH3td0BrRGSCBgAkJpHLlu4Dyz7XAicDonWcJyEYjWYE4q/iv8RAHcB8krsdcODzAqQWoYBAKlJ5IqztoJMnQnIhdCZ4q/oLFTrak4o/jr8vwEpbkZBXC0+de07AT0RYhwMAEhNIVcuOAS2/U+A+CKAxmicGuaA8/6a/cscIO+ClD8T+9z0SECPhBgDAwCSeEZ35nvn8xDye5D4dLTODXTA0b9G/+WFxPMAfoZNq28Rhz+cD9gCQmKFAQBJLHLFNzqA4a9C4kIAO0XfAAOdUPw1+ncoJLEKAr+B3fIbMffKTQFbQ0gsMAAgiUMuX7glYJ8HgfMBzIinEQY6ofhr9O8o/qX0QsjrkLIvEXve/G6gdhESMQwASGKQL581C7b4N0hxGkI7WtdrYwxzwHl/zf49BwBFshC4Acj/UOx9y2qldhESMQwAiPHIFxd+FA32RZD4GoDmuNtD8Q/QgNoU/1JygLwWKfED8ckb3vPcLkJigAEAMRb5/Nmbo0lcCIH/Fdrz+35h6l/dee2LfylZQF4HKRfxZEJiKgwAiHHIl8+YCdl4EWx5PoC2uNszDsVf3Xl9iX8pgxDyKmTzPxL737pW2QohIcAAgBiDXPGNDsiR70DgnyFlR9ztmQJT/+oNUG5rosW/tH4fIH6KRvtiseeNAwEtEqIFBgAkdqSEwMoFXwFwKYDtIA3cfZXir96A+h39V6r/PoT8Pvbe4SohFtkBLRMSCAYAJFbkS+fsC6twGaQ4YPQNin9YVZSg+Gv0P+nFc4D4ZzH3hkcDeiBEGQYAJBbkq2d8BPnG/wRwGkqvQ9MCAM77qzun+LsZkwB+B6twER8dJHHAAIBEinz23Da0FM6HwL8CmDzPT/HXXlwZir9G/67GBgHxC7QO/VDMWdof0DMhnmEAQCJDrph/DCB+DeBjUz80TPwB81L/nPfX7N+YAKDIKgh8Xexz430BvRPiCQYAJHTksvOmIzXyX4A4t3IBin9YVZSg+Gv0r/R3XopUwzfF3td2B2wJIY4wACChIlcsmAfglwA2r17IsACAqX915xT/YMYmqmwA8F2x741XBmwRIVVhAEBCQb4yfxsUxC8BHO9ckOKvu7gyFH+N/nVleOS9SNnncZEgCQMGAEQro8/0LzwHkJcC6HQrbBympf4576/Zf9ICAACjuwn+AG+NXCpOXFrwb5iQyjAAINoYPa0vdROAA90LU/zDqqIExV+j/5D+zhKPoKFwOrMBRBdW3A0gtYFcsWAe7NTz8CL+JmJgPELx1+k/4eIPAAIHo5BaJp85/XT/TgiZCjMAJBDy9VPTyLZcDsB7p2Ta6J/z/urOKf7BjCn5lwCwFM3218Qet2xQsUAIwACABECuXLg/pLwJwA7eKxkm/oB5qX/O+2v2X5MBAACsgbRPF5+65W8qVghhAEB8Ix9a1IAt3v1XQP4rgJT3ihT/sKooQfHX6D9y8S/+swCBSyHa/k3MvTKnYpHULwwAiC/GFvotAfApfxXrUfwVnFD8NfqvefEv5UlY1kli7g1rVCyT+oSLAIln5PKFh8G2noJf8TcRir+6c4p/MGP6xR8A9odtPy+fPPVzKtZJfcIAgLgiJYR8acF3YMk/A2ILFQP1h6HiT4JhpvgXmQlL3COfOm2RlIvYtxNXOAVAHJGvzO9EQVwL4B/UDBiobKbN+3PRn2b/dTf6r8TdaGw4Q+x13UYVj6Q+YABAqiJfmb8zCuJ2ALupGahH8VdwwtS/Rv8U/xJeA1IniE9dv0LFM6l9mCYiFZErFh6HgngKquJvIhR/decU/2DGohd/ANgJsvCkfOr0eUq1Sc3DAIBMQkoIuWLBDwF5B4CuIIbqD0PFP1Yo/jGJ/ygCHYBcIp8+/ftSMuNLJsMLgowjXz+/GdnBqwCcFsyQgcrGeX/1BnD0H8xYnAHA5PpLMdhwhjj8uuGAFkmNwACAAADksvOmI5W7A5CHBjNE8Q+rihIUf43+Ey3+RR5HqnCcmHtrJqBlUgMwACCQy+ZvjxT+CIhdghszLADgvL+6c4p/MGPmiX+RNyDtY8X+t7we0ANJOFwDUOfIFWfvhxSeoPhH5ITir9E/xV/Nv9wRQjwhnzzloIBeSMJhAFDHyOULTwCsvyht7jPFmGHiHwmGij8h7syEsB6QT596UtwNIfHBAKBOkS8t/CYsuRRAW3BjBiqbifP+UcHRv0b/NTf6L33RAolb5FOnfj2gR5JQGADUIXLlgm9DyMtRq39/E7WZqX+N/in+av4rfmgB+JV88qvfCuiZJJDaFABSFfnSgu9A4r/1GTRMbTnvr+6c4h/MWPLEv4iAEJfIp077r4AtIAmDTwHUCVJCYOWCSwFcoNOocZiW+o/yJ2IAoNF/XQUAE0WkvBz73/K/hDAyj0Y0wwCgDhgV/4U/A+T5Oo0ah2nir1hFCYq/Rv91Kv7jiCux347nCbHIDtYoYjoMAGocKeelsDJ9FYCzNBrVZkobTP2rO6f4BzNWU+I//t4tGH7vTHH4w3nFVpEEwACghpEPLWrAFu8shupRvlUNGxYAUPzVnVP8gxmrRfGf4HcYeu8UBgG1CxcB1ihSLrKwxTvXo9bFPxIMFX9S34Qr/gDwFbR+5FZ527yU5zaRRMEAoAYZnfNf82sAX9Vt2DhMnPePCo7+NfpP4Og/Gr6C7Zqu4kmCtQkDgFpk5YKLAXGuVpt1Kf4KMPWv0T/FX82/ltF/KWfh6VN/5qsGSQQMAGoMuWLBjwDU/qYenPdXd07xD2asvsS/WOd8+eRXf6BQkxgMA4AaQq5c+H8AfE+/YROH2mFjqPiTYFD8AyD+TT556neDWCBmwXmdGkGumH8+IH6u37CBymbavH+UPxFH/xr9MwBQ829fKD59608CWiIGwACgBpArF5wOieuh++9J8Q+tihIUf43+Kf5q/sf+R4rTxAE33xLQIokZBgAJR65ccAgk7gfQrN+4YQEA5/3VnVP8gxmj+JcbycKSx4j9bv1LQMskRhgAJBi5fOGusORjAKbrN26Y+APmjf5jTf1T/NX8U/zV/Fc0sh4F6wBx0E2vBvRAYoKLABOKfPXczWDJu0Dxj8dB7PP+hMTODKTse+WTp2wZd0OIGgwAEoh8Z14r8oW7Aeyo37iBamOa+EcJU/8a/XP0r+bf0chsSHG3fPbctoCeSAwwAEgYUi6y0Nt1M4D9425LJJiozZz31+if4q/m3wjxL7Ivcv03SLmIepIw+AdLGive/TEgvxyKbdNG/1z0p+6c4h/MGMXfr5F/wFOv/1dAryRiuAgwQcgVC88F5BXhGDdM/AHzUv+xz/szAFDzzwBAzb/K7yYWiANuviagdxIRDAASglxx9n6A9VfUw+N+gHnir1hFCYq/Rv8UfzX/ykZGYIuDxYE3PxOwFSQCGAAkAPni17dAQ+45AB8Nx4FhAQBT/+rOKf7BjFH8gxmRACTeQSG3jzhkaXfA1pCQ4RoAw5FyXgoNuZtA8Y/PCcVfo3+Kv5r/hIg/AAhsi4bGxfK2eamALSIhwwDAdFamLwZwZCi2TRP/SDBU/AmpLY7AR5t+GHcjiDOcAjAYuXL+lyHF7xHG38lE8ee8v7pzjv6DGePoP5iRylUlpDhRHHjz79QNkzBhAGAo8pX5O6MgngaQ1m+8HsVfwQnFX6N/ir+a/8SKf5F+WGI/sf/NK9UdkLDgFICByBXf6EBB/AFhiL+JUPzVnVP8gxmj+Acz4l61A7Zcyp0CzYQBgJFkLwOwcyimTRz9h46h4k/qm9oX/yK7Idv/Y3VHJCw4BWAYY/P+t4dj3EBl47y/unOO/oMZ4+g/mBFfVSUgxfHiwFv+oO6Q6IYBgEHIV8/4CPKNLwKYqd94PYq/ghOKv0b/FH81/zUo/qP/L4NCag9xyE0fqDsmOuEUgCFIuchCvvF6hCH+JkLxV3dO8Q9mjOIfzIiK+AOAwGZIFa6XkgNPU2AAYAovr7kQwGdCsW3i6D90DBX/uoDir+a/hsV/giPxxCn/pN4AohNGYgYgVy74BCSeAdCi37iBymbavH+UPxFH/xr9MwBQ8x9jADD61ghsez9x8JIX1RtCdMAMQMzIt89qgRS3gOKfFAfqUPw1+qf4q/mPXfwBoBkp6xb5+LxW9cYQHTAAiJvB1H8Acve4mxEJJmoz5/01+qf4q/mvK/Evvt4NdsP/VW8Q0QGnAGJEvnTOvhD2EwD0H5rB0b/24spQ/DX6p/ir+TdI/CfIw7L3E59e8rzvNhEtMAMQE/KhRQ0Q9hWg+MfjwMCfiJA6owG2dY189tzGuBtSrzAAiIst3/0OgL2026X4mwVH/xr9c/Sv5t/I0X+RPZHt5VMBMcEpgBiQL5+zE2z7RdTDwr9ImmPo6J/ir9E/xV/Nv9HiP4YYBAp7iAOXvOnHIwkOMwARIyUE7MKvQfGPxwnFX6N/ir+af4p/WeE2wPotNwiKHgYAUbNy/tcAcYR2u6aJfyQYKv6EEL8cjsdPOSvuRtQbjLgiRL4yfxsUxEoAXXoNm6NsBVvi1TU5FAoSO23bjObQlvdENSpUgKN/jf45+lfzn5TR/6Q669GA3cT+t65VsEAUaIi7AXVFwboYkHrF3yBefGMElyzZiHfW5QEA6XYLZ36uEycc0gEr7lCT4q/RP8VfzT/F38XMDOTlfwBYqGCFKBB3t1w3yJUL94eUj0P3b27I6H/12hzO+0k3Boantme3WU349snTMHsrXekAQ1P/FH+N/in+av4TK/7FN2wIub84cMkzCtaIT7gGIAKkhICUl6FGxR8Abn6gv6L4A8DKVVmcc8k6XHNvL3L5SFRKuTghiSSJ4l/ZiAVbXMYFgdHAACAKXl5wGoD9tNo0SPwB4KVVWcfPcwXg+vv6cOZ/r8MLb4woejHrO0+Co3+N/jn6L1KwgTc/LODV93KwDb78laj2fQQOwGOnzIu0LXUKo6yQkc+e24bWwssAttNn1Lye4NQfrsW73XlPZS0BHH9QB879Qidam/3EoIaO/in+Gv1T/Ivc//cRXPnAALo32QCA7TZP4cLjOvDJ2WVTaUkc/U9N/Ze/8Q5aBnYRc+8eVLBOPMIMQNi0FL4HneJvIhI4eA/v2xrYErj9kX6c+d/r8NTLw96d+GxTJFD8Nfqn+APAhxtsXHTdJvzH7/rGxR8A1nQX8J0bevHGB/my+jUn/gCwLYbbL1SwTnzADECIyOVnbwvLegVAmz6j5o3+IYHhnMRFv85g2VvOUwGV+NzcVvzj8dPQ1VEtHjVU/Kv6YgCg5j+Kv7O54i8l8D/PDuNX9w5gcKR6/cM+0Yzvn9JZy+Jf/GgIorCLOGjpGgVPxAPMAISJZV2COhB/AGhpFPjJNzfH2Ud3otHn8Ub3PzuEM/5zLf78fKVsn4HfuQjFX6N/g//OEfD22gK+ccVGXHpnv6P4A8Cy1bmIWhU2rtdWK5D6j4gaU5cwAxAScuXZe0Naz0LXb2yw+JfzbncelyzegBfe9J8N2G/XFlx4Yhe2nF7cosLQ0T/FX6P/+k395wrATX8dxM0PDyJX8OZ6eruFO783w5sfF//KhcMc/cvyV3IvcfCSFxU8EheYAQgLaf0AtRxgOXQAH928AZf94+b41knT0Nbi7yd46uVhnPGjdbjlwT7YfoMeir9G/xR/Nf/exX/FmjzO+eUGXPegd/EHgAN3bfLmx8W/cuHoxB8ABCD+XcEj8UDtClSMyOXz58IST6MOR//lZDYV8NOlG/HoS14X+03widlNuOikaZi1lYcNKznvr9E3xV/NvzfxH8pK/Pb+Adzx5LDvR/t23LoBl81Po7NVsWsxWfyrfyRhyf24OZB+GACEgFyx4H4AR+oxllzxL+XhF4bw06UbsXHAdi9cQkNK4MTD2jH/2HT1tQUUf83+GQCo+Xc3/vRrWVx6Zz/WbvR3H1gC+PL+LTjnyHa0NvmqOpnYAwDFa0vgj+KgxV9Q8E4cYACgGbli/kGAeESPsdoQ/yK9gzauvLsXdz8x4Lvu7K0a8e2Tu7DbrAq9H1P/Gv1T/NX8OxvvG5K44k8D+J9nh33f1h+dmcJFJ3Tikx9rcPXjSOzi72DEi21LHCAOvPUJhVaQKjAA0IxcueAhSBymx5hhAYCm5jy5cgQ/WboRazd42zioiCWAz+/fjm8eX7KBEMVfo3+Kv5p/Z+MPL8/isrv6sUEl+3VgC+Z/tg2NlnD140jSxR8ApPizOORWPZlVAoABgFbkyvmfhRQP6DFmmPgDWsV2OCdx/Z/6sPgvfb7nQbee0YALT0xj3529bz4UCIq/Rv/1I/49fTZ+elc/Hlnh/2mYOds14KLjOzF7y9SYizoX/2JZgcPFwYsfVmgRqQADAI3IFQv+BuDg4IZqW/xLeentLC5evBGr1/p/tvmwT7bggq9MQ1d7yA+zMADQ6L/2A4Dihj6/vmcAAy7P9JfT0ihw5hFtOPng1okjtBMfAGi4tiZ+g8fEIUsOUmgRqQADAE3IFQs+A+DPwQ3Vj/gXyRds3PbwAK65p9fX41AAML0zhfO+1Imj5urbb2kSFH+N/mtf/N/rKeCSO/rx97f8B7T77dSEC4/rwJbTSgLaxIu/gxH/4j/2Wh4qDr3tb77bRabAAEATcsWCewEcHdyQYQFAJM0ZdfLWB3lcvHgjXl7tP2V6wJwW/MtXurDFNJ/bELo3y8ubPur7qEzxD+Y0QvEv2MCSR4Zw7YODyPo88rqzVeBrR7Xji/uWTWlR/EvKlVaQd4lDbjvOT7NIZRgAaECuXPAJSCxD0N+zjsW/iC2BPz45gF/e2YehEX+LptpbLMw/phMnHNw+kT7V0yynN33U91GZ4h/MaYTi/8YHeVx8ez9efc/folYAOGz3JvzLlzoxra3sgqX4l5StYFhijjh0ycs+LJEKMADQgFwx/xpAnB3MiGHiD0QQAFR38MH6PC5dsgnPvjri2+rus5vw7ZOnYbstPGwg5KtpDADU/NdmADCSA677ywAW/23I90LWraZbuPC4Tnzq442VCyQ+ANA671/psyvFoUu+5tESqQIDgIDI5Qu3hCVXAVBfkk7xr8rDLwzjx0s3otfnI1RNjQJf/UwHTvus/8OJKP46/dem+L/4dg6X3NGPdzL+Fq1YAvj83BZ845h2tDVX6X4TL/4ORnSI/ygjKNizxOFLP/RokVSAAUBA5IqF/wHI/x3MiGEBQAypfyc29BXwq7t6cf8zQ7697LBNA7590nTssl2VkZanZlH81fzXnvj3D9n4zZ8GlTb0mb1lA7795Q7stq1DZori7+c3+IE4ZMm/e7RKKsAAIADy2XPb0FpYA2CmuhGKv9fij68Yxk9/twnrNvobdaUsgeMPasO5n0+jpcnhkqf4a/Rfe+L/+MtZ/OSufnRvCrChT8rt+qP4e64gsR7DTduJo270v7UoAcAAIBByxfzzAfFzdQOGiT9gTOq/WvGBYRtX39uHOx4Z8D3vus3MBnzrpGnY5+NVNlNnAKDRf+0EAOv7bPzs7n48/JL/9Sif2K4RF325A7O2cJmHSqL4T6kX8rx/JXsS3xSHLfmVR+ukDAYAiki5yMLKd14DsIOiAb0N0oFp4u9QZfnYBkJr1vlbeS0EcOTcVpx/fBfSbeXPW3t0HrBoxcoU/2BOQ/j9pATuf2EYl/9xAL2D/kb9LU0CZx5etqGPq/+EBQBxpf4nF3kdhyzZWYhocpe1BgMAReTy+Z+DJe5Tq2zgtWpw6r8a2ZzEzX/px80P9PneQGhG2sI//0MXDt2jleJP8Z/C++sLuPTOfjz3hv89KfbfuREXfKkDW3rdk4Liryr+owjxWXHI4gc9eiIlMABQRK6YvxQQX1GrbFgAkEDxL+XN93P478Wb8Oo7ChsI7daCC+dNw2ZdpdsJU/zV/Cdf/As2cMeTQ/jt/QMYzvozPr3dwnnHtOGovXw8EETx9z7vX/3jJeLQJSd79EZKYACggHz13M2QL7wLoNl/ZcPEHzAv9a/QnoItccejg/jtH3t9d9wdrRa+/oVOfGH/dgjhswEMANQNGSb+b36Yx8W39+GVd9U29Lngi53oavfRpday+PuxH2T0P0oWwv6oOGRpt0ePZAwGAArIlfMvghQX+69I8dddvJz3e/K4dMlGPPe6/2zAnjs046ITu7Dt5n5St6rUkvgrGjMkAMjmJW7+6xBufnjA91TS1tNTuPC4duxbbWGpq/8kBwBGiP8oQlwgDln8U49eyRgMABSQKxasBLCrv0r1KP4KTjS0SUrg/ucGcfkdvb4XbzU3Amd9rhMnH9HhvHiL4h/MmCHiv3x1Dhff3oc13Wob+nzz2Ha0Oj1a6ug/yeLvYCRq8R/lFRyyZDcuBvQHAwCfyOULD4MlH/Jf0bDrskbFv5T1vTYu+/0m/HWZ/w2EdtymEd85uQs7fbTCBkIU/2DGDBD/gRGJqx8YwB1P+N/Gd/stU/j2CZ3Y9aOKW01T/HXM+08tVMBB4ojbHvPYAgIgwGbpdYolz/FdxzTxD0AuL7F6bR6bHLbmHR6RyBWqf+fhrD31c1n6uUTOYRp2OCeRczhxrbR+ut3CltNTWLvB3wjvjfdzOO9nPfjqEe0448gONDboiJUp/iaI/xOvZvGTO/uwTnlDn3b/20uX+K978Vev4GxK4BwADAB8wAyAD+Tfz5qGpob3AdnqvZKB4q/YpDsfHcCV/9OLgWF/HWfS2XOHJvzngulob7E4+k9wALCh38av7hnA/X8f9l1394814qIT2vGxzQKOmRIfABg0718sNFFuCKmGj4iDb9ngsSV1j+VehIzT2HBqvYr/M68M46e/21h34g8AL76ZxTV/6qf4J1j8H14+gjMvW+9b/NubBc7/Qjt+fm4XxV9buVDEHwBaYRdO9NgSAk4B+EPIZD9rGqDvuf6+fn3tSCAPPj+E849LK9am+Mcl/h9uKODSO/rxjMJTIZ/euQkXHN+BLbqCZn5QI+Kva95fR7kq95SUJwG4wqOnuocBgEfkK/O3QQEHeK9g2Og/YHPe+sB/B1pL9A/ZsCW8bes6CYp/HOJvS+D3jw3hqgf8b+gDAFtOS2GztIUb/jI4/l5Hq3CcM7UERqeJyikR/5SF6scAj9HYALQ0Om9T3dQINJesS2luFNhx6xRaKh16aYL4q1fwa+NQ+ejJ24iDFr+vwVHNwwDAK3lxEoTHKRPTxF8DnW0WBoZ9PiRdQ2y/dZOC+JM4GMkB31+8CY+tVA9a124s4O5nknW9tzQJLPxMK+Yd4GMnQk9o6M+0pv4dy1nIFU4AcLlHS3UN1wB4RcDb3JKJ4q+hSfvtqrtTSQ5CAKcf2a5Qk6P/OEb/t/xtMJD4J5XhrMTl9w7i8VdLvnvtz/tPxWtfTRgAeEEuP3tbAPvF3Q4lNMUjC45JY+sZ9Zcw6mwT+NZXunDwJ/wGQBT/uOb9/6xD5afcAAAgAElEQVSwyr+WuOVvY8cWm5D6j2LefwriIPnovO08eq5r6q9HV8GyToKXRyZNG/1rbE5Xh4Xffmtz3P7oAB56PY21w9PGPxOpRohG561QrYYWCMv5crOamj2UacPYhv0VEULAam4b/XfVQilYTdUf5tip+S0cOeMRzOxMYfbWDWhp9Jv7p/jHueJ/k8/dH2uNt9bmDRP/0Of9yxHIWScAuEyD45qGAYAXBE5yvf5ME/8Q6GyzcObnOpH/5Ml4sm+fuJvjDRftFhX+9Yn0MA6aXr9THklnh60a8MLbubibERu+DiSqiq7+LJJ5/wrl5ElgAOAKpwBckK8snA0JZ7UzUfxDbFJPbnp4xnUjnf+b+OfE/3VYQR555Og/ztE/AHz1kDanJFHNc9AuqgcT6S4X4bz/VHv7yYdOnuWxVt3CAMCNAk6A0ziyzsQfAHryM8J1ECUVgoLOVJ+6MYp/MKca2r/fzk34zgmd6Gytvyhgu81SOPMwn9mrUFL/sYo/AAhAHu+xZt3CKQBX7GMTtWNyyOJfkClszKtuiJMM0koZAIq/CeJf5Jh9WnDY7s14/f081vfZeGjwULyW3WH8czs74Bi8Sylhjww6N8vOwc5nHdtt50cg8w4HWwCws4OQqL5uQdgShexg1c8BYJvWTfjc7B58ad9mf6cTxrXoLxJj8mhwGsARBgAOyBdPbwfEgdULGDj6D5kNhTTsGk8cdabqe9fDRFLhVmxtEthjViMAiXV9W+ODgf2nVHC9gxNyi3+65Smc1HmDv0pexd83cc37T+FQefcX28QX73aOnuqY2u7Jg9LQ+BkAzRU/M1H8Q2+SRE+uhtL/VUj7DgA4+o999O9Ch9U/aZ1HccbHbY1IUugpzAzPeLJS/6UftKC99TCPVuoSBgCOWMdUfLsuxX+UTH5aSfeZ8F6zCv7WAFD8Yxd/x/qjH6ZFXy1equP02D4D89qc96/E0R4t1SUMAByRn4u7BZ6IpCMbdVJcAOgcAiQ3QGi2smgSXh8ho/gnQfwBoDPQkx3ms6EwDQWZ8lY4rnn/oNe6L8bsWPLzmgzWJAwAqiCXL9wVwPZTPzBbwMJh4jt7fQTQLUAwNUhIKz8BkEDqRPwBIJ3qDejMbGxY2GhPcy/oVfx9o/GeDZ76L/3n9vKheTsGbFHNwgCgGkJOTR2ZKP6hN2myg57cDG06bWIWwftIsQZG/3VErWcAAKCn4Hd9joZry7jUv5z60paVp3IJA4CqCEy+aCj+AICe/LSpRULS6WBZBDW8zf/XgPjX0egfANJWrWQAqt8NGekSAISS0jdJ/KuUE4LrAKrAAKAC8u2zWgAcHHc7HIkhHrFhYX15AOCGW4AQWpCgNs2QTg24e6T4B3MasfgDQJPIoVmYfkKg29Vc/YoGXDIAU36WKj9iWCKsxZiyncPkbfMUtkesfRgAVGLQmgtgYjstE0f/oTP1O2/Mp70vNPLrypAsgnMGgOKfRPEv0mnFvb5DTdy9/mRVAwDd4q9eobqNwAGFdHrZhs3svfy0ql5gAFAJWbL5j4niH3qTKjuI7QyACLMIwc4BICYT7jqAYKN3Ha4znvYC0OBRerQTWTbBUfxHEeIgj17qCgYAlRAYDQAo/pMw+gwATQFC9U2AOPpP8ugfCLoOINzRu0+3FR30FCoE6KGIsC7x93FPBS7nsKNrHcMAoAwpIQDs71owDmKOR3pyPuf/TcJjJ1p5CoDin3Txh3Ta4jn+0bsOB+vtGZO36Z5Sv4rByES4rJC2H9BTMQYAFWAAUM7yc3cGsLlxo/9ImuPspOIIo1YY63DTVvkiQIp/LYg/MLYboKGjdx0UZAqbCukJ31MaU6WNvtDRaJ82qhaXji/L2IL7AUyFAUA5DfkDjRP/SHD/zqNrAELuxWIm/oViJCxGzwMwc/Sui8oLATU0RmvqX0c5X+I/BqcBymEAUE7BwFRR6J2JNwfduelV+reIhzohISDRkSo9OIyj/1oZ/QM+T3lM6CWdsWeGJMK6xN/HPaW7nG2b17fHDI8DLkcYFgAY0tFICGwo2wPArWmTTyX3VzoO2q1BpERh7BXFv5bEHyhbBGjIfaWbqdN0AVP/cYl/cGcV4JMA5TADUIJ8+YyZAD4edzvGiaST8uakN9+BrGz0bdn7ICr+IdfECJHiX2viDwCdot/o0bsOJh8LrEP8deHTmNbU/3i5XeQjX63hhUz+YQBQimzYCyYMRSPD+00Z1iOA/iQ/3ACh+iOApBZI19z6jqn3QI89veQzXT6CF9FTLpD4A4DASP6THmvVBQwASpHYI+4mjBP6KMWfg0w+nsA5yizCaAaAo/9aHP0DQGdqACIxw3/v13LpO66bAZme+g+7nFXY3WPNuoBrAEqRMOPiMLCP6slOd25XjHkTt5/L61qEzlQfxb9GxR8ALBTQZg1iwG7326oQ8P5D+flJ19ujC3Ur3o6JFn8dnaIEpDCjjzcEZgBKEQYEAJGIv//5ONdtgMPNzgfC61iqc8oeAAqOghSi+Kt+6LlINMcCq43eddw6WdmIPrujcpO8Nl0buoxJx5c+3ZuT5TUABgBjyNvmpQDsFnc7wse/+AMaNgHS3dNpRsLrUcAkFCIQf0DXOgDvF3Icl3zG9nImgBP6fu/g5XSJ//gbc+SiRdS9MfhDFNm1aydItMbahtBFUN1BJoqDgGIOEAItAuToPxG4ZwDiG73rYspmQL5EU5f4SxPFHwDaceiK7T1aqnkYAIxTiDc1ZGIHWtKm9XkDzgEIubdV3gWQ4h+MiEb/QDEDYO7o3RdVGpYpDQASK/6K5bxUlJLTAGMwAChiWfHN/0fSm/h0UlK8327DsN0Ew7q/qQQckillACj+wYhQ/IGJaR5TR+/jBGjg+F4AsYiwrl9O0Y6XaiY97RUzfAqgiJTxLwAMDXXxB4BMVnV/cQO3VHBodjoVcBGgX4cUf9UPlf13jp0HEDshNqLHVtmzQ2ODzEz9l1LDfb0/GABMsEssXkPvjYKJPwD0FKZVteIs8W6+zQkQUqKAVmvIXyUjlIT4IZKnAGK+LjKFGQlO/Ycs/qNvx9PXGwinAABICQFgu+gdJ8NBJld9RBEsjWpOIjad6ve3SQxT/8GIYfQPaHoKwIxLtiqVTwSsgHHir1jOf8VZY31+3cMAAABePGMbAC2R+jSgo5hClTb1BNgFMLjER9Pb+j4pLkghir/qh4H9u2YAzIlJfTLRwBHZhH63zY60irAP8Q/uTL3aRLk23P/lzdWc1RYMAACgoXFW3E3QT/DUf5GwHwE0IYuQ9roHAMU/GDGKPwCkSw8ESoy4A36vcW/rAHR8YV39jHR86d1elYrlbzdasz16qGkYAACAtKO9GELvaPSJPxAsA6CDKLIIgXcBJImgbdKRz6agfoVXK+14JoAc/x/3ZnkhcLmIxR8AbMEAAAwARhHWrMh8mSb+HohkE6CABA0QPO0CyNF/MGIe/UMCAvboscCRon51qtacOBWwgkFtv7WMMEhwK+d30CNm+atQmzAAAAAhZ0Xix8QUo0ubhuwWDBVazGy7D9w60k63RwAp/sEwQPyLRtJanwTQP3r3HrhWp+JCQK0i7EP8gzvTb15EnPU1FD4GCAAS4V8MkQio3yjYvcik0b8X8wldW+u4CyDFPxgGiT8wthlQ3ldldbcxkan6JICOVunqZ2JI/Y9/JmZ59FbTMAAYZVbcDQiOfvEHgEze56YibnYNDRDC2QSImMjEo4DJFHcv9JQfCKQ19a+jXIziDwAigkFfAqj7KQApF1kAtg3XSajWQ3XQk5uG4AnJEsLMewag6jbAHP0Hw7DRP1B8FNDZsIGXqC+mngeg67f2kfoPvVygv8THeCogAwDgtfdnAGgMzb6JvYWPNvVMOgQoIvWOofetuAiQ4h8MA8UfADpS/YkXeEckMGi3Yki2xif+wZ2p2/BmvglzX+vS0JBEwwBgJLtZaLYj6UnCSf0XcdoFsLqD5AUIUzIAFP9gGCr+gKbdAOPE4/Wf0fr4rq5+Rjq+DOzeT7mmkfD6/oTAAMBKOTwwazrhij8AZHLTNOttBFkEny6arRE0iVxwv8QMXEa9kZwHoIrG22N0HYDGYCtwOV3iX6WiX3tCJrjv1wMXAQp7M8gQVqaFPvqPJlHpZRGgW0v8/7r6LTq5SJdvAsTRfzDiHv27oPcxQJ9EmBXMFDxkAHSn/kMvF1D8SysIq+4zAAwAbGsmhOa7Mhpt9odCm0bsJvQX2iJx7U/S9VqclBKm+AcjbvF3Gf0DQNrqDejEyXcUeHPU4xYARCr+On4cTdnBcTvMADAA0H0RRBjhh1W8iN45RGfizCKMHwRE8Q9GAsQfCLAGwMR724FM+aOAvtHVFl2pfx3lJhVmABB3A2JHJO0iiEb8AaDHoC2Aw8wieD4IqOaoP/EHgCaRQ7PIYkQ26fPvGX2O3CxlnA4Eqtd5/8lvJqzv1w8XAQromwcybd4/YHuizADoQHXtVDrVX6ej//ql0+r3dnH4wu0K9OcoqKVMvoq+RZb6N0T8q1WQou7XADAAsDVlAGqwAzYpA6CDah1ph6ddAGtN/Otz9F9EbR2APnHXb20q/bIdI7J5qlMvLYsrTa+vYpmJinaYAYi7AbEj5DT3Qi6YODeooU2ZfPCfJgm4rwqn+Kv5N1P8gUp/82hH71GNF3qm7Ajohq6WKdoJJfCoUliI2hrhKMAAQKIl7ia4E734A0AmOz2+nitCqm4DDIDir+rfXPEHioc/mTt610Wm2rHATtRK6t+tnC0T0PeHCxcBCtHsXsiB0O/2eMQfKG4DXMHgpLeqLL0z9NCfSnQ6BgCkFnHK+pgk4EEZzwBElvo3TfwdKgg0Vf+wPmAAANmkrFamib9GcnYDevMdHkp6uVEr/L4GBQjVMwAc/av5N3v0D4wuAqwloa9Gxp5Zn/P+3uwEG/zVAAwAoJgBMLH30Dr6nw57TKWDa7VCFiGiAEFAojM1WOETir+af/PFH9Lw7YA14roZEABf4u9mJ8xqOub9J8MMQNwNiJ8AGYBQiS/1D4yeAeDHdLBf0C1AqOJBw5+t3RqChYJ7ezx85AmKvwb/wcQfqIEDgSpR4Wdx38pbVz9jUurf83XIDEDcDYgf4T8KNC31H0J7/O4B4NYEU7MI9bsJUH2TyL97xZvM+c7rcdoMyJsJD+VMEn9fMACIuwEG4O8iME38Q0L3HgCmZhGmLgDk6F/Nf3JG/4CBUwAK4u6FTXYncrIBjSJf2X5c8/5exd83vq7Dup8C4GOAfi4CM7R5MiG1KY5dAKXLf2F4mLwAkOKv5j9Z4g+MngAporyhK17UcuK/EK54CcCGqJIFiHne36uNcFL/Reo+A8AAwGsAEElfEX/qv0jpGgBTcAsQVH6OicfBKP5q/pMn/gBgoYA2q9LiT0X7TuIeosB7uRd6puwFoKufkY4v/dsLUk7pOmQGIO4GGEAq7gaMYo74A8ndBthvgNDpaRtgUou47wA5Rkyjd13BbqZQYcfbwCKsS/yrVIwmmKj7KXAGAEDOtUToo/8IU5EeKMgUNuY7425GKJR3oqNrADj6V/OfzNF/kXT5gUAGjt51kCndDhgy5pG6SkVdDZhCVlMDEkvdR0AYvQiqzwWZpc2jhNym9fku2HUSGzquBqf4q36o0X844g8AnaLPvZB+t5EzMQWgS/x1fEMNQbd66r/IiEdPNUt99PLOVL8IIrmTzUr9A8UFgFGNT+IlXW0KgOKv+qFG/+GJP6D+KGCUo3cdjGYAQhptx5pNCHwdMgMQdwMMIMaLwDzxB4BMdtqor6rP5XlpiImbK03F8zwwiY4IxB8AOq2pwZ+JAh6U8TUAnPcvp+4zAAwAqgUAdTbvX0pP8QkAtyY6anygypFR8SAgjv5VP9TjPyLq5TyAjXYaBTuFlCjf8bICcc37+/5DaJmGqPsMAKcARIUo0MReIao2SaA7N8NbWjNQLtStcvhfOCUKaEsNTW1WECj+GvyHP/oHEroboAI2LKy3PTzWG+e8vy8T2q7Dus8AMAAozwDU6bx/qZ9KewAoyXVgjQ83QEin+idvBkPxV/1Qo/9oxB+QNXgeQPV7JeNlS2BHu9Vfeq2mp5yu61ACkmsAOAUQ+RoAQ8W/BNVdAJWS/qFOMzgbqH4MsAIUfw3+oxN/IInrP9R/n57CDKBRxbQu8Q+Y+tdaThbL1X0GgAGALLkIQhdbg8V/zJcNCxvy6TBdODJFroNpvKOBSSPAGAItEi9mZQDCDX4cMwCmi796BRcbkgFA3A2IHSEHIEV9C0DJd9+QS6Mg49scMcoswvgCQKb+VT/U6D/a0T8AtFlDSIlCRNd7VN+vcpXJmwEp2FZuvoaOVWvqv6ScFJr2gk4uDACk6IlG/A0d/Zf5yeTNOwOgFJ1ZhHRqgOJfp+IPAAISnaIfG2WXun//jdBS1W+1qgGANg8+q8U37z+BQMZjK2oWLgIEesJ3Yaj4VyCTC7JYyAyqL4Wa/NNWeg7ct6PKLxTqK1Si+AcrLL2uA/F6Remp6lZF5RerOAVgeuo/TPEHAIgI+n6zYQAgw44CDRb/Cr5MzwDooNiJVtwDgNQVaasXynKrqNS6xd0L6+1pk7f3ToT466JqWxgAxN0AAwjxIohxKO9GxaZJ9OS6EF23FC+BngLg6F+D/3hH/4DLkwCGjN51UJApbCyMLe4NXYR1fUuN12GlckJyCiDuBsSONCgNFFXvUEX8ASBT9RhgU7s2dZQDAIq/Bv/xiz8AdIpqJwJWt5bUO6DbdS8AxW+gO6AIPfU/jjl9f0wwALDskC4CQ1P/DuIPqO8BMGEnOd2j0nPgFH8N/s0QfwDoLDkMqvZC3Mn02DMdvoR0fFmVKeUcIifP9iIRf7MGfzHBAMBOhZAGMlT8XZAQWJ8PuiLa2YNJXWy6gWsA6p1Oq68mxN0LmXy1DIBJ4q8LD8asQt1PAfAxwEK+Bw064yCDuxKX0f/GfCeyhbJLQlT8Z4i4/X56WtFijaBJ5PxV4uhfg39zRv+A5t0gjWLql83YHrJ7usXfNxqvQ7dyUtZ9BoABQKvVA586oBVDUv8A0FNp/t+L/kQaJHj5wdxb4fsRQIq/Bv9miT+QxO2Ai/j/LXsqBgA6OiAHGyam/sdJr/dSqpap+ykAscs1fQB69VgzNPXvQfwBoLvCIUCe7Y/9Jyv9V1IkGtynGXyN/Cj+GvybJ/6AadsBFwlnqqx7ymZAulL/OspFLf7YJI66MeBGIMmn7gOAMVYFN2Go+PugJ9ACQAfcAoTIgwSJdIOJHT/RjssF1RVLBkC/uHuhpzADcjw7pkv8q1SMJZjw8dtJvOW9cO3CAAAAZNAAwEA1L+Jx9A9UPgY4MiLOInhO/XL0r8F/jKN/F5pEFs1C54Gg4YzelVtQcg/lZAM22RUO+tIt/r7R+Jt4NSV0DPqSDwMAIPqLIap4wYf4A057ABiA5iyCpykAir8G/2am/kvxtw4gXnGf1IIq94FTczKF6Zra6WDDV0Ch6zqU/vxK+bbH0jUNAwAAEHKVemWfN5Oh4g/UwDbAPrIIpc9/V7VV+YX3tgSpRPEPVthH/Yl1AOaO3isKvAJTzgRQHv3rKBeT+AOAEKs81qhp+BQAANjW2xAqd5Sh4q/IxDbARaJ58C8ySr5a2i0ASDIUf1+MBgDRjd4n/yNaRjMAPtswpVyVirEEEz7Ef3I9ZgDAAGCUVGEVbL/JEIPVXGH031vowIjd5KtOkgME1z3gK7/wRtyjf+ILXXsBBL1soqCnmAGIS/zVKwS3UVpcWgwAwABglKGmt9GcD9eHwal/QHUBoJcvZWaQUHUXwKSLP0f/vun0+Chg3KN3HUx9FNAPGr641tR/gHLN1mqPNWsargEAIOZeuQnABu81DE39K4o/EOYCwHjnVKtRcdRH8dfgP1niDwmkrYHQ595Noacwo37n/SdYJw5fmtQdoLTCAGACj8+FGir+AcnkpsXUVLcAQX+rBCQ6UoNTm1H5hTco/sGMxCT+wFgGoEYEvjITX6674DHQ153611rOh/hXhun/MRgAFJHyJQ+FfNpUa4oSAUb/wEQGwMzxut5WtVtDSKGgs4EkwaT9bgttHN7vjyya0Gd3uJtzfsPxbR+GFdDSBy/X0JCagAFAESFcLgqDhwYBxR/S+xqA6Mfr+ls1Zf6fo38N/pM5+gdMPw9A/x035VFAV/8B0Zr611BOSgYAY3AR4DjWMsDWZy4qJdQg/sBYAOBUzcdaPjfv8SwLnGhVOtVX6e3yF37NqlWKQPzXbrTx9roc3uspINMnsb6vgJEcMJQdvd5bmyy0NApM77CwWafARzdrwKwtUtiyK+XRf3LFHwDSKU1HgSgRfcicKczA7IY1lT8MRYR1ib+P1L9jX+Y22KsfGABMsKz6Rwan/oNQ0s4etwyAl+/kUdk1mlJifMRXo+L/2vt5PLJyGC+uymLZqhx6h9QcpVsF9pjViD1nNeHQOc3Ycauy7qIGxB+Q6LQGICAhtV91ZnYE3dUyALpT/yaKPyRgN3iY7q0PGACMIXa/aq1cPn8dgC0mf2Kw+Acd/Y8xUGjFoN0SuDk6h/5hZhGqPgKYYN78MIc/vziC+14cwqq1etY39A5JPPpyFo++nMUv7+3HNtMtHDqnBUfu2YI9ZzUa+oCnH0avshQKaLOGMGC3KdU3CS8t6qm0EDAU8deFLmMSAN4Xxy7t1mQw8TAAmMwyAJ+deGneDT6OptQ/EOEZABFmEZzMdKYGa2L0n81L3P/CMK75S7820Xfi/Q02bn10ELc+OoiPzEzhlAPbcMJ+LWhpUggFjBj9T5C2+ssCADPvfR2t6rZnRuDFo52o5v0nPnDI9NYfDABKEVgGWRoA+CRh8/5FRs8AKL4Z87hO09DfyczkRV/JE/8NfTZue2wQSx4bxMYBjetWfPBeTwGX3tWHqx4cwPGfasEpB7Vh87THNcVGiP/kN9KpXnyQ31zBsD6iGjRnyjMA9TDvX0TwCYBSGACUYmP5hMAYmvrXLP4A0D0pA2DmEr5xNGQRJjYBSpb45/LA0scH8at7+jCYNWOEunHAxnUPDWLxY0M489A2nH1EG5oaHP4ABoo/EM2TANr+YgENZUp3A6yXef/xf3IBYCkMACZhLR99EsBQ8Q+J0UOAvBL3Ej4PuDQxiQcB/W3FCC65sxfv9Zi5f8FwVuKKBwbwx+eHcf6xHThyj+a4m1SFyhdHWgQLAIyc8q7CkGzBoGxFG4a8OY4sTa9izK8dySmAErgPQCmpTcsBWX5XmEMIo39A9RwAN0dO/8XLaAYgGaP/tRttfPOKDfjnqzcYK/6lvNtTwHdu3ITzr96EtZvK2mvE6L8ybhkAbVe0m6GIbo/ufPmTABHO++s25T7vX3w5hN6GlwO0qOZgAFCCmLM0C+A5X5USnPov0p2PaBHgOPH2gmmPh79MIgbx/+tLIzj5xxk88eqIivNYeeyVEcy7dD0eWDbWdiPEv/oItzPVH43Ax85oQ3omHQrk0LDEpv6niD8APCVOXJr1aLkuYABQjhCPeS5bA+IPjD4FYFQfBSCsnjQlCmhLDftvim/UxT+bl7jkjj5ccO0GbIppkZ8O+oclvnvTJlxyZz+ynpMX0Ys/4HENgCGjd2e8NbBbetgNMLHiX6WcgPe+vU7gGoAp2I95msM24mYPzrDdjP5C66T33L6aGc9/e/kDTG1pOjW66YuprN1UwL9cvRGvvJuLuylakBK49bFBvLA6i8vOmubypIAm8Vcwkrb6E3JP62nkxEJA58DIFa3lQp6GsCUDgDKYASgnZT8Ok7qCkEf/3Qrz/8YPgsaZ2rpJ2wB7NaHk13/9t9bmcfbP19eM+Jfy8rt5nPbz9Xj9g3z4zhRESWlaSDvRpRgydumjv0HReNeHk/of/ZfV+JRKk2oZBgBliF1v6AHwqmOhGkn9A2EsADQ7UzrxCKAHIhT/5atzWHj5eny4wfyFfqp099o45zcb8Pe3K03DxpP6LxLNgUDm3BWTHgUsJ7Gp/6riD0isEEcvXe/RQ93AAKAiDqmiGhJ/YGwXwBj6oLi6Qs8dfYTi/9BLwzjnl+tj29QnSnqHJL5x1Sb8bWVpEBCv+ANjR0SLIMGXyWHvBMWWdFcLABIr/q7lHvVYs65gAFAJWWUhoBn3sFYy5U8AGNKHhdWdplODWtqni6deG8H3btiEbL4GL64qjOQkLrppIx57ZQSRi38VBCTSltP+EIbcGA74uWf6ZTuGZctUA14daSvnQ/yDOBOc/68EA4BK2IV4L5aIRv8AkMn62QQIRg10VJrR6eUgoIhG/8tX53DBNRvrSvyL5PLARTf14u9vh7HeweH3dPhodB1AcgXeL847AnppTVB82qhaXDq+BABYMffphsIAoBJ73vA6ID+Y9F5UfUCE4g8UtwHW3LUYHCC4rgGISPzf+CCP869cjyFDtvSNg+GsxD9duwmvvF+yMFDL6F+tnO8FohqJI64eXQjoEzn+Px7KebUXpJwH8QfeFUfd/bZHT3UFA4AKCAEJKe4ff6NGxR8AMnkvGQDN3VOMWQTHNQARif+HGwo47zfr0TtUv+JfpH9Yju4auNHWJP5VjHiwHXQ7YCcMiYknOe0uzJx4z2tdbeIvIwwS8CePFuoOBgDVELgXgCnZv1DIykb05ds1WUtGFiFdbQogIvHP5iUuun4jevpqf8GfV3r6bFx0Y6+PzYLG8Cr+Hul0XAPg3AwTBd6tIRl7RpQiPLmQlh/Fs5F7dXirRRgAVEOO3A+JCB5aLvrz/KaP+s5kstMgI9vWx4wsgvNCr/C5+PZerFhTe8/5B+Wld3L48V1BRuAO14/HS6tadigx4u6zMVMWADv5nfyPACjc514+qG42j4aGB/05rR8YAFRB7HHLBgBPR+IsBvEHwtkDIBjhZxG6KmUAIhr9//HZIdz+pLlnTcXN0ieHcLbiOooAACAASURBVNezHrdpDmHk2pnqM1vgNRvM2B62A55kK3gRPeU8iz8g8Lg4cukmjx7rDgYAjojw545iEn8A6M5Pi7fD802wIVCLNYImUTb6jkj83/wwh/93W6+Ks7riP+/sx9vrXOYCpvzmVf4IPoUmzDUAukfv3ow6k7E9ZADk+P94KOehUGRBQvFzyfl/BxgAOCFCnjuKUfwBiUy2cgYglL4qMqq3esoTABGJv20DP7ytry4f9/PLSE7i32/rhV3tp9It/iUVuoJsBxy5uAe/lnrtDmTR5NwE48Tf5/e2Of/vBAMAJz6x3fMA1sbdjLAIMgWQxADB1zbAGrnprwN4cRVPIfXKS+/ksfgxL1MlGq60EpFLp6qsDzFw9K4DCYGeQpU+QGsTdBmTji8r8CGOvfNFTc5rEgYADgixyJ70OKBOYh79Q/pYBKTmwYAubjKTAoCIRv/vrS/givviCTySzOX39ePdnrKpgFDSxxOFu6y+xIzeddHtuA5A1+hfRznf4g9I3CtMPvrTABgAuGHJP2q3aYD4A8VNgOIj6i5yfIQXkfgDwA8Wb6rrzX5UGc4CP7rDKWALmPqvUK5JZNEsvGRqkiHu5VRqaaZQoQ8wMvWvUA7iHq8l6xUGAG6MNN4NQN+zY4aIf16msLHQEcRY6OgeR6UbVM98VxP/v740gmfeYOpflSdfz+LRV7L6xd+hQtrqRRIFXvVemfIkgJHir/KbiwGk+jn/7wIDABfE3CsHUYMbSfTkp0HaAKSs/F9C8NPpRbkHgC2By+9h6j8oP793APakPZM0XJsOIld1HUDMhBWSjO8GWHTitTF6Cvm349msvEscdb+Zf0yDYADgBYklmux4fdNHfR+VS+q7pv+rBQYJDhDUznxXG/3f/fQQ3vyQG/4E5Y0P87jnBQ97A/gSr+qFAz0JoIjuTJcfMlMWAWr0FjigUBV/AFLe5qN03cIAwAu5xnsABBvOGST+AJDJ+TwFcIpJlwDBwCAh3eB3QKAm/tm8xBX3c/Svi18/MDi2TXDA1L+H9LZakOju1tQJhW679DwAk1L/AcQf6EN/432+atQpDAA8IOZeOQgh/kfZgGHiDwCZbAQLAA0LEPx17mriDwB/eHoIH27wu7E9qcYHGwr4n+eqPBaoNW3tPwCIc/Sug412GjnZALPEX7HcRIU7xYlLueWmBxgAeEXaeqYBDKHbhG2AI84iVD0ISCNSAov/Nhi6n3rj1seGNVwO7gY6y3YDTLK4T6LK/SUlsL7gIRvoVfy1ENCOJZj+9wgDAK+0dt4LwP+e0gaO/gETzwGogqYAQUCiM+V1UKA++n/i1RG8vS66M6TqhTfX5vH0m4rbOPtIb6dT/TUl8F7uE39nAri1I2i5QKl/QGAjCsMP+KxVtzAA8Ij4+C9GANztq5Kh4g9UPweg5jq+sc6v3RpCCl7S8uriDwC3cPQfGrc8WhLAhSD+QDhrAAITcqas4l4Ak/x7amT84g8ANu4Qx947olCzLmEA4Atxi+eiBot/ASlsyHW6uq+l9GeXp22Ag4n/6u48nniVfU9YPPZaFu9k7BDnjoGuOAKAmNfKZAoOGYDIxF+xXDkp3KpYsy5hAOCH3be7DxKr425GUNbnOlFAKrCdJAUI7ucABBN/ALj3uSETH36oGWwb3h4JnIT30T8ApHU/BpiAp2WqbgesW/zd7ARnFZ7Y80EdhuoFBgA+EGKRDYjrXAsaPPoHgExEWwCblEWI4iCgB17g6D9s7lvm8Tf2mfov0pkahK/t4w0Xdy+orwHw+f3CTP2PVrxaLFpku5cjRRgA+Ma6CnCYTDZc/IH4zwAoJaoAwXmHt+Cj/9fez3PxXwSsWlfAm2tdfmdF8QeAFApot8bWGiRg9O4Vp3usu+p5AB4NByqnS/xRgCWvV65dpzAA8InY86p3AVQ+ITAB4g8AmXwXzE/aj6Iri1A9AAgu/gDwwAt87Dgq/rzc4XwFDcKVFn01I+5e7pH1dtfkKUHdqX/d5Soi7hFH/eGdIBbqEQYAKgjx27ibEITqjwCakrD3h5dWV54C0CP+APDgcr9z00SVB1e4TQME+2Oa9iRA2HdlASlsKO4FoFv83ezo4yqdxuoFBgAqZLa7G8D7k95LyOgfALqz0xX96RqPR4tEuIe89PQVsGotd/6LijfXFrC+v8JUb4DUfylRrBcpYsodlZFepwV9tij81D8AfIjNN6u5A9uigAGAAuLwRXlA3jD+RoLEHwAy2ZJoX3vvY0J3NpWpnbq+0f/zb/DQnyiREnhhVdk6AE3iD+h9FNDMu2Eq3YUZEab0tYo/IHC1mHslb0IFGAAoY/0WgJ008ZdSoCfv4yCgyAOEcLrFrkkHAekTf0jg+bcd5qRJKDy/uqS/1ypcEp0eAwBTRu/+mdpS182AivUiCxI8I2HLawNbqVMYACgi9rjmLUhUOHHKXPEHgA35NPIy+B4Apc1IQhZhYl5Xr/gDwPPlW9SS0Hn+rfLfXIfcjtpIi77xV8kTd0Cl5RWfBCi3qUXUtf9y94hj73xTt9F6gQFAIOwfx90Cv3TnuqLvwGLOIqSEjbZUOIv0BrMSb65lABA1r32Qx1CuKEp6Uv/FcunUQM0JvJu5TGGmiz8daE79jxq5VIeVeoUBQADEntc/CODvE++YPfoHJu8BYMwIJ+QsQpfVN7a5i/7R/5ruPGxuPRI5tgTe6bahT/wn7qku3bsB+kLzzeDRXLet4zwAp3JhiD+eE8fc+bAWS3UKA4CgSPyk+A8fdQI5DFLfzymAoeiyKgEakm4YmFxIk/gDwJp1XP0fF2t6PGy85FP8ASBthffESBijdx3megrTISEqOzBT/AGAo/+AMAAISr5xCSDXeC4fo/gD+o8BTkKAMOkJAI3iD4weAETiYXVGR/A19YJQPw8gntG7DvJIYYOdntqAwOIfGqvRsuF3kXutMRgABGTs8ZPL426HV7pzPp4A0IAJWYSuEEd0a7SIEFHhHbffXlG82q0hpESleR0zR+9BKbrLTJoG0NWAkEb/UlwmDn+Y0XdAGADoYCh3BYBNruViHv1DApn8dMQ0Rq9K2P1guqFvwlEQKtR/fwMDgLh4z+m3V0j9FxGQY1mAZIzegzalSHf5QkBzU/+9wNA12qzVMQwANCD2v7kXAlc7FjJA/CUEerIV0nwm9FIOBO1L09ZAKOIPAAPDXAEYFwPVHuwIIP5FXKcBDLltdMYZExkAHan/0MQfAH4ljr23V6vFOoUBgC5S9s8AVN4RxgDxB4DefBtGZKNCZUN6OwecWteZGgxuvAoDI2Z8/3pkIKsafLn/zbrEgBGXfJR3XndhBvSIv2I5b4wg35CYKVfTYQCgCTHnhjUQuDbudjjRnVc999sNswOEMPd2H2IAEBuDlc4E0iRK6gsBvWNaaJ2xdS0QDrPl8krxxaXvheigrmAAoJO89QMAk8+FNWT0DwCZiBcATm5EfF1dV5CDgBybJjGYZQAQF4PlwZeG1H8RHUGjSeLuzGiL9JwHEGrqfxj5xv/WarHOYQCgEbH3Ne9DlBxLaZD4A0B3dprBPVF43eX4IkCVJrl8mM0Z8wPWHSP5kt9eo/gDQFo4B42mjd6r472lGbvaXgAVTHr5QPePIOUvOfrXCwMA3aTwIwCDpok/4PAIYCJ6M/VGKh0F7EH8AaCxwUOHSUKhqbicxav4+6DTGjD7dhhH342blY3os9vd3XltllbEAFLiYt1W6x0GAJoRc677EBC/jrsdlejOTVfvHowPEIBKDWuxhtEsfO7V71H8AaDF75pKoo1mv8GXD/GKdzvgItFH5t2205kAToTeCfxcHHXHurCd1BsMAMIg1/hfANTzziGM/gGgu8IugNq6F0OzCEqjfx80MQMQGy0NlvbUf7FcmAtHJzsz64ZxPBUwrtQ/0AuR4ra/IcAAIATE3CszkFLhUZXwxB8AevL+V/lq1fUY+jvfCwB9jP4BoKmRAUBcNDV6uWj8iz8ApEXQAMDQiLiUCk2qeihQfOIPQPxUHL10fRiW6x0GAGHR1HApvOwOOE644t9XaMNQoSmgg+puTc0i+BrJ+RR/AGhhABAb7lMA6jdUV4PbdZM8cffSxIxd4VFhhQBKI+vRkPppKJYJA4CwEHOuXg8hfuitdLjiDxTT//F0THFmETxPASiIPwA0NXgzT/TjKfhSFK9mZNEsRpBYgVc04zgFULF26HxfHLnUx0CK+IEBQJg09P8cwGtxNwMo3QPAzNRkWAFCV8hzuS1NvIXiotlxAaZa6r+UsK+dqmi8Rf2a6S7PAFT1JR1fauIVbL65kQuqawX2XiEi5izNQsiLnEuFP/oH/G4ClLwAoVqr0paHbYAVR/8AMLODt1BczOxMVfkkuPgDQFqE9CRAROKucqdmCiUBQLziD0h5wdhpqyQk2HuFjNjz+rsA3Ff502jEH5AVnwAI5jQZQULabS43gPgDwJbTeAvFxVZdlX57DffUmB3l/SNiGr3rYEg2o1+2aQmgAvJHceyd94ZmnQBgABANtrgAkGVnV0cn/sDoHgDRYkaA4LgIMKD4QzIAiJMt0uW/vc/rymWE22VVuHYMHr3rQbqcGRJJy3JA4cIoHNU77L0iQOx97UpAXBFnGzJaMwA6iKYL7GoIdx+ALbu4CjAuKmYAAo9cJz5IW32JGr0Hb9VoyzLVHgWMKvUP/EIcc9eroVkn4zAAiAor+28Q6Bl9Ee3oH6i8CZD5BO9Gq2YANIz+AWArZgBiY8tJAYCPe8pjOafzAJIp8N6o/CRAZOLfjWH5/0KzTibB3isixB63bADkD+IQ/yG7GQP5loBOTcS5wxOw0ZkaqlzN0aYHt2NswQAgNiYCAA33VNFOCWmr3yCBj27SICPLpwAiE38A4t/El+/cGKYHMgF7ryhZv/pXAJ4LZMOn+AOjo38JQMrK/8U8bAmNjtQQUihMflOj+APA5ukUmrkZUOS0NgrMaLfg+8L1kPovvoz2MUBzcgrdBYc1AOE25Wn0pa5yL0Z0wQAgQsThD+dRkPMBRPpoy7qs8wLA8W7GLUBIWJCQtsKd/wcASwA7bs11AFHz8a1TsEoSAJ7wIf6AzscAoxu962DyFEBkbcvDll8TJy4tuBclumAAEDFinxuWQYqfKFVWGP0DwRcATuqqEpRFmLIAUPPov8hOWzEAiJqdtk4hjHn/0nJdngPI5Ii7FybOA4gw9S/wI/H5O18I0QOpAAOAOOjs/HcIvOKrjqL4A0C3r02A1DAxizBpAWBI4g8Au23LACBqdtumQZP4V/+wMzUAARu1JvBuDNhtGJTNk98M92u+iuau/wzVA6kIA4AYEB//xQhs++vwelsFEH+g9ByA+DqxOLII6WIGIETxB4C9tg/nkCVSnb1nO+4D7BHnEW4KBbSLCotIk87YfVbtPpQoOxQo3O7BBrBQHH7dcKheSEUYAMSE2PvGvwK4Ogpf3h4BjH+UozuLkLYGQhd/AJi9RQOmt3MhYFTM7LCw3QyPXVfVv5+39Lav0yRNoOQecRJ4t8vacSGgVuRvxDF3PBqRM1IGA4A4KTR/C8B7jmUCjv4hge6sjj0A3AIE87II7ke66kEI4NM7N7sXJFo4cCePo38NUwTe1wFEhJvAQ8/dOL4QMNzb+gMM4/+E6oE4wgAgRsTcKzdBiP9VtYAG8R+xm9BXaPPdNjXMyiI4PwWgZ/Rf5NA5DACi4tBdPEy5BM38jJFOhXQgUCV8jN7Dvpsy9vQIblnxdT7zHy8MAGJGfPK62wFx/ZQPNIg/YNoOgNFmEbqqHuaiV/wB4ICdm7kfQAS0Ngrst2OQRZfeUv9FuoTGLFJEo3ffjanwXwRTAFeJY26/K2wnxBkGACbQNPCPAF4Pw7S/Y4BNQF+AUHn+Vr/4A0B7i8Dhn2AWIGyOmNOItiaXQCvgvH8pntcAGDR6n9Ighfuou+p5AFp4E9nCBWE6IN5gAGAAYs7SfkCciuIGQZpG/wCwLm9SBkAH3rMIYR8EVM6X9q3F7ZbN4kt7u/zGGsUfKDkPIEGjdx2tCDEDkIdtnyqOuyvCuRVSDQYAhiD2uu4ZSPxQp/gDuhYAJg2JlCigzSp/siic0X+R/Xdqxk7bcE+AsPj4Vg2YO9vh9/X6t/PxN05b/QYKfPj0ynaMlO8FoAX5f8Xn//BUCIaJAgwATGKv2T8ExF+dC3kXf2B0CiDamXcz6Er1Q0z6ZuGKf7H+Vw+OasFl/XHmwS0QSsssFP+wEuiywhioJuNuzNjaBw+PoK/xYt1GiToMAAxCiEU28uJ0ABsql/An/sDYOQAe+pdkdEneSU9aABiN+AMSX9inBTtwa2DtzN48haN2d1j9rzn1Xyzn/zyJ2gm3Kx8LrIjARtjidO71bxYMAAxDfOradyBl9UcDfVJxEaBC/5S0bq36EwDhYgngH49uj8V3LfMvR7chVa23Ckn8gUonAibpLghGt61xHYDEeeLzt6/WZ5DogAGAgYh9brgJEtdNftf/6D9np7Ax3w7fnZWi2pvUNU4EANGN/oscOqcZR+zOJwJ08bk9mnDQzlU2/wlh3r+UdjGIlCigFgXeDW1PAgj8Vhxzx2I9xohOGACYSq84D8Czoy/8iz8wegqghNOkaQDJNjyLkG7o82ZRs/gX+e7xndweWAMzOyx8+1iVjIriH7asmoBEWudeAAbhdi/qCQDk39Hb8E8aDJEQYABgKOLw64Zhy38AZKZqIZc+rjvwI4ABJDvmLEI6NeheKCTxB4DN0hb+67QuWIwBlLEE8MN57ZjRUeVHDDH1X/rG1GkA81G6/coKaHgUsAfACeLEpTV4olJtwADAYMTcG9YA4mQASgtnotkF0MwsQjqmNQCl7LtjE759XGfczUgs3/1iO/bbwW/qX6/4A6OPApqG0l3ns1LARYAFSPlVccydq4IYIeHCAMBwxN7XPwgp/33KBx46tu6sCbsAxpNFcN3BLcTRfyknHtiKbx7dEdBZ/XH+59rwlU9VWUehLOpey01+oyviAEDH6N1/+mxqhY12J3JS+YmW74lj77xftTKJBgYASWDvG38EyN+Pv/bYsZl1DoAT+rMIjk8BRCT+RRZ8pg0XHdcBi3ebK5YAvvuFdpx9iMquikH/sJVt6A4Aohi9+6tc2YCEUN0L4A84+o5LVSqSaGGXlACEgERb49kAXvbTxyUnAHDDfwdWNQCIWPyLnHJQG359zjTM6OAtV42uNoFfnNmJE/d3eILCUSG9lPNqb4JOHwGAKaN3H5UdyfifBngVcvgMIQI6JpHA3ighiF2u6YMl5gHo9VqnvrYBntzpeT7EJUL23bEJi/9lBg7n0cFTOHCnJiz+Zhc+vWOVOX8gAvGvXLF0M6CkjN51sc7PXgACG2FZx4tj7/XcR5F4YQCQIMQnr18B2zoOQNatbEFaWJ/viKCLMI8WkUWzlZv6QUyj/9L6m3Va+PGZXbjsrGnYhecGYJdtGnDZaZ34xRkd2LLLoTvSOKKvXK56xS6rP5Gjdx1kvD8KmAOseeKo378SZnuIXtgDJQyx73UPy+fPOA8SVzuV68l1wS6J77x0JbXyxFpXQ4XRvwHiX8ohuzXh4F1n4KGXRnDVgwN45f18kNYljl0/ksLCw1px2C5N7vv7O/7sOkTSwYbE6D4ASm7iF/CgeNwNUAI4Rxz9+z+H3ByiGQYACUTsfcM18rkzdgDwv6uVUTkG2K27SkqAMOURQMPEv4gQwBG7j+4a+ObaPP68bAR/fH4Y7/bU5nbpW3ZZOGK3Znxx78bR7EdgfQxv3r+0XPV9AJIv8G54exRQ/EAcc/v1oTeGaIcBQFLZ+4Z/xfNnbAvg9EofZ7JdmNpBBZPwpGQRJi0ANFT8y9lhywbscGQK5362Da9+kMff387hhVU5vPB2Dt29trr/GNk8bWGvWY345HYN2GtWI3baKjU22pcaxDrcef/St0efAqh9sa+EhwzAYhx9+/ejaAvRDwOAhCIEpFwxtBDDrR8BcET55+uy09w7u4pqHW6QEEWA0NUQ/yZAqggxOi++yzYNOOXAVkACmT4bq7oLWNOdx+pMAe/22Fjfb2PDgI1Mn8TgSDwBQluzwOadFqa1WZjRIbDtzBS2m2lhu81SmLVZCpt1VprTT5b4A0CzyKJZZDEiHU4jrDGKP0FPIY2CtJASFa4xgb/BHj6LK/6TCwOABCPmLM3KxxfMQ3PucQA7l37WXekUwHKqrmoqOqjo1UcLPbrU6qFkCiAho/+qhcfe2qzTwmadFuZuX3mFfDYvMZQF+odtDGclsnmgd6hyUJAvSAxmK7trawIaUmW/vgSEkOhssdDUINHSKNDRYqG1WaAp5dz8il9Id5peGX8Ouqx+rAu+Na4xeP32Niyst6dh89T6yR8IvIx89njxhXtHtDeORAYDgIQjDrh6vXz2zM9DyEcAbF18P6NjDwC3AAEwMouQbhioGfH3QlODQFMD0NWaKvvE2wjXvVkuFbyKvxaimfcvpyuVnABAd+y0zp5RHgC8D5H/vPj/7d17kJXlfQfw7+89Zy9c3AWhTWKEXVRYCanGqGk0TC0NyGUqIoZMGqwFTGLtJXaatpNpph2aadPLNM0UY1oNCjbUTEItC4xarVNsuSSThknMCBHWCGIHBbkILLfdPe+vf+zGvXDOeW/P+77P++z3k8HMnvO8v+fZs+ec3+953tuvP33ScFeUMZ4G6AC56YmfwffnQOQIAECBo1ldBrjq2Us6+C+FU5uCTpxKfOW2AiX/2tuklHCzCGXJ0v9QNt0PIOj9b7qHt4dfDfAY1J8n87ceMNIV5YoFgCPk5g37gMp8ACd9eDjeZ8N9ABBcIKRQJNhwI6B81Xn9IiXNEI0zW/rPL/kDQKuXzXsqKLmnUj6P/DyOeHrIXQFPwdMFsmjz3sTDICuwAHCIfHjDS4C36ERvy9mKFuhPa3gVoe59AMKMpfCzfxPtbEr+MduZ29DY/QCynr1fmuCjdzpwKuA5iH+HzO/cbWSYZIUCZQkKQ25c//1nTtz8pbzHYVTEVYTY9293IvnHm+Gm085MSosdx+DvEmYXgI2zdxN/gqOViT7gLZUFm7cnj0Y24UGADtpy7GPHRUx9+RbEwK8rUFxWPhdz+1Ge/ONvUDtG4iSsdX8MHy/Za9Mi3cbKmdoMvS8M+1nv1KOy8Knn8h4HmccVAAep+O3pLC/ab3zpAkoo5oVzkjHwFza69G+inR3JH2piF0A+s3cTLqBx0rLv6shTTMgBLABcpGir/nAW+yDzFesugE7M/k20M5X8NaddDtXamXlXB7+vghJ8lSbF0VDpefV9wc2oaFgAOMgTbYv7LVP0AiHy/n8nkn/yGa65dhGSf/LO0g8/8P4YvBxwsWbvppR8rz3vMZB5LAAcpCrtQ34K8S9CbKPRzIt0GWAm/yQbJI9RgKX/nzdu8bohQxP9KKNSfVWRio0FgGtUBYIpETcK+JdntGgSnQJYOAZeTaNL/yba2ZT8B5XgY5x3PuTGxVb1cztsUkGuYAHgmKUbXn8vFM1ms21xVhFaSiHPAHBi9m+inankH2HpP/V2pt74w+OYuhZA3uJ99nyuADiIBYBr+nqHf1AzW7O3YxUh1C4AJ5K/ueXtaP3WaGQkqZt4M9aJkfC1KUIBYP7jPrCVCAsAB/E6AI7xStKuUT/lQe2N3MM3zKDCd1QrWuDR2kz+Bos+k8G07o+JuzdQGMU6w8Qwo3+6KNFU2412TVZgAeAalTbTXxOGc3eCjoI7SfUYgDySfzpBwsXJLAmbSv7pFkZp3w/A8KfWdMSp/ccXjbYrjLmNuwAco5LTvjordjNo/QIg6ew/DxnOcKPHM7X0b6JdwuQfYoMWSbYCkO1OMkPv88FwzcvWH3yPmaBkC64AuEalPe8hVJXRKkLNYwC49G9p8k95v3+kEPXj1DsGwPLZu5Eu/FJvG4C3UhkL5YIrAK6pcRXAQkg4oSmJj7HehepxmfwNGj37/Ydq8c4anGtnOns30oUqLwbkGq4AOEal/jEARnbV5yVoH23pLKRqUnE0+ScPHKuJmXamkn9GhZFGOQvAvtm7EbwYkHNYADhk2eNdv1CBP65emg/63ihygRD7NsBWq/MXK+zSvyXJP+IGgwWAowk+iPJUQNewAHCIX/baoD6S7HDPaFd9Ki7Z/+/E7N9EO5uSf8x25jYcESL8azN4PwAT/RaPgKcCuoYFgENU/fYIrQOeL94qwrAzAJxI/tktb5sLllIcCwqjcd55lMRHRQMOnSpogg+BKwCO4UGALjF6ta6gI4hqf8vF3zKZdwsAl5N/8sDph7J96T9mO4GiVbrzeXNnpP6vJu15jYvSwQLAJZr1NQDifxOm8R3aUg55HwDr1XkFCrv0b1vyj/cua0n5YkBpS/a588fd8eS+yWmOj7LFXQAuUWm3awd9mC9Zc8citJTOOjL7N9HOpuQfs525DaPHqdHE5vsBJH91giOUekptAI4l7oqswBUAp2hb8ZYlza0itJTOBm4TGDBJ4zSX/nNJwhGSf/LO4m+WYWGUZwGQbPYetHW4F7EEvz3quMleXAFwSp1jAOJPxnMWfuCJTgN0IfnH3yB5jEIs/SdfFUmrAMhi9m4E7wroFBYAjlix7kDzafS1JgoS9B1iZYEA/Hzgxb4OgIEvcKNL/yba2ZT8zWiJWQAkG4JFS3gsAJzCAsARZ72eSQg6PSkpy1cRYt8J0IrZv4l2Duz3D5v8IzPz2lS7JXBhZu8GKG8L7BQWAI7o8cuXe+LnP0nPaRWhWXrQ5PVG39CK5M/9/qmFN1wYtUp3xN+sOMl9mFrD5uWAncICwBEloDnsoTy5FgkpDTDWKYAuJP/4GySPUYilf7OrIq2XnAZYwASfZMiKdlPDoPzxLABHVNBzIewRvsmPBU5ZjAFOKBdx/z/3+9duZ9mqyIBW7wws+7RcKt0PeOuKdQeaE0chBiek2QAADEtJREFUK7AAcISWG84HtAjxL2rLnFQZ0KUzsxAxkjQ2Mvs30c7sDDd8v2m2M/UOM/hOHQgV+X1mmgUfzrPAhPR7oSywAHBESXE6eZTw3yy2FQgtUQ4AtCL527e8Hb7fRJ3F78CC16ZJetAkMY41Ccu2D9YICqCv1Dsx73GQGSwAHLHpN69+W4CUpyf2riJMDLsLwJnkb0pKs+1cVxPSLYxiXwvAgtl7PWGHJ30yJpcBknEsAFwhogocyHsYea0iTGk6Gm5ooRlK/ukECRcnsyRsKvlnVBiFTf411CwALE7uQNTh1W6pZQ3Y3UhFwQLAJYL9eQ8hWDqrCFMa305/6HEUcIYbP16SdgmTf/wNaseoEarVq3FHwBxFW1xIthShlQoLAEewAHCJ4nt5D8GMaF9lZenDFY0B9yfJY/afygzXtuRvMOEmDpHNqkge9wMwNXs38VqLhzOJg5AVeB0Ah4jKDhUL1hpTN/x3nDnmEBqkL2zzSLGjb19rGxPJ31Q7U+8Rrftj4u4tLYwmembzX7S/Ru6f79Obfmvm8bwHQWZwBcAhk3tO7YbiTIrFv5WuG/ta7SdtTv7JA6cfqmY7U8nfssIoRLv3l0McbzKia1tm7wbU+bBR0bAAcMij99/UC2BL3UbJdv9Z6YbxXXkPoY46L6ilM9zgeJYk//gbJIoxpXxk2FbhP04OfPgENn/YKCIWAI7xId9JHKRA31FTG49iWtNb1Z+0YvZvop1NyT9mO3Mbjghh6rUJ3+7K0lGUUCni7D05FUeOMyKABYBzGsf1PKeixxSa3leRRROZj0/4UfUnrEj+li1vGxEzjkOFUYP0oaPhIJxM8AG8SmV73mMgc1gAOGbjJ2f1QPFw/0+1M/Tg/1LK3xkUCI3Si9taflK979AsTf7xN0geyval/7yS/xDXNzm6El7/c3v6+Btv/jjH0ZFhLAAcJJ7/EEJfFTBegWDDKsLtE3ZHuwRwZmxb3jax9G9T8jclYrAhzW8oYgGQ8DOn0M0vrp5T53QbKhoWAA7qP01Hvmkmmq2rCHpxXsvuxwBcuGSbSB0EPxQnTPJ2NiX/mO3MbRg9Tsq/89UN/4crG47ate6f9qqbh28biEIWYQHgqN7GC1+GIODqOKbksYoga6bO+cfPQLQdwF8AOGFH8s9ohpvi8nbMzuJvVrjCSE9DZM0FbfyrkBGSM7BiFj+8QqFHfvHCmReS9UK2YQHgqKeXX3cSvv553uPoZ3YVQYFD5XO9XwYA+ei3j8gtT67Ghd42APdDw1wO2dLkH3+D5DFqNte6P4aPZ6Iwyj35HwT0iyiVp8r8px48cn7y1zFyBSqulGfvQZ/A4M714YHTjMkhLAAc9qFDHY8A8mLe4wgnSoGgD2z83VnDrscqczZ2y61PPoqew7Og+gkAzwHwsx2/iRD5L2/XfCLX5G9K5GA+gP+A6t04XbpGFmz6W5m38RQAbPnsVUcEsjZUl/nO3hN2rOcqPfJPyUZJNpK8B0DpWvrNriv9sv8SgMvzHosRgq93ruj4/TBNdde974f23QPBbwNoH3i0SsMY43Bzhlv7SdPJP3LMzF+bw1D5FsR7ROZvPFCr0dINXVdqr74KoClU1BhqD9doZVTPP3Su7PhCVp1RdlgAjAJ3PrHvLvHxbyj+is8PLp7xfuXZz0+/GGUj1dUevr//16D6OQBLADQMPhljFKnNcAM2MJ3868Y0MfsvXPKvANgG0UfRcHKTzHkx1BHvSx7v+nsRjZUg6w8nswRfz1GgsaNz5bR38h4ImccCYJS4a93+P1bo3+U9jgQOV0rlW7bee/WhJEF0x6euQElWQnEPFNdGDxD4QN2Ha7czkeQ0Zt8BT+S69J9J8v8pgG9BsV4W/Pub4QY36I5HDo9taOx+WYFp4YdmRXIPpIrPbl7VEbybgwqJBcAosmT9/m9A9YG8xxGZ4Jj63m2bV03fazKs7viNWRBZBuinAHSE26jmD3XaBcWzaenfpuQfYoOwr8vItoLXobIZnr9R5m3aEXJUNd25rusOgQ65D0cxEnyA//rQ6zPmrV4tGR5LQ1liATCKrF6t3o+n7H8Igt8p0F/+Hd/XeVvuu/aHaXYyWAz4ywG5pnqjwAfqPly9nU3Jf8ST7u33PwRIJzx/I+Zu2iliNkvfte6Vf1bI/SZj5uidSql8fdIVN7JbcdIAmaEqi9d1/Y1A/yTwj5/7u0MPVaS0aOuK6Xsy61Eh2Ln8l+HpJ6G6GMDV/U9c0rJGgLAdhWycV/IP3ffIdtYl/1fh6xZAvyMLOn8QcgSxLFzT1dTU4u+A4qY0+8mAD+DuzpUdnXkPhNKV+1c85WPxuldWSf89A5ovfVaG/LeOVN89stv3/cVb7rv2cJq9BNHtn74KwFx4OheKBQAu437/eu1yL4zOQ7ETIi/Ak60yd6PR3UZBlq7d2+aXSrsAXJFlv0YJ/qhzRcdX8x4GpY8FwCi2ZP1Pb1SVjdBLD14KllqRoAC+dvGM96dRj/ZPm25b0YzyudnwvLlQzAVw4/AGYQOFbMz9/mHjvQbBC1B5AQ3yrMzZ2F1lq8zctXbvB7VUehHApDzHEdNDnSs7Pp/3ICgbLABGuWUP7xnfO6b0lwr8HoCSucixCoQDqvK5zatmFOKSo7r901dB/DkAZkNxK4AZwRu9+58Q7UI0sn2/f5S97GFfG2AfVHdBZQfgbat3nn5eljyx7yPw8TyA1rzHEooCUDzUuWrGgxBx4ghGCsYCgAAAS9bu+4jv6VcFmJ1dr+8WCd0AvjJBGr+2fuU0M5dWzYH+57JWNMvNgDcbkI8BOhtDd7HYnvxD9z2yXar7/fsgeAk+dgKyA1r5b5m/6WjIqLnqXwnwngZkaq4DCbOgovjK5vs6vpTFcMgeLABomMXr9s4T9VYDuDWD7k4I5JEe6VvzzMpZb2XQX6Z017Ix8Es3wdePAnIdgF8CdCaAxtobhYocoW29djYt/SsA9ADYC8HLUPwE8L6H8rgfypz1hS0KFz/2yhWeh62AfDi1TkLvMana8LxCH9iyauYTRsdEhcACgKpavLbrBs/zVyl0OYCJBkMrFLtE8K/nyhf/5fl7rz9rMLb1dNuvllG+YirQNwu+dyNEPwBgFoCZAEKemObEfv83AdkDX/dCsBu+7EHjuD1FTva1LFzT1dTc4v+1Kv4AUb9zIx0OEW3lXoHX4Jc+seUz038UaUNyBgsAqmvg1KbZvq+3C3A7gA8CKEeLIkcAf1f/jYnKmzavuuaNFIZaaLptyQSg+RqIToOHdgDToAP/338fg4FdCYVJ/hcAPQDIQQAHoHIQggPw/YNoqLwqczpH3aVll6zvuh3qPwqg7d0Hk83e46oAuuZ8uefPRlsBTsOxAKBIFq7pamoYiw94XmWW9n+RTVDBRCguA+QdABDxT6gvr4vogTJKXU+tmvFazsMuPP2fe94H7ZsGX6cC/mR4MgmKSYBMgugkAJOhMhnQSQDGGz/or79tN4DjAI5BcQziHwfkeP9jchyKtwEcQl/lYJxL6o4Gy777xpi+7vN/qNAvKjB+8JnMjrvb7ot8YevKjv/NqkOyFwsAIsfoMwubcNnEsejzW1Hp9eB5DRhMNuMh0gDf91BCKyoAgFPwPB+qveg/IBMAuuH7vSg1+Ch7p3Dm5DlZ9KxVp2UW2aJ1e97bAO9BqNwPs7vYqlPshHiri3KGDWWDBQARUU6WPbxnfM/Y8r1QXQ7gFpj9Tj4JlQ0e8Nim+zpeMhiXHMECgIjIAnc+/uoUlb6lonob4N0K6HsihugD8LICzyvwXF93aadtF9Miu7AAICKy0N2P77+qD5XpqjJNPG1T9S7vf0YnQHBGFCcBvCPA675f2tN7DnuZ8ImIiIiIiIiIiIiIiIiIiIiIiIiIiIiIiIiIiIiIiIiIiIiIiIiIiIiIiIiIiIiIiIiIiIiIiIiIiIiIiIiIiIiIiIiIiIiIiIiIiIiIiIiIiIiIiIiIiIiIiIiIiIiIiIiIiIiIiIiIiIiIiIiIiIiIiIiIiIiIiIiIiIiIiIiIiIiIiIiIiIiIiIiIiIiIiIiIiIiIiIiIiIiIiIiIiIiIiIiIiIiIiIiIiIiIiIiIiIiIiIiIiIiIiIiIiIiIiIiIiIiIiIiIiIiIiIiIiIiIiIiIiIiIiIiIiIiIiIiIiIiIiIiIiIiIiIiIiIiIiIiIiIiIiMg+/w9TihDRJT0FIAAAAABJRU5ErkJggg==;" vertex="1" parent="1">
          <mxGeometry x="1174" y="40" width="452" height="452" as="geometry" />
        </mxCell>
        <mxCell id="F2KbXpKkZdYXq5yLTn8Y-7" value="" style="shape=image;verticalLabelPosition=bottom;labelBackgroundColor=default;verticalAlign=top;aspect=fixed;imageAspect=0;image=data:image/png,iVBORw0KGgoAAAANSUhEUgAAAgAAAAIACAYAAAD0eNT6AAAABHNCSVQICAgIfAhkiAAAAAlwSFlzAAAOxAAADsQBlSsOGwAAABl0RVh0U29mdHdhcmUAd3d3Lmlua3NjYXBlLm9yZ5vuPBoAACAASURBVHic7N13nFx1vf/x17Sd7ZveE5JAQiCEUBJ6AOklICBFBOmiXrH+xAKigIpeFQsWygUFpAWkSJFA6AmhpTdCetnN9jK7O33mnN8fk8QEUnb3nJkzs+f99LEPks2e7/m47bznWz2IiIhkXz/gQGAsMBAYuvW/A4EhQF+g6lPXlADFQCcQ2vrWvsOfG4GNwLqtb+uBtiz//+g1PE4XICIivUoQmApMBiYCE8g8+Afn6P4tZMLAIuAj4ENgGZDK0f0LhgKAiIhY0Qc4duvbNGAKmVft+SQKLCQTCGYDr5HpQRAREZFumAz8DFgApAGzwN4SwJvAD4BJNn9uREREeg0vcBxwJ7AW5x/gdr9tAv4GHGPXJ0xERKSQjQXuALbg/EM6V2+fADcDo2z4/ImIiBSMIuAi4FUKs3vfrrc0mbkCl2/9nIiIiPRKg8i82q/H+Ydvvr3VAD/ks8sURURECtZg4NdAGOcftPn+1gH8CQ0PiIhIARsD3APEcP7BWmhvCeChrZ9DERGRgjAIuBdI4vyDtNDfYsBvyexiKCIikpcCwLfJbJXr9IOzt701k5kjEOzyV0NERCQHzgJW4vyDsre/rQHO7+LXREREJGv2Af6D8w9Gt739i9ydfSAiIrKTi8gcjOP0w9Ctb63A9Xv9KomIiNhkMPAczj8A9ZZ5e5k8XTao0wBFRHqPi8nsad/f6UJ2pbQiyKj9BjBgaBUDhlQwYGglA4dV0ndgOaXlQQJBPyWlAXx+H2UVQTxeD7FoklQijWEYdLRF6WiN0t4aJdQSpr46RH11Gw01IarXNtEZijn9f3F32oGvAE86XciOFABERApfMXA3cJXDdWxX1a+U/Q8dzpgDBjP2gMGMnjCYISP7ZPWezXUdbPikgXUf1/PJwmpWLqyhoy2a1Xt2013AjWT2EXCcAoCISGEbCTwDTHGyiGBJgAMPH8HkY8dwyDFjGD1hMB6HnzCmCTXrmljy/kYWvLOWJe9vJB5NOlsUvE+mp2az04UoAIiIFK4TyXQrD3Ti5qXlQY48ZRzTzp7IwUePJlDkc6KMLkvEUyz7YBPvzvyY92d94uSQQROZQ4ZecaoAUAAQESlU3yGzC50/lzctCvqZcuJ+TJt+IFNO2I+i4pze3japZJqFc9bz+tOL+fCN1aRTRq5LMMgMB/w+1zfeRgFARKSw+ID7gGtyedN+g8o567LDOe2SQ6nqV5rLW2dda2OYN55ZwszHF9CwJZTr2/8B+D6ZQJBTCgAiIoUjCDxODnebGz95GOdcOZVjzzgAn9+bq9s6Ip02mDtzJc898AFrltXm8tYzgCuBeC5vqgAgIlIYysms7z85FzcbP3kYl3/3BCYf484D7xa9u57H/vQOnyyqydUt3yIT7NpydUMFABGR/NePzJa+R2b7RvuMH8Tl3z2BI04el+1bFYR5b63hkT+8zfqP63Nxu6XAKUBDLm6mACAikt+GArOAidm8Sd+B5Vz1g5M44ZyJeLx6NOzINExm/Wsxj/zhbULN4WzfbglwEpkTBrNKX2URkfzVH3ibLD78PV4PZ156GF/+3omUVug02z2JdMR57K53eOmReRhpM5u3WkBmqCerwwEKACIi+akUeBU4Nls3GHPAYL5+2xnsf8jwbN2iV1q3op6/3PwSa5fXZfM2HwCnkdlGOCsUAERE8k8QeIksTfjz+bx88ZvTuPCrx+D16THQE+mUwYy/zeGpu9/NZm/AHOAMICvjDvrKi4jkFx+ZpX4XZaPxQcOq+O6d53Lg4SOz0bzrrFq8hd9//9/UbmzN1i1mAtOBtN0N5/e+jSIi7nM/mW1ibXf8ORO55f8uZtjoftlo3pX6D6ngpAsOpnZjK5vXNGXjFvuRWQL6qt0NKwCIiOSP7wA/trtRn9/L/9x+Jl/+3okEigpz6958Fijyc+wZB1BcGmDp+xsxTduHBI4GashMDrSNhgBERPLDiWSW+9n6hC6vKuFHf76ASUftY2ezshuL39vAb771TDYOGkqSmRT4ll0NKgCIiDhvFDAPm0/1Gz6mPz+59yJ1+edY9bpmfv6VGdRttn0VXzNwFLDGjsYUAEREnFUMzAam2NnoQUfuw4//8gXKq4rtbFa6KNQc5udffYrVS7bY3fQiMiHA8rkBmgMgIuKs+4Cz7Wzw0OPGcMu9F1NSXmRns9INxaVFTDv7QFYuqqGhxtYTBoeQmRT4itWGFABERJxzPvBrOxs8/IR9+fHfLqSoWJP9nBYo8nH89IlsXNVIzTpbd/Y9EpgPrLLSiAKAiIgzhpBZ411qV4NHn7Y/P/zzBZrpn0d8Pi9Hn7Y/a5bV2rlXgIfMoUGPAJ09rs2uakREpFseBw6xq7GpJ43jh3++AL9fv9bzjdfn5ZjTJvDxgmo7hwPKgEnAoz1tQN8pIiK5dw1wo12NjZ88jFvuvViv/POYz+/lmNMnsPi9DbTUd9jV7H5AHZkVJN2mVQAiIrk1GlgMVNrR2JBRffnNjCuo6l9mR3OSZe2tEX5w8UN2DgeEgAOA2u5eqB4AEZHcegw4yI6G+gwo45ePXM6AIbZkCcmBYEmAQ44byzsvLCcRT9nRZDEwGHi2uxd67bi7iIh0yVnAmXY05PN7+fFfL2TIyD52NCc5NGJsf35w1wV2nsR4GXBSdy9SD4CISG4UAc8BA+xo7LqbTuGYMybY0ZQ4YMjIPhQFAyyeu96O5jzAMcD/AV3uVlAAEBHJjW8DX7KjoWPPPICrf3SyHU2JgyYcNoJNqxvZvNaWUwT7AzEyu0p2iSYBiohk3yAym7ZUWW1o2Oh+3PnM1ZSWB61XJY6LdMT59rn327U8MATsS+bMgL1SD4CISPb9HjjWaiP+gI/bH/oSA4dZzhGSJwJBP/tNGsqbzy3FhlOEtx388FpXPlgBQEQku8YAD2DD79tLvnEcx511oPWKJK8MHFZFOmWw/KPNdjR3KPAPurBDoFYBiIhk1w+BgNVG9hk/iAu/dowN5Ug+uuQbxzFqnC2nQZcCN3XlAxUARESyZwRwldVGvD4P3/zV2fgD6rTtrfwBH9+842y7lgZeT6bnaY/03SQikj23Y8PY/3nXHsXJFxxsQzmSz/oPqaCjNcqqJVusNuUDgsBLe/ogrQIQEcmOwcA6LJ72V9W/jHtf+zolZUX2VCV5Ldwe4+un3UOoJWK1qQgwij2sCNAQgIhIdnwbG476vezbx+vh7yJllcV86dvH29FUKXD1nj5AAUBExH5FwLVWGxm53wBOuWiyDeVIITnt4kPZZ/wgO5r6BnsY6lcAEBGx33lkNv+x5KofnITPp1/TbuP1ebjsO7b0AowGzt3tfey4g4iI7OQ6qw0cdMQoppy4nx21SAE64uTxjJs01I6mvrW7f1AAEBGx11jA8kb9F1x/tA2lSKHyeOBL3z7BjqZOBMbv6h8UAERE7HUdFn+37jN+EIdN29emcqRQHXb8WMYeONiOpr64q3cqAIiI2MeHDRv/nH/dkXi0SFuA86450o5mLt3VOxUARETscwxgaeC2/+AKpp2t/f4l47izD2TgsEqrzUwgc0bAThQARETsc57VBs7+8hRt+Svb+XxeTr/kM8/unvhML4ACgIiIfSwFAI/Xw4nnHmRXLdJLnHLhIfj8lh/XX+RTz3wFABERexxMZgVAjx163Bj6D6mwqRzpLfoOLOPwEyxPCh0JTNnxHQoAIiL2ON9qAyedrwN/ZNdO/oItO0KesuNf/Ha0KDuZRGYZ0MlkdmEqc7QaEXcLAxuA14D7gWVZvNdud1zrirLKYo48eZfLtSVPbFzVyKszFrJo7gYat4QAGDS8isnHjOH0Sw5h1LiBWbv3YdPGUloeJNIZt9LMKcAd2/6ihSb2CQJ/AL6KelZE8lEauAf4HpCwue0+ZE5d6/HP/qkXTeaGX55tX0Vim1Qyzf2/nMXMJxZiGuYuP8bj9XDmpYdx7U2nZG0S5x9/8DxvPmcpw8aBfmROCtSDyiZB4GXg6+hzKpKvfGQOR3mZzGE9djoWiz/7Uz83zqZSxE7RcIKfXvU4Lz+2YLcPfwDTMPnPo/O59donSCXTWanl2DMtLw8NAtO2/UUPK3v8Efic00WISJecBNxpc5vHWbnYH/Bx8NGjbSpF7BINJ7jt2idY/tGmLl+z9P2NPHDHa1mpZ/LRoykqtjxyv32bagUA6yYB1ztdhIh0y9eBiTa2ZykATJw6ipIyuzslxIpYNMkvvvokHy+o7va1Lz++gPUrG2yvqajYz0FHjLLazEnb/qAAYJ3lfb9FJOd8wLU2tRXkU8uruuvwEyytHhSbxaJJfv6VGSz7sOuv/HdkGiav/WuxzVVl2HBGxCS2DoHpwWXdKXv/EBHJQ6fa1M5UoNhKA4cfr4N/8kU0nODWqx/v8cN/m8Vz19tU0c5sGCoqAg4EBQA7WO6PERFH7GNTO4dYubi8qoThYwfYVIpYYaXb/9Maa0I2VPRZo8YNpLyqxGozh4D2AbBDudMFiEj3lZeVVCyb+ZDZUbOGdLLna6vveOg/PPnaRz2+fvzkoTr5Lw9Y7fb/jCx9UT0e2P+QYcx/e62VZg4B9QCIiEsNHzwAMDHSSUvtrN/SaOn6/Q6ydHig2MCubv8d2XCC325NOHSE1SYOBQUAEXGpaVMnY6bTmIZhqZ11NdYCwPiDh1m6XqyJRZP84mtP2dLtv6NDjh1ja3s7GjNhkNUmJgMeBQARcR2f18sl00/CSFl79R/qjNIcCltqY79JCgBOiUWT/Pz6J1n2wUZb2/V4PXbt3b9L++xvOQBUAQMVAETEda644HTGjR6BkbK2I/A6i93/5VUl9B2o40KcsL3b3+aHP8CZlx5mx6v03Ro4rIqySksLTwBGKACIiKscN2USN3/jCgCMpLUAUN3Qaun6wSOrLF0vPbNthz+7u/0hs6nTtTdld3W4xwPDRvez2sxIBQARcQWf18vVF57Jg7+9Cb8/c1iLkba2Z3uLxe7/oaP6Wrpeui9bY/4AEw4bwS33XZy1w4B2NHiE5fA4UssARaTXKispZsTQgUybOplLpp/EuNE7z542jZSl9lvarQWAwSP6WLpeuidbY/6Qefjf+sAXc7alsw3fOwoATtsw+0mnSxALRk+72NL1keb3baqkMJX2P8rS9VZ/fkzTYg+AywLAxlWNvDpjIYvmbqBxS2ajm0HDq5h8zBhOv+QQRo0b6HCFuxcNJ7j9uhmsmL/Z9rYPOGwEP8vhwx9s+d4ZoQAgIq5leQjAYgDoN7jC0vW5kkqmuf+Xs5j5xMLPHIm7eU0Tm9c08dIj8zjz0sO49qZTctIF3h297eEPUNW/1GoTQzUHQERcyzSsBYCmUKel68urLM/kzrpUMs2t1z7By48t+MzDf0emYfKfR+fz06seJxq2NrnSTr3x4Q9Q2ddyAChTABAR17K6CVCoM2Lp+tLy/D8C+P5fzmLp+10fM1/+0SZuu/aJvAgBvfXhD1DZ1/J5AKUKACLiWqa5+1e0XZFMWetBKC3P7x6AjasamfnEwm5f9/GCam699gkinT0/Y8GqbbP9s/Hwn+Dwwx+wYx8ABQARcS+PxQCQSlvrQSirDFq6Ptte2cWYf1etXFDNbdfNcKQnoDfN9t+dQJHleRYlCgAi4lom1gKA0cOH4zbFJfk9BLD4vQ2Wrl+5oDrnwwGxSILbrnkiKw//A/Lk4Q8QKLI8h189ACLiYpZ7AKwNAVgdgsi2pi3Wz7TfNhyQixAQiyb5+Vd7b7f/jvzWewAUAETEpWx49lrtAUinrA0hFIqVOQgBbuj234n171+dBigi7mR6rP8GTVtcRZC2OIcg2wYMs++sgpULqrk9S3MC3NLtv6N41NpJlkBcAUBEXMmz9X9WBPzWumHzvQfA7jPtV8zfbHtPgJu6/XcUjykAiIj0nNdaAKgotbYUK21xGWG2nX7JIXh91j5Hn2bncIDruv13EI9ZO8cCBQARcTWLo6DlFgNAR1vU0vXZNmrcQM744mG2t2vHcIAbu/13ZMMQQEwBQERcy+O1GABKrK3jb2u2tpNgLlx70ylMnDrK9nZXzN/M7dfNIBbpfgiIRRLcdm3v3OGvq2zoQWlRABAR97LYA2B1CCDUbO0woVzwB3z89P5LOOjIfWxve8X8zfzsmu4NB7h1zP/TmuvarTbRqAAgIq7l9VqbxFdearUHIP8DAEBxSYBb7rs4KyGgO3MC3Dzm/2lN1gNAkwKAiLiWx2IAqCq3diJbqACGALZxOgTo4b+zproOq01oCEBE3MvrC1i6ftgAa+vk6za3Wbo+15wKAXr4f1bTFss9ADUKACLiWl6ftR6AEYP6Wbp+85pGS9c7Idsh4NNnB+jhv2s2DAGsVwAQEdfy+K31AAwf2MfS9TXrmnt82p6TshkCPt4hBOjhv2umCZvXNlltRgFARNzL67N2otpIiz0A8ViKxlrLr+QcUVwS4Cf3XMQBh42wve2PF1Rz+1dmcNu17l3nvye1G1uIdlpeBqgAICLu5bXYA1BeGqSqvMRSG2uWV1u63kklZUXc+o9Ls7NEcN5mVsxz91K/3flk8SarTbQBzQoAIuJaXn8ReKxtdTt8YF9L169ctAnTjqMJHZLN4QC7FXK3/45WLbEcjJYCKACIiHt5PJZ7ASbsM8TS9asX1xEJd1pqw2mFEAJ6y8M/3NnOxlXNVptZAgoAIuJyvoC1zXwmjh1m6fp1y5toa2vFMPL7YKC9yecQ0Fse/kY6TVuojQ0rLE8AVA+AiIg3YO2hMHHscEvXxyJJNq9uJtReWHsC7Eo+hoDe8vAHCHW0sfGTJsIdlicAqgdARMQXsLaf/7gRgwgWWVtNsGZpI5FIJ4mE9SNynZZPIaA3PfzjiRiRcCcr59VZbgpYCAoAIuJyviJrAcDn8zJhn6GW2lg5vxZMaG1twjQLd0LgNvkQAnrTw980TdpaWwBYucByAJgPxEABQERczlsUxGPxVMCDLM4D+PijWmKRJKlUko6OkKW28oWTIaA3PfwBOjpCpFJJkok065Zb3j1yzrY/KACIiKt58OALWusFOHR/aw+5VNLg43m1QOaXfSJZ+EMB4EwI6G0P/0QiTmdHZrOolfPqSMYtTxadu+0PCgAi4nq+Imub+Rx90Fj8Pmu/ThfP+e+GQK0tTZimYam9fJHLENDbHv6GYWS+F7buE/HR6+utNpkGZm/7iwKAiLieP2gtAJSVBJk8bqSlNpa+V0MqlXnop1JJ2tpaLLWXT3IRAnrbwx+gLdRKKp0CIBFPsfS9GqtNvgds/8ZSABAR1/MXl1puY9oh4yxdH+1M8PGHtdv/HomEC36DoB1lMwT0xod/JNxJNPLfr/+SOdXEoymrzc7c8S8KACLieh5fAK/FDYGOPdhaAACY89Lqnf7eFmoh2QuWBm6TjRDQGx/+yWSCttDOPUAfvbHBjqZf3vEvCgAiIkCgpMzS9eNGDmJI/0pLbSx/fwttjZHtfzdNk5aWRgyjd8wHAHtDQG98+KeNNM0tDTstBw01R1mxQ+9QD21m6/r/bRQAREQAf3G55TaOP2S8pesNw2Tuy2t3el8qnaKlubFX7A+wjR0hoDc+/LcFvnRq55n+s59fTTplOQQ+BTufOqUAICICBIpLLZ8MOP24yZbrePelNRjGzg/7eCJGa6vlA2DyipUQ0Bsf/gCtbS0k4vGd3pdKppnzwurdXNEtMz79DgUAEREArw9/0NpkwIP3G8GYYQMstdHaEGHRO5897jUaDdPeC84L2FFxSYCf3HMRE6eO6vI1E6eO6pUP//b21p0m/W0z742NtLfGrDa/Hvjo0+9UABAR2SpQWmG5jbOPOdhyGzMfWcauevw7OkJ0drZbbj+flJQVcfuDl3LWZYfj8e6+B8br83D25VO4/cFLe93Dv7OjnY6OXX9d33rmEztu8Tif6v4HBQARke0CZdYm8QGcM20y3j08yLqiem0ry3az5jsUaiWyi1eKhcwf8PHVn53On56/jnOunMrI/QYQLAkQLAkwcr8BnHPlVP70/HVc/9PT8Ad8Tpdrq3C4g1B76y7/bfkHW9i0yvJ+ECbwj139g7UjrEREehGvL4CvqIR0ItrjNgb3q2TKhNF8uMLarm0v/3Mpk47Z9VHDra3NGIZJebn1Hot8ss/4gVx386lOl5EzkUjnbjd8Mk146cEldtzmdWDNrv5BPQAiIjuwoxfg88cfYrmNDSubt58PsCuhUAvhcIfl+4gzwuGOPU7sXPTOJjastGXi5wO7+wcFABGRHRSVWg8Apx05kYF9rb86f/aehZ9ZEbCjtraWXjcnwA06OkN73OrZMExe+Ictr/7rgGd3948KACIiO/AGiixvDRzw+/jSaUdarqV6bSvvvrjL3tvtQqFW2kKtu5jiJfmovb2N9tCeV3N88Mo66jbaciz0n4H47v5RAUBE5FOKyvtabuPik6dQXmpte2GA5+9fRLh9t7/DAQh3ttPa1tSrNgvqbUzTpKW1iY6OPT/YIx0JnrtvkR23DAP37ukDFABERD4lUFaJx2vt12NZSZALTjzMci3hjgT/eXjZXj8uEgnT1FSPkbZ8XrzYLJ02aGqqJxoJ7/Vjn7tvIR1tltf9A9wP7HESgQKAiMineDxeikqrLLfzpdOOwu+z/mv2nX+vonrtrpeK7SiRiNPQWEcy2XsOECp0yUSCxsYtJBJ77sUBWLe8iXdfWrvXj+uCOPD7vX2QAoCIyC4UVVofBhjSv5Izj55kuZ10yuChO+aS6sJ+8Ol0isbGOjo7tULAaZFImMbmOtJd6JUx0iZP/OFDu4Zx7gc27e2DtA+AiIOMXra/e2/iKyrBFywhHe/5ngAAX//Cibzy/jISKWtd8zXr2njpwSV8/rq9LzE0TZNQqIVEMkHfPn3xePRaL5dM06S1tZlodO9d/tu8/M+lXerl6YIY8OuufKC+K0REdiNYaW1ff4BhA/pwqQ0rAgBmPb6C9Suauvzx0UgnDQ21nzlgRrInkYjT0LClWw//NUsaePmfe5/n0UX3ANVd+UAFABGR3QiUVeD1W993/tpzp1FVXmK5HcMweehX75GIpbp8TSqVorG5jvb2Nq0SyKJMr0srjY11pFJd//pEOhI8+Mu5e9zvoRtagV929YMVAEREdsODh2BlP8vtVJYVc/3nj7ehImiobufBO+bu8rCg3TIzBwk1NGwhbnFIQz4rHo/R0FDbo02Znvjjh7Q0dL23YC9uBbrcRaQAICKyB8HyPni81g+gufiUqYwcZH1iIcCi2Zt5bcaKbl+XSqVoamqgta0Zw9ByQavSRprW1iaamupJpZLdvv6tZz5h3hsb7SpnBXB3dy5QABAR2ROvj2Blf8vNBPw+vnvpaTYUlPHv/1u0x7MC9iQS7qS+fkvmFauGBbrNNE06O9upr99CpAtr+3dlxUe1/Otv8+0s67tAt1KIAoCIyF4Eq/rZ0gtw0pQJnDL1ABsqyswH+PvP36W5tmdHAxuGQSjUSv22CWvKAXtnQiQapqFhC6FQK6ax92WZu1K3McQDt83GSNv2SX8UeLW7FykAiIjshcfjo9iGXgCAm6+eTt8Ka2cNbBNuj3PXjW/Q3trzneNSqRQtLU00NNZ2a+a628RiERoaa2ltaerWJL9PC7fHufvmt4mGuz9ksBvNwPd6cqECgIhIFxRV9cfjs751St+KUv7fZafbUFFGY00Hf/vRm8Qi1h4oyWQiEwQaet6t3euYJpFImIb6WpqbGy3vsBiPprj7prdprLF1k6bvAg09uVABQESkCzweL8VV1vcFAJh+7MEcN3mcLW0BbFrVwj03v00yYX1iXzKZpLW1ibq6ajo72105WTBtpOnoCFFXX0NraxPJlPWtlRPxFHff9BbrljfaUOF2LwD/7OnFCgAiIl0UrOiHN2D9hD+An1w9nbISe9oCWLWongdum2PbuHI6nSYUaqWurpqW1ibicVsOqMlr8XiM1pYm6uuqaW9v69IWvl2RTKS59yfvsGpRvS3tbVUHXGulAQUAEZGu8ngo6TfYlqaG9K/kZ9eeY0tb2yyZW829t7xNMm7fq3bThOjWkwbr6mpoC7WSTPSew4aSyQTtHSHq62toaqonEg3bujAilTK4/7bZPV6xsRsmcB1gqTtBAUBEpBsCJRUESsttaeu0IyfyJZu2Cd5m6Xs1/NWGOQG7kk6nCHe209BYS339FtrbW4knYoW1gsDMvNJvD7VSX19DQ0MtHe1tlib27U4skuTuH7/F0rk1djf9R+Alq40oAIiIdFNx36Fg0wE73/vSaRwyfqQtbW2zalE9f/zua3S2Ze8MgFQqSUdHO02N9dTWbaalpZFwuCMvjyJOJpOEO9tpbm5kS101TU31dHS2Z+Whv017S5Q/fvc1u1/5A7wH/MiOhhQARES6yRcootiGLYIB/D4vv/6fC+lj09LAbTatauH33361x/sEdIdhGESjEdraWmhoqKW2djNNTfW0t7cSjUZ6tEteT6VSSaLRCO2hNpqb6tlSu5mGhi20hVqJxSKYOZjU2FDdzu9ueJVNq1rsbroW+AJgS8rSccAiIj0Q7DOQRLgDI2X9VfaQ/pXc8fULuOG3j2LYOABdt6mdX39tJtfcciwHTBlqW7t7YxgG8XjsMxMH/f4Afn8An8+39c2Pz+vF6/Xi2fpf8IDHg9fjybRlmlt3KzQxDAPTMDAMg7RhYKTTpNIp0uk0qVQyp0Fjd9YsaeC+n75DZ8j23pckcDGZEGALj10NuZiln9YNs5+0qw5xwOhpFztdgqs5/fOTikforFtv2xj4k699xB0P/ceexnbg9Xo497pDOPWLB+LRb/2sME1465mVPHPPQtKpnu0QuBdfJ3PUr200BCAi0kP+YCnBCnuGAiBzYNDlZxxlW3vbGIbJc/ct5O8/n9Oto4Sla6KdCe695W2e+sv8bD3878Dmhz8oAIiIWFLcHNNpAAAAIABJREFUdzBef5Ft7X3vS6dx+lETbWtvR/Pf3MgdX3mZdcu7fGKs7MXGT5r51fUvs+Td6mzd4nHgJ9loWAFARMQCj8dL6YBheGwaUfV6PPz8q+cz5YDRtrT3aQ3V7fz+W6/y7/sXkcrOq1VXSCbS/Pv+Rfz2G6/QlL2JlrOAq8nSQksFABERi/zFZQRt2iYYoMjv4w/fuYRxIwfZ1uaODMPklUeX879ffZnqta1ZuUdvtm55E7+6/mVeeXS5nSf6fdoc4Dwga2s5FQBERGxQ3GcQ/uIy29qrKC3m3h9dwfiR9uw8uCs169r436/N5Kk/zyPSkX/r9/NNLJLkX3+dz53ffJW6jaFs3mo+MB2IZPMmCgAiInbwQOnA4bacGLhNv8oy7rvpSg4Ynb0lfOmUwZvPfMKtX36e2c+vxjAKaVu/3EinDN5+bhU/vezfvPGvlZh27hX8WfOB04GsJgzQMkA7aBmgi2kZoLPy8ecnGekg3LjJ1lHbjkiM//nNIyxda/uWsp8xfGwfzv/qoRx4xLCs36sQLJ6zmefuW0T95vZc3G4OmVf+WX/4gwKAHRQAXGzi6VcSjkSdLsOVystKWDbzIafL2KVYWyOxth4d0b5b4WicG373GAtXbbK13d3ZZ0J/zrz8ICYdM8J1eweYJix7v4ZXH1vO2mW2Ht+7J7OA84Fwrm7osi9rVigAuNipX/4eqzdkbfmP7MH+Y0fyykN3Ol3GbpiEG2tIhu19IReNJ/nBX55i9qLVtra7J8PH9uGMyw/i0BNG4fX27kdGKmUw77UNzJqxgtoNOXkRvs3jZGb7Z+/whl3w5fJmvdStVi7+zjUX2VSGOGFDdS0LV+Tul7H81/mnHc/xR0x2uozd8BAoLScVDWOm7dt4J+D3ccZRBxGJJ1iyJjfBs6M1xsK3NzH35bVEO5MMGF5OSZl9+x7kg1BzlLefW8WDv5jLB7PWZ/UQpV24A7gByPkOTb07zuWGegBc7JN1mznr6htJG1pPnUs+r5eZD/2OcaNHOF3KHhmpJB2162wNAds889YC7njwJVLp3H7veTweJh4xlGOn78fEo4bj9xfmXPJEPMWi2dV8+Oo6Vs6vc2LyY5LM9r4P5PrG2ygAWKcA4HI//cMDPPzMK06X4SpXX3gmP/v21U6X0SWpeJRw3QZM0/4H9byPN/D/7nqSUKcz81CKSwMcdNQwJk8bycQjhlFcGnCkjq6KRZJ8PK+Wpe/VsOidzcQijh0eVEvmYJ85ThUACgB2UABwuWQyxVU3/op35y91uhRXOG7KJB787U34/YUzgpmKhems3wRZCAGb61v4/p+f4pONdba33R3+gJcJhw1hwpSh7DtpICP364fX5+wjxjShdn0byz/cwvIPtrB2WWO29urvjjnYfKpfTykAWKcAICSTKX7x14d55NlXNRyQJT6vlysuOJ2bv3FFQT38t0mGQ4SbqrOyqWsileZPM17jsVfeJ7tL1LsuWOJn7MSBmTAwrh9D9qmi/5CyrE4kbGuMsGFlMxtXNrPh42Y2rWomGnb+iOCtTOCPwA/JdP87TgHAOgUA2W7V+s3MePEN5sxbQnVtI+FobO8XyW6VlRQzYuhApk2dzCXTT8r7Mf+9ibc3E23J3iv1OYvX8NP7nqOlPWcrybolUORj8MhKBo+qZOCwCir6BinvU0xlv2Iq+hRTXhXEH9g53AWCPuLRFLFIkkhHglg4SSySpK0pQtOWTppqO7f/18Eu/b2pA64C8mqsUAHAOgUAEemyeHsT0Zb6rLXfHApzy73PMnfp2qzdQ7rlReAaIGcbCnRVYU7fFBEpUMHKAZT0G5K19vtXlfHXGy/j5qvPprKsOGv3kb1qAq4AziEPH/6gHgA7qAdARLot28MBAKHOKHc9+TrPvDU/b+YGuMRTZNb227sdpM0UAKxTABCRHslFCAD4cMV67njwJTbUNmf9Xi73MfAd4FWnC+kKBQDrFABEpMcS4RCRphqy/RI9kUrz8Etz+cdL7xKO5nSnOzdoJbMr7N3kyQz/rlAAsE4BQEQsScU6CTdsxszBEtK2zigPvvguT8z6kFiiYJ5V+SoG3AP8ksyYf0FRALBOAUBELDMSMTrrN2JkYdvgXWntiPDwf+by2CsfEE/mfBv6QpcE/gHcDmT/jOYsUQCwTgFARGxhpBKEGzaTTuRu/4japhB/f2EOL767mGhcPQJ70Qn8HbgTyM25zFmkAGCdAoCI2MY0DSKNNSQj7Tm9bzga57l3FvHozPfZ0tSW03sXgAYy4/t/BnrNTEoFAOsUAETEZiaxUDOxtvqsbB28J4Zh8taCT3js1Q+Y9/GG3N48v5jAG8D9wLNAr5s5qQBgnQKAiGRFMtJBpKkG00g7cv+Ndc28/N4yXnl/Geu3FNwct57aADxKpqt/nbOlZJcCgHUKACKSNUYqSaSphlTM2f3919Y0MuuD5bz07hI2N7Q6WksWVAPPkNnA511y3u/iDAUA6xQARCSrTEzioWZibQ1Z3y9gr7WYJivW1/LesrV8sHwdi1dtJpFypofCghTwPvAyMBNYiEse+jtSALBOAUBEciIVCxNpqsFI5c9s/VgiyYJPNvHBsnV89PF6Vm9uIJl/gSABzAPmAnOAd8hs3uNqCgDWKQCISM6YhkGsrZ54R0tevmZNpQ3WVjfwyaY6Vm6o45NNmbfOSM7m0LUBS7e+Ldn6tpDMpj2yAwUA6xQARCTnUvEIkaYtGMnCmJzeHArT0NpOfUs7tU0h6lvaefCld602exewBVhPZsLeenrRMr1sUwCwTgFARJxhmkTbGkiEmjHzsTtgLw758m1Wm9AzzAKv0wWIiEgPeTyU9B1MxfD9CJRUOF2NFBgFABGRAucNFFE2eBRlg0fjKyp2uhwpEAoAIiK9RKCkjIqhYynpNwSv1+d0OZLn/E4XICIiNvJ4CFb2p6iiL4mOVmKhJswcnTAohUUBQESkF/J4vNuDQLy9hXioybEthSU/KQCIiPRiHo+X4qoBBCv6kehsId7eklcbCYlzFABERFzA4/USrBxAsGIAyWgHiY5mklFnzxcQZykAiIi4iQcCpRUESitIJ6Ik2ltJhNsxTQ0PuI0CgIiIS/mKSigZUEJJ/6EkIu0kO0Okop0FuamQdJ8CgIiI23k8FJVVUVRWhZlOEg+HSEU6SMUjeXnegNhDAUBERLbz+AIUVw6AygEYRppUpINkuJ1kLAym4XR5YiMFABER2SWv10dReR+KyvuAkSYZi5KKd5KKRkgno+odKHAKACIisndeH4HScgKl5dAXTCNNKhYhHY+QTkRJxWPaZ6DAKACIiEi3eby+7asJtjFSCdKJGOl4LPPnZIJ0KgEKBnlJAUBERGzh9Rfh9RcRKK3c6f1mOkU6lcBIJTHTKQwjjZnS9sROUwAQEZGs8vj8+H1+CDpdiexIpwGKiIi4kAKAiIiICykAiIiIuJACgIiIiAspAIiIiLiQAoCIiIgLKQCIiIi4kAKAiIiICykAiIiIuJACgIiIiAspAIiIiLiQAoCIiIgLKQCIiIi4kAKAiIiICykAiIiIuJACgIiIiAspAIiIiLiQAoCIiIgLKQCIiIi4kAKAiIiICykAiIiIuJACgIiIiAspAIiIiLiQAoCIiIgLKQCIiIi4kAKAiIiICykAiIiIuJACgIiIiAspAIiIiLiQAoCIiIgLKQCIiIi4kAKAiIiICykAiIiIuJACgIiIiAspAIiIiLiQAoCIiIgLKQCIiIi4kAKAiIiICykAiIiIuJACgIiIiAspAIiIiLiQAoCIiIgLKQCIiIi4kAKAiIiICykAiIiIuJACgIiIiAspAIiIiLiQAoCIiIgLKQCIiIi4kAKAiIiICykAiIiIuJACgIiIiAspAIiIiLiQAoCIiIgLKQCIiIi4kAKAiIiICykAiIiIuJACgIiIiAspAIiIiLiQAoCIiIgLKQCIiIi4kAKAiIiICykAiIiIuJACgIiIiAspAIiIiLiQAoCIiIgLKQCIiIi4kAKAiIiICykAiIiIuJACgIiIiAspAIiIiLiQAoCIiIgLKQCIiIi4kAKAiIiICykAiIiIuJACgIiIiAspAIiIiLiQAoCIiIgLKQCIiIi4kAKAiIiICykAiIiIuJACgIiIiAspAIiIiLiQAoCIiIgLKQCIiIi4kAKAiIiICykAiIiIuJACgIiIiAspAIiIiLiQAoCIiIgLKQCIiIi4kAKAiIiICykAiIiIuJACgIiIiAspAIiIiLiQ3+kCRETcYuW6Tcx44XXenb+M6toGIrG4o/WUFgcZMXQQx02ZxCXTT2b/sSMdrUdyy+N0Ab2AaeXiDbOftKsOEclTiWSS2+96iMeen4VhWPqVkTU+r5fLzjuVW264kkAgN68NR0+72GoTeoZZoB4AEZEsSiSTXPn9O3hvwXKnS9mjtGHw8DOvsGZDDQ/97qachQBxjuYAiIhk0W13PZj3D/8dzV2wjF/89WGny5AcUAAQEcmSles28fjzrzldRrc98uyrrFq/2ekyJMsUAEREsmTGC6/n7Zj/nqQNgxkvvuF0GZJlCgAiIlkyZ95Sp0vosTnzljhdgmSZAoCISJZsqW9yuoQeq64r3NqlaxQARESyxVO4q9QKuHTpIgUAEZEsGTaov9Ml9NjwwQOcLkGyTAFARCRLpk092OkSemza1MlOlyBZpgAgIpIll0w/GZ+38H7N+rxeLpl+ktNlSJYV3nemiEiB2H/sSC4771Sny+i2Ky44nXGjRzhdhmSZAoCISBbdcsOVHHv4JKfL6LLjpkzi5m9c4XQZkgMKACIiWRQI+Hnwtz/myi+ckdfDAT6vl6svPJMHf3sTfr/P6XIkB7TQwzqdBigiXbJq/WZmvPgGc+Ytobq2kXA05mg9ZSXFjBg6kGlTJ3PJ9JNy3u2v0wCdpU+edQoAVphgGknSqSRmKoVhJDFTaYx0CtNMY6YNTCOd+bNhgGluv9A0DAA8Xi/bv5U9HrxeL3h8eLw+PD4vHo8Pr8+Px+fH69/23wBenx/9CIg4RwHAWTrvUXLCNA2MRIxUMo6RiGOkEhjJBOlUEkzDWtvGzten01280OPB5y/CGyjC6y/CWxTEX1SMNxDE48nfrloRETsoAIjtTMMgnYiSikdJx6MYyRjpVMJiX0kWmCbpZJx0Mr7z+z3g9QXxFQXxB0vxBUvwBYsVCkSkV1EAEMtMwyAVC5OKdZKOR0nHY5h597TvBhOMVBwjFScZac+8z+PBX1SML1iKv7iMQHEpeDVRSkQKlwKAdJ8JqXiEVKyTVCxMOhYt7Ad+V5gmqXimVyPe3owHD75gCf6SMgIlFfiKSjQaKSIFRQFAusY0ScYipKLtJMPtGOmU0xU5ysTMhKB4hFhbI16vD39pBf6ScgKlFRouEJG8pwAgu2VikopGSIbbSEQ6wOjq7Dr3MYw0ic42Ep1teDzezDBBeRVFpZU6Vk1E8pICgHxGKh4h0RkiGWnHdPkr/Z4wTYNktINktIOoz0+gtJJgeR98wRKnSxMR2U4BQAAwzTSJznYSHS2kE85uTtKbmOkUiY4WEh0t+AJBAuV9KCrvs3UPAhER5+i3kMulEzHi7c0kwqEdNtmRbEgn46Rb64m3NRIoqyRY2R9fUbHTZYmISykAuJEJyViYRHszyWiH09W4jmka2+cL+IOlFFX2I1BWiUfLCEQkhxQA3MQ0SXS2EWtvwkgmnK5G2LqcsjGCty1IcdUAAuVVCgIikhMKAG5gmiTCIeKhRtJ68OclIxkn0lSDt62RYGU/ghV9QUsJRSSLFAB6MZPMK/54WyNGKul0OdIFRipBtKWOeHsLxX0GECjvox4BEckKBYBeKhkNE2upI53UjP5CZKQSRJq24A01U9xnIEVlVU6XJCK9jAJAL5OOR4m21pGKRZwuRWxgJONEGqtJdLRS3Hcwfu0lICI22VUAmARcB5wMjAbKclmQ9IxppIm1NRDvaMm/U/e6oCnUSXV9K/Ut7TSFOmlq66CprZNQOEpnJEZnJE5HNEY4+t+T++KJzCZFwaL/fhuXlxRTXhqkorSY8pIglWUlDOxbQf+qcgb2KWdQ30pGDu5H/6rC+rZOxcJ01q6jqLwPJX0H49E+AgVp5bpNzHjhdd6dv4zq2gYisfjeL8qi0uIgI4YO4rgpk7hk+snsP3ako/VIbu04uBgE/gB8FdDsoxzZMPtJaw2YkAi3EWupw8jzrXpN06SmsY3Vm+tZvbmB1Zvr2VTfwub6FiKx3E5OLCsuYsTgfowa3I/xowYzbsRgxo0azLABVXjyfOtej9eXGRao7Kf5AQUikUxy+10P8djzszCM/EzoPq+Xy847lVtuuJJAIDcBc/S0i602oR8AC7Z98oLAy8DnHKzFlawEgHQiSqSplnQiamNF9gl1Rlm6tpola6pZvLqaZetqdnoFn4/KS4NM2ncEB+83Yvt/K8vyc7MeX1ExpQOGZU4ilLyVSCa58vt38N6C5U6X0iXHHHYQD/3uppyEAAUAZ2375N0NfM3JQtyqRwHANIiGmki0NeXVMbyxRJLFqzfz/rJ1fLB8HSs31GEU+O6CXo+H0cMGcOj4URx10FiOmbQvZSVBp8v6L4+H4soBFPcZoGWDeermO/+PR5+b5XQZ3XLlF87gtu9ck/X7KAA4y0NmzH8R6vZ3RHcDQDoeJdJUQzqZH6+kWzsizFm8mncWrmLO4tVE4717uWEw4OeQ8aM4/tDxnHrEgQzqW+F0ScDW3oD+Q/EFS50uRXawct0mzrr6xrzt9t8dn9fLyw/+lvFjsjsnQAHAWX4yE/708M9zJibx1kbiIedf9Te1dfLKB8t55f1lLFtbU/Cv8rsjnkzxwfJMD8edj77CQfsO5/SjDuL0oyYyoKrcsbrSiRidtRsI9hlAsM9AzQ3IEzNeeL3gHv4AacNgxotvcMs3r3S6FMkiP3CK00XInhmpBJHGGlJx55b2RWIJXv1gOf+Zu5R5KzcU5C81uxmmyZI1mTkOdz72ClMPGMPZx07i1CMmUhIM5LweE5NYWyPJSCelA0fgCxTlvAbZ2Zx5S50uocfmzFuSvcZNk3hnW/baly7xA6OcLkJ2LxEOEW2uxXRohv+6mkZemLOYZ95aQKgzPycb5gPDMLf3DPzvP2dyxlEHceFJh3PA6KE5ryWdiNJRu46SvoMzWwqLY7bUNzldQo9V12Wh9q0P/nhIu5PmAz/gXL+l0LYh/2YGp9MGsz5awSMz32fZ2hqnyyk44Wicp9+cz9Nvzufg/UZw+RlHcfKUA/D5cjjSZqSJNm8h2rwld/fsIY/XBx4PHo8XPB68Pj9efwCPz4/XF8AXKMJbFMTry32vimV5vqR0T2wtfdty5bYGPfjziHYTke06I3H+9eY8npj1IXXN7U6X0yssWVPND/7yL4YOqOLSU4/kC587LL9WEeSBbb1b2waVjN1McPV6fXiLivEVFeMvLsNfXJoJD3ls2KD+rN5Q7XQZPTJ88ABb2klG2om1NZJOaFvyfKMAIIRjCZ587SP+8eIc2sP6Ic2G2qYQv3/8Ve599i0uPmUqV08/Lm/3F8hXhpHGiIVJxcLE25vx4MFbVIy/pJRASQX+YFnezQmfNvXggg0A06ZOtnR9KhYm2lpPOq6hw3ylAOBiHZEY/3z5PR579QM6I/mxrLC3C8cS/OPFd/nXG/O57PQjufyMoykvVY9AT5iYpBNR0oko8VAzXl+AQGkFgbLKvAkDl0w/mYeenknaMJwupVt8Xi+XTD+pR9emEzGirfWkop02VyV2UwBwoVTa4N/vLOSv/3qTlvaw0+W4Ukckxj3Pvs3jsz7kqrOP5UunH0kwR9uv9lZGOkm8o4V4Rwtef4CisiqClf3wODh3YP+xI7nsvFN5+JlXHKuhJ6644HTGjR7RrWuMVJJ4qJF4Z2tBnkfiRh70pXLUon/+LGf3Mk2Tme8v5y9PvU5No5bg5JMRg/ryzYtO5rQjD8z7swgKisdDoKSCYFV//A5tkpRMprjqxl/x7vzCWBJ43JRJPPjbm/D7uza/wkgnibc2kuhs6/YeJYd8+baelLijrvyw+IFxwIHAMGAgMAQYDOzqmyIBNAL1QB3QAHwCrAB61TGrCgAOy1UA2FDbzK8e+g8fLF+Xk/tJzxw+YR9+dMVZjBs5yOlSeh1/sJRg1QACpbnfvTGZTPGLvz7MI8++mrfDAT6vlysuOJ2bv3FFlx7+ppEmHmoi3t6Cafbs/1OWAsABwKnAFOAgMg9+O8bZ0sAaYAmZ3XPfBD7c+v6CpADgsGwHgHA0zt+eeYsnZn1IOp2fv3hkZ36fl0tPO5KvnX+CVgxkgb+4lOK+gx3pEVi1fjMzXnyDOfOWUF3bSDjq7KTbspJiRgwdyLSpk7lk+kld6vY3TYN4qJl4qBnTtPbssykAVAJnAaeRefB3b+zCmhDwBvAa8CKwKYf3tsxyAPj27IL6/2u7P02zto9SNgPA7EWr+fnfX6ChtSNr97BTeWkJIwb1Z9SQgYwYPIARg/szYtAABvatpDhYRLCoiIrSEvw+L1XlZRRtHTNPJFOEOsOkUmk6ojHiiQSxeIKGlhDVDc1U1zdR3dDE5romqhua6YwUxqzkIf0r+cnV0zlu8jinS+mVAiUVlPQfgtevHRO7ZNsmPm2NGGl71vLbEADuAy4DyqxXY5kBvAc8DDwB5P1aas066oVCnVF+88hMXno3i1t5WuDzetlv1DAOGT+GyePHcMj+Y5kwegR9Knr2M1xaHOzWtW0dYVZuqGbhJ+tY/Mk6Fq1az5rNW/Jue+O65nZu+N1jnHPcZG68/AwtG7RZMtpBqiZMsGoAxVX9dZri7uT3Jj7XO13ADrzAsVvf/gA8A/weWOhkUXuiANDLzFm8mlv/73maQvmzBKe0OMi0Qydy/OEHcej+Y5m03z6UlTj3MOtTUcZRk/bnqEn7b39fOBpjyeoNLPpkHW/PX8bsRSuIxvJjaeQLcxbz3rK13PaVz3Pswfs5XU6vYpoGsbYGkuEQpQOH4ysqcbqkvJKMhom11mkTn+4rBS7f+vYu8L/AC45WtAsaArAoX4YAEqk0dz/9Jg+9NDcvTucbPWwQJxw+idOPPozPTZlEsKiwtnFNpdPMW7GGV95bwNvzlrJo1XqnS8LjgQtOPJwbLz+d4gL7fBYCDx6CVf0p7jPQ9b0BqXiEaEs96SwfQGbDEEAh+QD4EfCWw3Vspx6AXmBdTSM/+tvTrNpU72gdhx+wHxefdhynHXUo+wwt7Fnsfp/vv70E11/KxtoGXnlvIU/Oms2Cj9c6UpNpwtNvzmfp2mr+9xsXMmaYPVu1SoaJSSzURDIapmzQCFfODdAmPll1JJmVAy8C3wIcf1WhHgCLnO4BeGHOYu548CWicWfG5oYM6MvnTziSy846kYP23ceRGnJt9aYtPPPGXB6f+Q6b6hodqSFY5OdbF5/CZacf6cj9ezuP10vpgOEESiudLiUnnNrEx2U9ADuKAr8DfrX1z45QALDIqQAQjSe546GXeGH2Ykv374lgUYDp06Zy6RnHc8Lhk/B53dldmjYM3pq3lMdnvsNLsz8insx9CDtn2mRuuvJsSoIaEsiGYNUASvoMzotthbNh24M/0dH9TXzs4OIAsM1KMqsYFjhxcw0BFKD1W5r4wV+eYvXmhpzet7y0hMvOPIFvXXoOQwf0y+m985HP6+XkIyZz8hGTaWxt5+//fpV7n55JW0futld+YfZilq2t4X9vuJDxIwfn7L5uEQ81YSQTlA4cnjmuuJewYxMfscUEMnMDfgn8nBxvKqQeAIus9gAUgkH9+vD1C8/kms+fSkWZZknvSXs4wt//PYu7n3qZxtaQ0+XkvYDfR0kwQGVZCaXBIoqDAYb0r2L00P6MGTqAfYYOYJ+h/SkrdnY83l9cSumgUXjz/PjhvTFNg3h7C/FQ0/ZjmJ1gGCYvzV3CLfc+51gNeeht4EvAllzdUAHAot4cAMYMG8w3v3gOl555PMGAupi7I55I8tjMt/nzEy+wYUtue2p6G6/Hw/hRgzli4hiOOHAMh+2/D6UOBAJfUTFlg0bh9Rfgz4JpEu9oJRZqxEynHC3lg+Xr+P3js/hkY52jdeSpLcC5wPxc3EwBwKLeGAD6VJTxgyu/wLXnnUagiweCyK4lU2nuf/YVfvPQ04Q6e9U5Io7x+bwctv8oph87mVOmHpDT7ZK9/iDlQ0fj9RXI6KkJiUgos4lPMuFoKYtXb+auJ19n/sqNjtZRADrJzAt4Pts3UgCwqDcFAL/Px1XnnsyPrr6IfpXlTpfTqzSHOvjV35/i4RffIJUu2LND8k5xUYDPTZnAucdN5qiDxubkJEVvoIjyIaPxOnjMcFfkyyY+K9bX8penXmfuUmeWzxaoNPD/gD9l8yYKABb1lgDwuakH88tvfJkJ3TwDXLrn4/Wbufmv/+SteYVxNGwhGT9qMNedO41TjjgQb5aDgK8oSPng0XjysCcgFQsTa2sgFXO2x2lLUxsPPD+HZ99akBebkxWom4E7stW4AoBFhR4ARg4ewG++czWnH32Y06W4ysvvzueHdz1IdX2T06X0OqOH9ufac6Zx9rEH4/VmLwj4gyWUDR6NJ0+WwaYT8cySvrCzk0/rW9q597m3+fc7i/LqBNLRwwax38hhjBs5lNHDB9O3opy+leX0qSjD6/XS3plZvdMc6qCprYO6plZWb6ph5cYaNtTUO3mM8/fInC1gOwUAiwo1AHg8Hq75/Cn87PpLKS/VzH4ndISj3HrvYzz4wuuYeoVkuwPHDOWmK8/moH2HZ+0eRWVVlA4cjpMbBTi1ic+ntXVG+ccLc3jitQ+JJ5ydaAiw74ghnHHs4Rxz8AFMOXAcA/v2fFOnzkiUD5ev4oOlq3jtg0UsWrU+lz+zJvBt4M92N6wAYFEhBoCRgwfwt5v+h2MnH+C3Z9/0AAAa9UlEQVR0KQLMXricb/z6HvUGZIHX4+GCzx3GNy86mary7ATd4j4DKe6T+62vjVSSeHsT8Y7WzD7RDonEEjwy830efnkunRFnD9AaPqg/l591Iud/7mjG75O94Fdd38SLsz/ikf+8yYp1m7N2nx2YwNXAQ3Y2qgBgUaEFgPM+dxR/+H9foaq81OlSZAdtHWG+e+f9/Put950upVfqV1nG7dd/nuMmj8tK+6UDR1BUVpWVtj/NNNLE25qIdzi7iU8yleapN+Zx/79n09Keu82vduWEwyfxjYvP4qSpk7M67LMrHy5bxf3Pvcqzb7yX7WGCOHAiYNsvCQUAiwolAJQUB/nNt67isrNOdLoU2YNH//MWP7jrwbw5irg38XjgyrOO5ZsXnYTPZ++4vcfjo2L42KweIGQaBvGO/NnE5+6n32JLU5tjdQCcfMRkbrziAo44aLxjNRiGQWd7B6s21XD306/w/Ox52QwCtcBUoMaOxhQALCqEADBu1DD+cet3OHDsSKdLkS5YvWkLV9/6x1x1LbrOxLHD+M0NFzF8YB9b2/UHSygfMiaTNOxkmsQ724i3NWKknTn0a5sPlq/jzsdedfzk0SkHjuOWr1zCtEMnOlpHKpWio70DY4elvSs31HDbA08xb2XWlj0uBI4DLC/zUACwKN8DwCWnTePO711LaXHuNksR62LxBD/+y8M89MLrTpfSK/WvKuOvN17OhH2G2NpusKo/JX1tatOERLiNWFsjRsrZTXw+WrGBPz/1OkvWVDtax8R9R/GT6y7Ji1VL8Viczs7OXc6/ME2TZ9/+kF/842k6Ilk57O8vwDetNqIAYFG+BoDiYBG/uuEKrjznZKdLEQueeOUdvv+HvxPRkIDtSouLuPNbF3P0pH3ta9QD5UPG4A9am2OjTXx2NnrYIH589UV84eRjcz7G/2mmaRLpDBOL7f1rU9PYwo1/+ScfrVhjdxlp4BBgmZVGFAAsyscAoC7/3kVDAtkT8Pv45dfO57Qj7etK9hUFqRi6b4+GAlKxyNZNfJydVLehtpm//usNXvtohZMLDBjUrw/f//L5XDH9JIoCzm+6tG28P9mNo7/ThsHvH3+R+56bZXc5fwK+Y6UBBQCL8ikAeL0erj73FG7/2mWUqMu/V4nG4vz0nkf5x/OvYRjaM8BOXq+H39xwEadMtW9ZbHGfQRT3Gdjlj08nYsRDTXmxic99z73Dc+8sdHQTn/LSEq4971S+d9l5eXMC6a7G+7vjxXfn8+O/PUosYds8jqXAwVYacD5SiSUlxUFGDRnICYdN5KpzT9FWvr1USXGQ337nGq75/Kk8+PzrvL1gGZvrm7RawAaGYXLT356mzw8uZ8oBo21pMxZqJFBeic+/5yCeTsWJtTaSdPjB39YZ5e8vzGbGrI+IJ53bxKekOMhXzj+Nb196Ln3z6DySPY33d1W/ynKCRQE7A8BYqw2oB8Aiqz0ALW89blMlIoUnmUoTjsYIdYZp6wizZnMtqzdt4eP1m3l/6UoaW9tzVkt5aZAHbrqK/W2aGBgoraRs0K6H4cx0inh7M7H2FnBwLX80nuSJWR/y9xfm0BFxbr5BwO/jS2eeyA+v/AJDBvR1rI5PMzGJhiNELU7ke+K1d7nt/qfsPgisA+j59oaoB0BEHBTw++hTUUafijL2GQqTx4/Z/m+mabJyQzVvfrSEp1+f+//bu/MwKeo7j+PvPme4BYGADjDiASggKAYFEV1JFCWggoLGi3glqKub7HoGoybZrOKx3rdRAZUQVESMIqCgkFXAA8gICgynoDADzMH03ftHeTsjM11VXVVdn9fz9PP4oFP9fWSerk/Xp36/4oPV62ydpWZPnMsnTWXKLZfQaV9Tn6sAJPdUkYrtIVz8zQ2B2Uya+O4dxKuc3cQnlc4wc+EHPDTjLXbsrnFsjkAgwMihA/n9xWM5sMTaFRlm5dL3f188meSmR6fxwlvvWjjZ18rNHkBXAEzSFQCR/Fi9fjNT/7GAp2bNo8aepVUA9DukC0/ccKElmwWFiprTqvMB7trEZ9FyHnrB+U18hg3sx8RLxtHnoG6OzlEfs30/GCsAJkx6jLJy25ZO3ovxjICcKQCYpAAgkl+7qmt5ZMZrPDLjH+yqtudu+fEjBnPV2GGWHKuoVTsSe6rIpp19QM6by1Zx//T5rN2y3dE5ftr7EG66ZByDXPosEiv6/sUrVnP13U+xs9q2qytZoDdQZuYgqgBExFP2adWCay8czaVnnMTtT8/gsRdft3xlxFOzF3H4wV04/ogepo8Vr660YKLcffTpJu792zyWrdrg6Bw9Sku47sLRjBw6kIDVuyVawOV9//fdi8mTPygAiIhHtW3dkr9ceQGnnXA0E/77Ico/s2572mwWbn1iFv0P6WrbUwTtVla+lfumz+OfLtjE57rxZzLGBZv4NMSKvr8unuDGh59j1jtLLZysXnOA66w4kAKAiHjawN49WPD4X7j6jsd5Yf5iy45bWVXLA3+fzw0XnmrZMfNBm/g0jUf6/q88C1wEWLJkw71/KyIijdSyeTMev+lKjujZnZsenmpZJfD3+csYdVx/Duu+nyXHs5NbNvFp0ayYi0//uas28WmIFX3/krI1XHnXk1TsrrZwsh9IAzcCt1l5UAUAESkYE846lY7t9uHy/3mIZMp8B5vJZvnzU68w5eZLXHv5endNHU/NXsSzc94lnnDuRsNoJMzZJw/lhl+dRYe25pdR2sljfX8FcDZg+V7CCgAiUlDGDBtM65bNOe/3d1oSAsrKt/LqP1cwYrCpXVct55ZNfMKhEL885XiuueAMOrdv59gcjeWB9f3f9hFwOhas+a+PAoCIFJyfH92fB6+fwGV/vt+SOuCJl9/mlEF9CLrg7nXXbeJz0Vkc2KWzY3M0hRV9/9aKnVxxxxMsX2P7qornMfr+PXa9gQKAiBSk0ScOYuuOSm56aKrpY5V/toN5Sz7mZz891ILJcpPJZpm35GPunTaXTV/sdGwOgKFH9uHmy87+zs6Nbuf3vr8+CgAiUrCuGDuCjz4pZ8Y886sDHpu5kGFH9XJkDfu7/1rHnc/O4ZON1i11zMWRvQ7ipkvHMaS/dY9Ptpv6/oYpAIhIQbvztxex7OM1rP/sC1PH+WTj57z7r3KO7m36IWyNpk18zFHf/+MUAESkoLVu0ZwHrvsNI666lazJhfEvv/1hXgLAms1f8MiLC3jjPdObvZlS8pP2/O7c0zj31BMIBc0/GyGf1PfvnQKAiBS8Y/r2ZNxJQ3jutYWmjjN/6SpqYwlaFEctmuy71m+t4PGZC3l18QoyDu7is2+bVlwxdgS/HjOcomjEsTlypb6/cRQARMQXbr7sl7z6zlJ21+T+JSuWSDJvSRkjh/SzcDJt4mMV9f1NowAgIr7QoW1rLhs9nNufnmHqOLMXLbcsAGgTH+uo7286BQAR8Y3LRp/Mg9NfpcbEN8RlqzawJ5aguYkawE2b+Iw+cRDX/+pMunbq4NgcZqnvz40CgIj4RtvWLTl/xL/x4N9m53yMVDrDB59sZHDfg3L6WW3iYy31/blTABARXznvlONNBQCAJWXrmxQA3LaJzx8uO5t+HtrEpz7q+81TABARX+lRWkLfg0tZ/un6nI/xXlnjq1s3beIz8ZJxHHeEdzbxaYj6fmsoAIiI74wZNthUAFi1YSt18STNihpeIvfhJ5u4b7rzm/gc0m1/rh8/xnOb+DREfb91FABExHeGHtnH1M9nMlk2bqugR7dOP/h32sTHPur7raUAICK+0/vAruzbppWpk8D6rd8NANrExz7q++2hACAivhMIBBh0eC9mLXwv52OUb90BaBMfu6nvt48CgIj4Us/SElMBYM2mz7ln2lxt4mMj9f32UgAQEV86yOT69zeXrSadce4bfzAY4BfHDeSWX5/j6U18GuLBvv92wLnuJwcKACLiS2YDgFMn/0LaxKc+6vvzRwFARHypXZtWTo/QZIWyiU9D1PfnlwKAiPhSy+beuVGukDbxaYgH+/6LgVq738hOCgAi4kstmxc7PcJeFdomPg1R3+8MBQARC5Wt28Tk2fNZsGwlG7dtZ08s7vRI4kFdO3XguvFjOOtnQwgGC/fEb1Xf/+Qr87l9yky7l2FWAOOAuXa+ST4pAIhYIJ5McuP9k3lq1lwyGc9/MRCHdGjbht+ddzoX/uJEopHC/ni2ou+viye48eHnmPXOUgsnq9eHwBl4uO+vT2H/honkQTyZ5KxrbuPtD/7l9CjiUa1bNOeKcSP4zZjhtGjm/mrCLCv6/i3bK5kw6THKyjdbOFm9nsPo+z2zvr+xFABETLrhvmd08pecFPImPg1R3+8eCgAiJpSt28TTr8xzegzxmHAoxDnDh3LNBaPZr0M7p8fJC/X97qMAIGLC5Nnz1flLowUCAUYdP5Abf1WYm/g0RH2/OykAiJjw1rKVTo8gHlHom/g0ROv73UsBQMSEzZ/vcHoEcbkBhx7MxEvGMqR/4W7i0xAr+v7FK1Zz9d1PsbO6xsLJfiANXAvcaeebuI0CgIgJhbw5i5jTs7SEGy8ey6nHDnB6lLxT3+8NCgAiJuzfcV9Wr7d9GZJ4yP4d9+U/zzudc089gVAw6PQ4eaf9/L1DAUDEhBMG9FEAEAA6tG3Nb889nfEjhxX8Jj4N0fp+b/Hnb6mIRc479QQee+F1R58LL85q1aIZV4wdwYQzT/HFJj4Nicfj1FR7pu+/DrjDzjfxAgUAERN6HdCF8aOG8fiLc5weRfLsm018zqRD2zZOj+MYq/r+5+cu4pbHp5MycfWgESqAs4E37HwTr1AAEDHpTxPO49MNn7HgfS0J9IuRQwdyy6/PoVvnjk6P4iij768hmUzkfAz1/c5RABAxKRoJM+22a5n44BSenPmG6oAC1r2kE5P/+Dt6HVDi9CiOU9/vfQoAIhaIRsLcdtWFjB81jMmz3+StpSvYuG07tXUxp0cTEwKBAM2KovQoLeGa88/gpEFHOD2SK6jvLwwKACIW6llawp8vP8/pMURsob6/sCgAiIjIXqnvLzwKACIi8qO0n39hUgAQEZEGWdH3Lylbw5V3PUnF7moLJ/uBNHAjcDugR3Q2ggKAiIj8gPr+wqcAICIi36G+3x8UAERE5Gvq+/1DAUBERAD1/X6jACAi4nPq+/1JAUBExMfU9/uXAoCIiE+p7/c3BQARER9S3y8KACIiPqK+X76iACAi4hPq++XbFABERHxAfb98nwKAiEiBU98v9VEAEBEpUOr75ccoAIiIFCD1/bI3CgAiIgXGY33/NOAi1PfnnQKAiEgBUd8vjaUAICJSADzW91cC41Df7ygFABERj/NY378co+9fZ/cbyY9TABAR8TD1/ZIrBQAREY9S3y9mKACIiHiM+n6xggKAiIiHqO8XqygAiIh4hPp+sZICgIiIB6jvF6spAIiIuJj6frGLAoCIiEup7xc7KQCIiLiQ+n6xmwKAiIjLqO+XfFAAEBFxCfX9kk8KACIiLqC+X/JNAUBExGGpVIrq3VVkMpmcj6G+X5pKAUBExEHq+8UpCgAiIg5Q3y9OUwAQEckz9f3iBgoAIiJ5pL5f3EIBQEQkT9T3i5soADisYvuOBv9dIBCAAAQIEAhAIBgkGAgSDAaNfw4GCYVChEIhgqFgHqcWkabIZmFPbQ2xupip46jvFyspALhYNpuFrHGzEADpH7lkGAgQDoUIR8KEQ2FC0TChUIgAgfwMKyL1ymYyVFVVkUqmcj6G+n6xgwJAochmSaVSpFLf+pAJBIiEI0Sixisc1l+3SD6p7xc30xmhkGWzJJMJ407jWqNCKCqKEi2KEo5EdHVAxEbxWIza6tpvruDlQH2/2EkBwEeymQyxuhixuhjBYIBINEpRcTGRSMTp0UQKhvp+8QoFAJ/KZLLEY3HisTjBcIjiomKKiosJBnVVQCRXWt8vXqIAIGRSafakaqmr3UNRcRHFzYoJ6X4BkSZJJVNUV6nvF+/Qp7x8LUuWWCxGLBYjGo3SrHlzwhH9iojsjdb3ixd57tN9x5oyVsycyqb3F1O1dSPZTJY2Jd3oOmAIvUeeQ/vuPZ0esSAkEgkSiQThcJjiZkY9ICLfpf38xcs8EwDSiTgL7r2ZFS8/+4OUvXPDWnZuWMvyF5+h98hzGHrlHwhFixyatLCkUilqqmuoq4t9GQSKtHpABEinM9RUVX136W0Tqe8XJ3kiAKQTcV76rwvY/P7iH/3vspkMK16aws6N6zht0tMKARZKp1LUVtdQV1tLtKiY4uJiQuGQ02OJOCIei1FbW0s2k/tVdPX94jRP7B+74N6b93ry/7bN7y9m4f1/tHEi/8pkssTq6ti1cye7d+0iHouRMfEhKOIl6VSaql27qamuMXXyX1K2htOvnWT3yT8NXAecjU7+Ug/XB4Ada8qMy/5NtGLmFHasW2XDRPKVVNKoB3ZWVFC1azexWMzUHdAibpVOZ6iprmH3rp0kk0lTx3p+7iLOv/V+u2/2qwSGA7ehm/2kAa6vAFbMnJrTnbXZTIaVLz/L8VffasNU8n3JZJJkMkktEAqFiUbDhKNRIpGI8VAjEQ9KJhPE6uIk4wlTO/qB+n5xH9cHgE1NuPT/g59dtsjCSaSx0ukUdXUpqIsRIEAwHCQcNp5FEI58+ZAihQJxqWQySTKRJBGPk7bornz1/eJGrg8AVVs35f6z2zZbOInkIkuWdCpNOpUm/q0/Nx5lHCYYDhIKBAmGvnrEcYBAIEggEDBWGwSyBAKub6rES7LGkzYz2QyZTIZ0Ok0mnSaVNB6mlTWxlr8+Wt8vbuX6AICJb4rBoO5Sd6tMJkMmkwBzdaqIq2l9v7iZ6wNA684l7NywNqefbdVpf4unERHZO/X94gWuDwBdBwzJOQB0O+o4i6dxv921e5i5YAmLV6xmW+UuUqk03Tp1oN8hpQzu25Nepfurfxex0ZbtlUyY9Bhl5bZXkM8DF6O+X3Lk+gDQe+Q5LH/xGbJNXF4WCIY4bMQ4m6Zyn2w2y9OvvsU9016l5nuPIV298TPmvPcRMJN927RiUJ8eDO1/KCcc2ZvWLZo5M7BIAfrnyk+46q6/srO6xs63SQPXA3egvl9McH0AaN+9J31G/pLlL01u0s8dfsb5tCs92Kap3CWbzXLtA1N4ccF7e/1vK3ZXM+udpcx6ZynRSJjBfXsy/Jj+DDuqD62aKwyI5OrJV+Zz+5SZpNO27oVRgbGxj/p+Mc31AQBgyBUTqdy4ttG7AXYdcCxDLp9o81Tu8eCM1xt18v++RDLFm8tW8uaylUQjYYYd1ZexwwZxTO9DVBOINFJdPMHvH3mOl99eavdbfYTR95fb/UbiD55YXxUuKua0SU/T9/TzCQQbHjkQDNFvzHhGTXqGoE+eZ7/5iwoeemGO6eMkkileXfw+F9x6Pz/79z/y6Etv2L1sScTztmyvZNzEu/Nx8n8eGIxO/mKhACY7pKve3mjRKI2zY90qVr78LJuWLaJq22YCgSCtO5fQ7ajjOGzEuLxf9r9nSFdTP//p9PuMpY45rj2++7lXePCF103N0JBoJMwpxxzBhNEnccB+HW15DxGv0vp+8TrPBQC3MRsAoP5n626Y+mDbUHGkRThCJBEMtMgGsp0zGUrCgUAXstku2Wy2a5bsfidfdWvPj8u32Hq5IxQMctLR/bh01DAO697FzrcS8QT1/VIIFABMsisANEEV0MrsEI01qG8PLh01jMF9e+brLUVcQ32/FBJ/FOWFLa9/h4uXr2bx8tUcekAJF556AsOP6U9xNJLPEUQcsfmLCi6/43Gt75eCoSsAJrngCsBaoLvZIXLVukUzRg05irNOHETPUu28KIVp9uL3mfjI81TvqbPzbbS+X/JKVwC8bwEOBoCq2jomv7aQya8t5KCSTpx8dH9OPqYfPbru59RIIpbZsr2SP/11BnOXLLf7rdT3S97pCoBJLrgCMBh4x+wQVivt3IFjD+/F4L49GHjYwdpkSDzl88pdPDpzLtPeWEw8afsTq9T3iyMUAExyQQAAeAHjA8SVQqEghx3Qhb4HdaPPgV3pc2BXuu//E0I/sqeDSL7FEkkWL1/NjLf+j/lLV9r9BL+vqO8Xx6gCKAwXAz2BXk4PUp90OsPyNRtYvmbD138WjYTp0rE93ffvSLdOHejcvi3t27Siwz6tademJS2Ki2lWHCUUDNKyWbGD00uhiSWS1MXjfF6xm01fVPDx+s189OkGlny8hrp4Il9jqO8Xx5kOANWfb7FiDjGnEhgCPAv83OFZGiWRTLF2yzbWbtnm9Cgi+VYJjEN9vzhM12ALRwVwEkYVMBuwvbgUkSb7CDgKnfzFBRQACs9LwAigHfAL4F5glaMTiQjANIybdtc5PYgI6B6AQlYDvPLlC+AAYCRwJsaHkIjkh/bzF1fSFQD/KAfuAY4F+mBcGdjp6EQiha8SGA7chk7+4jIKAP60ErgK2A84H7B9Y3MRH1LfL66mAOBvMWAyxofUEIy6QN9SRMxT3y+upwAgX3kH46bBARgfXnnZBUWkwMSB/8DY1leb+4irKQDI972PsUb5IIz7BPY4O46IZ6wGjgH+F11JEw9QAJCGrMe4T6AUuBb4xMlhRFwshXHSHwB84PAsIo2mACB7sx1j+VIPjA+4R9FVAZGvLAUGYVz2r3F4FpEmUQCQplgGXAZ0wNhTYDLqOcWfVgBnAT8Fljg8i0hOFAAkF3uAWRhLCDtj3PA0FdDG/lLIssBbwGnA4cB01PWLh2knQDGrGuORps9jPNq4NzAMOBEYCLR3bjQRS2zG+P1+DN0LIwVEAUCslMW4NLoCuPvLPyvF2GdgAHAEcAjQBSMsiLhRDGM1zByMK10foG/6UoAUAMRu6798Tf/WnxUDB3/5KgU6AR0x7i3oBOwDRICWQAhona9hxRdiQB3GVti7MH4/y4G1GDf1fYiepik+EEDJ1mn6JiwiInmnmwBFRER8SAFARETEhxQAREREfEgBQERExIcUAERERHxIAUBERMSHFABERER8KIixlas4o8rpAURExJ+CwCanh/CxjU4PICIi/hQE3nB6CB+b4/QAIiLiX72BFMaWwHrl75UCDm3E34+IiIjlgsBK4GGnB/GhB4Ayp4cQERF/iwJzcf5bsV9eb2A87U5ERMRxUeA+VAfY+UoB96CTv4iIuNBhwF3ACowlgk6fNL3+qv7y/+WdqPMXERGX+H9OZUIkqJCQKQAAAABJRU5ErkJggg==;" vertex="1" parent="1">
          <mxGeometry x="823" y="60" width="391" height="391" as="geometry" />
        </mxCell>
      </root>
    </mxGraphModel>
  </diagram>
</mxfile>
